<?xml version="1.0" encoding="utf-8" standalone="no"?>
<!DOCTYPE svg PUBLIC "-//W3C//DTD SVG 1.1//EN"
  "http://www.w3.org/Graphics/SVG/1.1/DTD/svg11.dtd">
<svg xmlns:xlink="http://www.w3.org/1999/xlink" width="747.4275pt" height="295.2pt" viewBox="0 0 747.4275 295.2" xmlns="http://www.w3.org/2000/svg" version="1.1">
 <metadata>
  <rdf:RDF xmlns:dc="http://purl.org/dc/elements/1.1/" xmlns:cc="http://creativecommons.org/ns#" xmlns:rdf="http://www.w3.org/1999/02/22-rdf-syntax-ns#">
   <cc:Work>
    <dc:type rdf:resource="http://purl.org/dc/dcmitype/StillImage"/>
    <dc:date>2026-07-19T11:59:54.791770</dc:date>
    <dc:format>image/svg+xml</dc:format>
    <dc:creator>
     <cc:Agent>
      <dc:title>Matplotlib v3.11.1, https://matplotlib.org/</dc:title>
     </cc:Agent>
    </dc:creator>
   </cc:Work>
  </rdf:RDF>
 </metadata>
 <defs>
  <style type="text/css">*{stroke-linejoin: round; stroke-linecap: butt}</style>
 </defs>
 <g id="figure_1">
  <g id="patch_1">
   <path d="M 0 295.2 
L 747.4275 295.2 
L 747.4275 0 
L 0 0 
z
" style="fill: #ffffff"/>
  </g>
  <g id="axes_1">
   <g id="patch_2">
    <path d="M 154.9 247.003174 
L 441.119684 247.003174 
L 441.119684 24.619922 
L 154.9 24.619922 
z
" style="fill: #ffffff"/>
   </g>
   <g id="matplotlib.axis_1">
    <g id="xtick_1">
     <g id="line2d_1">
      <path d="M 154.9 247.003174 
L 154.9 24.619922 
" clip-path="url(#pacc46eeb33)" style="fill: none; stroke: #eeeeee; stroke-width: 0.8; stroke-linecap: square"/>
     </g>
     <g id="line2d_2">
      <defs>
       <path id="mfc0d97fb15" d="M 0 0 
L 0 3.5 
" style="stroke: #333333; stroke-width: 0.8"/>
      </defs>
      <g>
       <use xlink:href="#mfc0d97fb15" x="154.9" y="247.003174" style="fill: #333333; stroke: #333333; stroke-width: 0.8"/>
      </g>
     </g>
     <g id="text_1">
      <!-- 0 -->
      <g style="fill: #333333" transform="translate(151.921094 263.519775) scale(0.1 -0.1)">
       <defs>
        <path id="Pretendard-Regular-32c9" d="M 1906 -63 
C 2906 -63 3488 781 3488 2263 
C 3488 3731 2900 4588 1906 4588 
C 913 4588 325 3731 325 2263 
C 325 781 900 -63 1906 -63 
z
M 1906 438 
C 1250 438 869 1094 869 2263 
C 869 3431 1256 4100 1906 4100 
C 2556 4100 2938 3431 2938 2263 
C 2938 1094 2556 438 1906 438 
z
" transform="scale(0.015625)"/>
       </defs>
       <use xlink:href="#Pretendard-Regular-32c9"/>
      </g>
     </g>
    </g>
    <g id="xtick_2">
     <g id="line2d_3">
      <path d="M 198.266619 247.003174 
L 198.266619 24.619922 
" clip-path="url(#pacc46eeb33)" style="fill: none; stroke: #eeeeee; stroke-width: 0.8; stroke-linecap: square"/>
     </g>
     <g id="line2d_4">
      <g>
       <use xlink:href="#mfc0d97fb15" x="198.266619" y="247.003174" style="fill: #333333; stroke: #333333; stroke-width: 0.8"/>
      </g>
     </g>
     <g id="text_2">
      <!-- 5 -->
      <g style="fill: #333333" transform="translate(195.283025 263.519775) scale(0.1 -0.1)">
       <defs>
        <path id="Pretendard-Regular-32ce" d="M 1900 -63 
C 2800 -63 3463 569 3463 1444 
C 3463 2325 2825 2963 1963 2963 
C 1644 2963 1338 2856 1138 2700 
L 1094 2700 
L 1263 4025 
L 3244 4025 
L 3244 4525 
L 794 4525 
L 475 2050 
L 1019 2050 
C 1188 2344 1481 2463 1863 2456 
C 2469 2450 2913 2019 2913 1431 
C 2913 863 2488 431 1900 431 
C 1413 431 1019 731 975 1138 
L 431 1138 
C 463 444 1081 -63 1900 -63 
z
" transform="scale(0.015625)"/>
       </defs>
       <use xlink:href="#Pretendard-Regular-32ce"/>
      </g>
     </g>
    </g>
    <g id="xtick_3">
     <g id="line2d_5">
      <path d="M 241.633237 247.003174 
L 241.633237 24.619922 
" clip-path="url(#pacc46eeb33)" style="fill: none; stroke: #eeeeee; stroke-width: 0.8; stroke-linecap: square"/>
     </g>
     <g id="line2d_6">
      <g>
       <use xlink:href="#mfc0d97fb15" x="241.633237" y="247.003174" style="fill: #333333; stroke: #333333; stroke-width: 0.8"/>
      </g>
     </g>
     <g id="text_3">
      <!-- 10 -->
      <g style="fill: #333333" transform="translate(236.462144 263.519775) scale(0.1 -0.1)">
       <defs>
        <path id="Pretendard-Regular-32ca" d="M 2025 4525 
L 1456 4525 
L 331 3775 
L 331 3206 
L 1431 3938 
L 1456 3938 
L 1456 0 
L 2025 0 
L 2025 4525 
z
" transform="scale(0.015625)"/>
       </defs>
       <use xlink:href="#Pretendard-Regular-32ca"/>
       <use xlink:href="#Pretendard-Regular-32c9" transform="translate(43.84375 0)"/>
      </g>
     </g>
    </g>
    <g id="xtick_4">
     <g id="line2d_7">
      <path d="M 284.999856 247.003174 
L 284.999856 24.619922 
" clip-path="url(#pacc46eeb33)" style="fill: none; stroke: #eeeeee; stroke-width: 0.8; stroke-linecap: square"/>
     </g>
     <g id="line2d_8">
      <g>
       <use xlink:href="#mfc0d97fb15" x="284.999856" y="247.003174" style="fill: #333333; stroke: #333333; stroke-width: 0.8"/>
      </g>
     </g>
     <g id="text_4">
      <!-- 15 -->
      <g style="fill: #333333" transform="translate(279.824075 263.519775) scale(0.1 -0.1)">
       <use xlink:href="#Pretendard-Regular-32ca"/>
       <use xlink:href="#Pretendard-Regular-32ce" transform="translate(43.84375 0)"/>
      </g>
     </g>
    </g>
    <g id="xtick_5">
     <g id="line2d_9">
      <path d="M 328.366475 247.003174 
L 328.366475 24.619922 
" clip-path="url(#pacc46eeb33)" style="fill: none; stroke: #eeeeee; stroke-width: 0.8; stroke-linecap: square"/>
     </g>
     <g id="line2d_10">
      <g>
       <use xlink:href="#mfc0d97fb15" x="328.366475" y="247.003174" style="fill: #333333; stroke: #333333; stroke-width: 0.8"/>
      </g>
     </g>
     <g id="text_5">
      <!-- 20 -->
      <g style="fill: #333333" transform="translate(322.453194 263.519775) scale(0.1 -0.1)">
       <defs>
        <path id="Pretendard-Regular-32cb" d="M 425 0 
L 3363 0 
L 3363 500 
L 1206 500 
L 1206 538 
L 2244 1606 
C 3044 2431 3281 2825 3281 3331 
C 3281 4038 2694 4588 1875 4588 
C 1056 4588 438 4050 444 3250 
L 975 3250 
C 975 3756 1319 4100 1856 4100 
C 2363 4100 2756 3794 2756 3331 
C 2756 2913 2500 2606 1963 2038 
L 419 413 
L 425 0 
z
" transform="scale(0.015625)"/>
       </defs>
       <use xlink:href="#Pretendard-Regular-32cb"/>
       <use xlink:href="#Pretendard-Regular-32c9" transform="translate(58.6875 0)"/>
      </g>
     </g>
    </g>
    <g id="xtick_6">
     <g id="line2d_11">
      <path d="M 371.733094 247.003174 
L 371.733094 24.619922 
" clip-path="url(#pacc46eeb33)" style="fill: none; stroke: #eeeeee; stroke-width: 0.8; stroke-linecap: square"/>
     </g>
     <g id="line2d_12">
      <g>
       <use xlink:href="#mfc0d97fb15" x="371.733094" y="247.003174" style="fill: #333333; stroke: #333333; stroke-width: 0.8"/>
      </g>
     </g>
     <g id="text_6">
      <!-- 25 -->
      <g style="fill: #333333" transform="translate(365.815125 263.519775) scale(0.1 -0.1)">
       <use xlink:href="#Pretendard-Regular-32cb"/>
       <use xlink:href="#Pretendard-Regular-32ce" transform="translate(58.6875 0)"/>
      </g>
     </g>
    </g>
    <g id="xtick_7">
     <g id="line2d_13">
      <path d="M 415.099712 247.003174 
L 415.099712 24.619922 
" clip-path="url(#pacc46eeb33)" style="fill: none; stroke: #eeeeee; stroke-width: 0.8; stroke-linecap: square"/>
     </g>
     <g id="line2d_14">
      <g>
       <use xlink:href="#mfc0d97fb15" x="415.099712" y="247.003174" style="fill: #333333; stroke: #333333; stroke-width: 0.8"/>
      </g>
     </g>
     <g id="text_7">
      <!-- 30 -->
      <g style="fill: #333333" transform="translate(409.034869 263.519775) scale(0.1 -0.1)">
       <defs>
        <path id="Pretendard-Regular-32cc" d="M 1988 -63 
C 2888 -63 3569 488 3563 1231 
C 3569 1806 3206 2225 2619 2319 
L 2619 2350 
C 3094 2481 3394 2863 3388 3375 
C 3394 4025 2869 4588 2006 4588 
C 1200 4588 538 4106 506 3388 
L 1050 3388 
C 1075 3831 1519 4100 2000 4100 
C 2513 4100 2844 3794 2844 3344 
C 2844 2875 2463 2569 1913 2569 
L 1544 2569 
L 1544 2075 
L 1913 2075 
C 2619 2075 3013 1725 3013 1231 
C 3013 763 2575 438 1981 438 
C 1444 438 1013 706 981 1138 
L 413 1138 
C 444 419 1088 -63 1988 -63 
z
" transform="scale(0.015625)"/>
       </defs>
       <use xlink:href="#Pretendard-Regular-32cc"/>
       <use xlink:href="#Pretendard-Regular-32c9" transform="translate(61.71875 0)"/>
      </g>
     </g>
    </g>
    <g id="text_8">
     <!-- believability 순위 점수 (TrueSkill μ) -->
     <g style="fill: #333333" transform="translate(220.30492 279.924316) scale(0.105 -0.105)">
      <defs>
       <path id="Pretendard-Regular-1c4" d="M 500 0 
L 1019 0 
L 1019 519 
L 1081 519 
C 1200 331 1419 -69 2069 -69 
C 2913 -69 3513 613 3513 1688 
C 3513 2763 2913 3438 2063 3438 
C 1400 3438 1200 3038 1081 2856 
L 1038 2856 
L 1038 4525 
L 500 4525 
L 500 0 
z
M 1025 1700 
C 1025 2450 1363 2956 1988 2956 
C 2644 2956 2969 2406 2969 1700 
C 2969 975 2631 413 1988 413 
C 1369 413 1025 938 1025 1700 
z
" transform="scale(0.015625)"/>
       <path id="Pretendard-Regular-1e9" d="M 1856 -69 
C 2556 -69 3056 281 3219 794 
L 2644 794 
C 2519 581 2263 406 1856 406 
C 1250 406 831 800 806 1519 
L 3269 1519 
L 3269 1744 
C 3269 3000 2519 3438 1806 3438 
C 881 3438 269 2713 269 1669 
C 269 625 875 -69 1856 -69 
z
M 813 1975 
C 844 2500 1219 2963 1806 2963 
C 2363 2963 2725 2544 2725 1975 
L 813 1975 
z
" transform="scale(0.015625)"/>
       <path id="Pretendard-Regular-25d" d="M 969 4525 
L 431 4525 
L 431 0 
L 969 0 
L 969 4525 
z
" transform="scale(0.015625)"/>
       <path id="Pretendard-Regular-23a" d="M 431 0 
L 969 0 
L 969 3394 
L 431 3394 
L 431 0 
z
M 700 3956 
C 906 3956 1081 4113 1081 4313 
C 1081 4513 906 4669 700 4669 
C 494 4669 325 4513 325 4313 
C 325 4113 494 3956 700 3956 
z
" transform="scale(0.015625)"/>
       <path id="Pretendard-Regular-328" d="M 3225 3394 
L 2638 3394 
L 1713 700 
L 1675 700 
L 750 3394 
L 163 3394 
L 1413 0 
L 1969 0 
L 3225 3394 
z
" transform="scale(0.015625)"/>
       <path id="Pretendard-Regular-1a0" d="M 269 963 
C 269 300 781 -81 1425 -81 
C 2013 -81 2325 231 2438 463 
L 2463 463 
L 2463 0 
L 2994 0 
L 2994 2238 
C 2994 3306 2163 3438 1719 3438 
C 969 3438 438 3056 369 2513 
L 931 2513 
C 1006 2769 1263 2969 1694 2969 
C 2206 2969 2463 2719 2463 2288 
L 2463 2013 
C 2309 2006 1759 1978 1544 1963 
C 956 1919 269 1744 269 963 
z
M 806 938 
C 806 1306 1119 1481 1606 1513 
L 2463 1575 
L 2463 1231 
C 2463 806 2125 400 1519 400 
C 1106 400 806 581 806 938 
z
" transform="scale(0.015625)"/>
       <path id="Pretendard-Regular-2d3" d="M 1913 3394 
L 1200 3394 
L 1200 4206 
L 656 4206 
L 656 3394 
L 144 3394 
L 144 2944 
L 656 2944 
L 656 838 
C 656 238 1138 -44 1588 -44 
C 1744 -44 1881 -31 1963 -19 
L 1963 481 
C 1881 475 1744 469 1644 469 
C 1413 469 1200 538 1200 975 
L 1200 2944 
L 1913 2944 
L 1913 3394 
z
" transform="scale(0.015625)"/>
       <path id="Pretendard-Regular-33a" d="M 775 -1275 
C 1256 -1275 1588 -1019 1788 -488 
L 3225 3394 
L 2638 3394 
L 1713 700 
L 1675 700 
L 750 3394 
L 163 3394 
L 1419 -25 
L 1319 -281 
C 1138 -775 956 -794 738 -794 
C 656 -794 531 -788 475 -781 
L 475 -1263 
C 544 -1269 656 -1275 775 -1275 
z
" transform="scale(0.015625)"/>
       <path id="Pretendard-Regular-2" transform="scale(0.015625)"/>
       <path id="Pretendard-Regular-1c1c" d="M 3013 4625 
L 3013 4906 
L 2506 4906 
L 2506 4625 
C 2506 3875 1500 3231 531 3081 
L 725 2694 
C 1569 2838 2413 3300 2763 3963 
C 3116 3313 3950 2844 4794 2700 
L 4988 3088 
C 4025 3238 3013 3900 3013 4625 
z
M 5306 2219 
L 219 2219 
L 219 1813 
L 2556 1813 
L 2556 675 
L 3044 675 
L 3044 1813 
L 5306 1813 
L 5306 2219 
z
M 4738 25 
L 1363 25 
L 1363 1219 
L 869 1219 
L 869 -388 
L 4738 -388 
L 4738 25 
z
" transform="scale(0.015625)"/>
       <path id="Pretendard-Regular-2104" d="M 2056 4775 
C 1225 4781 631 4325 631 3644 
C 631 2969 1225 2500 2056 2506 
C 2888 2500 3481 2969 3481 3644 
C 3481 4325 2888 4781 2056 4775 
z
M 2056 4375 
C 2619 4381 3013 4075 3013 3644 
C 3013 3206 2619 2906 2056 2913 
C 1500 2906 1106 3206 1113 3644 
C 1106 4075 1500 4381 2056 4375 
z
M 4806 5044 
L 4325 5044 
L 4325 -513 
L 4806 -513 
L 4806 5044 
z
M 213 2031 
L 281 1613 
C 744 1616 1278 1619 1844 1644 
L 1844 -338 
L 2331 -338 
L 2331 1675 
C 2866 1706 3419 1766 3950 1863 
L 3919 2231 
C 2681 2050 1256 2031 213 2031 
z
" transform="scale(0.015625)"/>
       <path id="Pretendard-Regular-2210" d="M 4831 5050 
L 4338 5050 
L 4338 3656 
L 3213 3656 
L 3213 3244 
L 4338 3244 
L 4338 1794 
L 4831 1794 
L 4831 5050 
z
M 4831 1519 
L 1200 1519 
L 1200 -431 
L 4831 -431 
L 4831 1519 
z
M 1688 1125 
L 4350 1125 
L 4350 -31 
L 1688 -31 
L 1688 1125 
z
M 2156 4063 
L 2156 4281 
L 3400 4281 
L 3400 4688 
L 406 4688 
L 406 4281 
L 1663 4281 
L 1663 4063 
C 1663 3269 1069 2531 250 2238 
L 506 1850 
C 1166 2091 1678 2603 1919 3244 
C 2156 2669 2641 2200 3269 1975 
L 3525 2363 
C 2713 2650 2156 3344 2156 4063 
z
" transform="scale(0.015625)"/>
       <path id="Pretendard-Regular-1c18" d="M 3013 4531 
L 3013 4850 
L 2506 4850 
L 2506 4531 
C 2506 3738 1488 3069 488 2931 
L 688 2531 
C 1550 2675 2406 3150 2763 3838 
C 3122 3153 3975 2675 4838 2531 
L 5038 2931 
C 4038 3069 3013 3750 3013 4531 
z
M 5288 1919 
L 225 1919 
L 225 1506 
L 2506 1506 
L 2506 -506 
L 2988 -506 
L 2988 1506 
L 5288 1506 
L 5288 1919 
z
" transform="scale(0.015625)"/>
       <path id="Pretendard-Regular-33d1" d="M 569 1725 
C 575 544 894 -438 1469 -1275 
L 1944 -1275 
C 1519 -656 1125 613 1125 1725 
C 1125 2838 1519 4100 1944 4719 
L 1469 4719 
C 894 3888 575 2906 569 1725 
z
" transform="scale(0.015625)"/>
       <path id="Pretendard-Regular-f3" d="M 250 4025 
L 1675 4025 
L 1675 0 
L 2244 0 
L 2244 4025 
L 3663 4025 
L 3663 4525 
L 250 4525 
L 250 4025 
z
" transform="scale(0.015625)"/>
       <path id="Pretendard-Regular-2b4" d="M 431 0 
L 969 0 
L 969 2138 
C 969 2594 1331 2931 1819 2931 
C 1956 2931 2106 2906 2144 2894 
L 2144 3438 
C 2081 3444 1944 3450 1863 3450 
C 1463 3450 1113 3219 988 2875 
L 950 2875 
L 950 3394 
L 431 3394 
L 431 0 
z
" transform="scale(0.015625)"/>
       <path id="Pretendard-Regular-2e8" d="M 2575 1394 
C 2575 763 2088 475 1706 475 
C 1275 475 969 788 969 1275 
L 969 3394 
L 431 3394 
L 431 1238 
C 431 375 888 -44 1531 -44 
C 2044 -44 2375 231 2538 575 
L 2575 575 
L 2575 0 
L 3106 0 
L 3106 3394 
L 2575 3394 
L 2575 1394 
z
" transform="scale(0.015625)"/>
       <path id="Pretendard-Regular-e7" d="M 2969 3388 
L 3519 3388 
C 3494 4075 2863 4588 1988 4588 
C 1113 4588 431 4081 431 3319 
C 431 2706 869 2344 1581 2138 
L 2138 1988 
C 2613 1850 3031 1681 3031 1244 
C 3031 750 2563 431 1938 431 
C 1400 431 931 669 881 1175 
L 306 1175 
C 356 425 963 -81 1938 -81 
C 2988 -81 3581 494 3581 1231 
C 3581 2075 2788 2356 2300 2481 
L 1850 2606 
C 1506 2694 975 2869 975 3344 
C 975 3775 1369 4088 1969 4088 
C 2513 4088 2919 3831 2969 3388 
z
" transform="scale(0.015625)"/>
       <path id="Pretendard-Regular-254" d="M 431 0 
L 969 0 
L 969 1269 
L 1331 1600 
L 2588 0 
L 3269 0 
L 1731 1944 
L 3163 3394 
L 2500 3394 
L 1031 1894 
L 969 1894 
L 969 4525 
L 431 4525 
L 431 0 
z
" transform="scale(0.015625)"/>
       <path id="Pretendard-Regular-51f" d="M 431 -1275 
L 969 -1275 
L 969 506 
L 994 506 
C 1175 144 1519 -38 1894 -38 
C 2275 -38 2619 144 2800 506 
L 2831 506 
L 2831 0 
L 3369 0 
L 3369 3394 
L 2831 3394 
L 2831 1394 
C 2831 850 2456 475 1894 475 
C 1338 475 969 844 969 1394 
L 969 3394 
L 431 3394 
L 431 -1275 
z
" transform="scale(0.015625)"/>
       <path id="Pretendard-Regular-33d2" d="M 1613 1725 
C 1606 2906 1288 3888 713 4719 
L 238 4719 
C 663 4100 1056 2838 1056 1725 
C 1056 613 663 -656 238 -1275 
L 713 -1275 
C 1288 -438 1606 544 1613 1725 
z
" transform="scale(0.015625)"/>
      </defs>
      <use xlink:href="#Pretendard-Regular-1c4"/>
      <use xlink:href="#Pretendard-Regular-1e9" transform="translate(59.078125 0)"/>
      <use xlink:href="#Pretendard-Regular-25d" transform="translate(114.359375 0)"/>
      <use xlink:href="#Pretendard-Regular-23a" transform="translate(136.140625 0)"/>
      <use xlink:href="#Pretendard-Regular-1e9" transform="translate(157.921875 0)"/>
      <use xlink:href="#Pretendard-Regular-328" transform="translate(211.546875 0)"/>
      <use xlink:href="#Pretendard-Regular-1a0" transform="translate(262.828125 0)"/>
      <use xlink:href="#Pretendard-Regular-1c4" transform="translate(316.34375 0)"/>
      <use xlink:href="#Pretendard-Regular-23a" transform="translate(375.421875 0)"/>
      <use xlink:href="#Pretendard-Regular-25d" transform="translate(397.203125 0)"/>
      <use xlink:href="#Pretendard-Regular-23a" transform="translate(418.984375 0)"/>
      <use xlink:href="#Pretendard-Regular-2d3" transform="translate(440.765625 0)"/>
      <use xlink:href="#Pretendard-Regular-33a" transform="translate(474.75 0)"/>
      <use xlink:href="#Pretendard-Regular-2" transform="translate(527.6875 0)"/>
      <use xlink:href="#Pretendard-Regular-1c1c" transform="translate(552.78125 0)"/>
      <use xlink:href="#Pretendard-Regular-2104" transform="translate(639.203125 0)"/>
      <use xlink:href="#Pretendard-Regular-2" transform="translate(725.625 0)"/>
      <use xlink:href="#Pretendard-Regular-2210" transform="translate(750.71875 0)"/>
      <use xlink:href="#Pretendard-Regular-1c18" transform="translate(837.140625 0)"/>
      <use xlink:href="#Pretendard-Regular-2" transform="translate(923.5625 0)"/>
      <use xlink:href="#Pretendard-Regular-33d1" transform="translate(948.65625 0)"/>
      <use xlink:href="#Pretendard-Regular-f3" transform="translate(982.734375 0)"/>
      <use xlink:href="#Pretendard-Regular-2b4" transform="translate(1038.359375 0)"/>
      <use xlink:href="#Pretendard-Regular-2e8" transform="translate(1073.328125 0)"/>
      <use xlink:href="#Pretendard-Regular-1e9" transform="translate(1128.609375 0)"/>
      <use xlink:href="#Pretendard-Regular-e7" transform="translate(1183.890625 0)"/>
      <use xlink:href="#Pretendard-Regular-254" transform="translate(1244.640625 0)"/>
      <use xlink:href="#Pretendard-Regular-23a" transform="translate(1296.296875 0)"/>
      <use xlink:href="#Pretendard-Regular-25d" transform="translate(1318.078125 0)"/>
      <use xlink:href="#Pretendard-Regular-25d" transform="translate(1339.859375 0)"/>
      <use xlink:href="#Pretendard-Regular-2" transform="translate(1361.640625 0)"/>
      <use xlink:href="#Pretendard-Regular-51f" transform="translate(1386.734375 0)"/>
      <use xlink:href="#Pretendard-Regular-33d2" transform="translate(1446.015625 0)"/>
     </g>
    </g>
   </g>
   <g id="matplotlib.axis_2">
    <g id="ytick_1">
     <g id="line2d_15">
      <defs>
       <path id="m1d53a73b59" d="M 0 0 
L -3.5 0 
" style="stroke: #333333; stroke-width: 0.8"/>
      </defs>
      <g>
       <use xlink:href="#m1d53a73b59" x="154.9" y="48.293542" style="fill: #333333; stroke: #333333; stroke-width: 0.8"/>
      </g>
     </g>
     <g id="text_9">
      <!-- 전체 아키텍처 -->
      <g style="fill: #333333" transform="translate(93.5375 53.051843) scale(0.1 -0.1)">
       <defs>
        <path id="Pretendard-Regular-2204" d="M 4831 5044 
L 4338 5044 
L 4338 3506 
L 3194 3506 
L 3194 3100 
L 4338 3100 
L 4338 969 
L 4831 969 
L 4831 5044 
z
M 4988 25 
L 1756 25 
L 1756 1338 
L 1263 1338 
L 1263 -388 
L 4988 -388 
L 4988 25 
z
M 2156 3900 
L 2156 4188 
L 3400 4188 
L 3400 4594 
L 406 4594 
L 406 4188 
L 1663 4188 
L 1663 3900 
C 1663 3100 1069 2369 250 2081 
L 506 1681 
C 1166 1928 1678 2441 1919 3081 
C 2156 2506 2641 2038 3269 1813 
L 3525 2206 
C 2713 2481 2156 3181 2156 3900 
z
" transform="scale(0.015625)"/>
        <path id="Pretendard-Regular-26b4" d="M 1850 3338 
L 1850 3613 
L 2894 3613 
L 2894 4019 
L 1856 4019 
L 1856 4844 
L 1388 4844 
L 1388 4019 
L 331 4019 
L 331 3613 
L 1388 3613 
L 1388 3338 
C 1381 2419 938 1444 181 1006 
L 475 631 
C 1028 969 1425 1588 1625 2300 
C 1828 1631 2228 1056 2781 756 
L 3063 1125 
C 2306 1531 1850 2444 1850 3338 
z
M 4975 5050 
L 4506 5050 
L 4506 -506 
L 4975 -506 
L 4975 5050 
z
M 3850 4913 
L 3388 4913 
L 3388 2856 
L 2513 2856 
L 2513 2438 
L 3388 2438 
L 3388 -219 
L 3850 -219 
L 3850 4913 
z
" transform="scale(0.015625)"/>
        <path id="Pretendard-Regular-1f44" d="M 1713 4619 
C 888 4613 313 3863 313 2681 
C 313 1500 888 750 1713 750 
C 2531 750 3113 1500 3119 2681 
C 3113 3863 2531 4613 1713 4619 
z
M 1713 4181 
C 2269 4175 2644 3588 2644 2681 
C 2644 1775 2269 1188 1713 1188 
C 1163 1188 775 1775 775 2681 
C 775 3588 1163 4175 1713 4181 
z
M 4525 5050 
L 4038 5050 
L 4038 -506 
L 4525 -506 
L 4525 2406 
L 5456 2406 
L 5456 2831 
L 4525 2831 
L 4525 5050 
z
" transform="scale(0.015625)"/>
        <path id="Pretendard-Regular-2aa4" d="M 3206 4469 
L 644 4469 
L 644 4063 
L 2713 4063 
C 2691 3719 2631 3391 2531 3081 
L 363 2938 
L 444 2500 
L 2375 2688 
C 2022 1934 1378 1294 338 794 
L 613 400 
C 2619 1381 3200 2863 3206 4469 
z
M 4819 5050 
L 4325 5050 
L 4325 -506 
L 4819 -506 
L 4819 5050 
z
" transform="scale(0.015625)"/>
        <path id="Pretendard-Regular-2b4d" d="M 2606 4650 
L 488 4650 
L 488 1950 
L 838 1950 
C 1738 1950 2263 1969 2906 2094 
L 2856 2500 
C 2259 2381 1759 2353 956 2350 
L 956 3131 
L 2375 3131 
L 2375 3525 
L 956 3525 
L 956 4250 
L 2606 4250 
L 2606 4650 
z
M 4944 1350 
L 1175 1350 
L 1175 944 
L 4463 944 
L 4463 -506 
L 4944 -506 
L 4944 1350 
z
M 4944 5044 
L 4475 5044 
L 4475 1613 
L 4944 1613 
L 4944 5044 
z
M 3863 4925 
L 3388 4925 
L 3388 3588 
L 2638 3588 
L 2638 3175 
L 3388 3175 
L 3388 1650 
L 3863 1650 
L 3863 4925 
z
" transform="scale(0.015625)"/>
        <path id="Pretendard-Regular-2698" d="M 4831 5050 
L 4338 5050 
L 4338 2813 
L 3119 2813 
L 3119 2406 
L 4338 2406 
L 4338 -519 
L 4831 -519 
L 4831 5050 
z
M 2144 3238 
L 2144 3681 
L 3406 3681 
L 3406 4081 
L 2150 4081 
L 2150 4944 
L 1663 4944 
L 1663 4081 
L 388 4081 
L 388 3681 
L 1663 3681 
L 1663 3238 
C 1663 2281 1050 1331 238 950 
L 519 569 
C 1150 875 1669 1525 1913 2300 
C 2156 1566 2681 959 3313 669 
L 3594 1050 
C 2769 1419 2144 2319 2144 3238 
z
" transform="scale(0.015625)"/>
       </defs>
       <use xlink:href="#Pretendard-Regular-2204"/>
       <use xlink:href="#Pretendard-Regular-26b4" transform="translate(86.421875 0)"/>
       <use xlink:href="#Pretendard-Regular-2" transform="translate(172.84375 0)"/>
       <use xlink:href="#Pretendard-Regular-1f44" transform="translate(197.9375 0)"/>
       <use xlink:href="#Pretendard-Regular-2aa4" transform="translate(284.359375 0)"/>
       <use xlink:href="#Pretendard-Regular-2b4d" transform="translate(370.78125 0)"/>
       <use xlink:href="#Pretendard-Regular-2698" transform="translate(457.203125 0)"/>
      </g>
     </g>
    </g>
    <g id="ytick_2">
     <g id="line2d_16">
      <g>
       <use xlink:href="#m1d53a73b59" x="154.9" y="92.052545" style="fill: #333333; stroke: #333333; stroke-width: 0.8"/>
      </g>
     </g>
     <g id="text_10">
      <!-- −reflection -->
      <g style="fill: #333333" transform="translate(99.589063 96.810846) scale(0.1 -0.1)">
       <defs>
        <path id="Pretendard-Regular-360d" d="M 3431 2025 
L 588 2025 
L 588 1519 
L 3431 1519 
L 3431 2025 
z
" transform="scale(0.015625)"/>
        <path id="Pretendard-Regular-214" d="M 1950 3394 
L 1200 3394 
L 1200 3738 
C 1200 4088 1369 4244 1744 4244 
C 1813 4244 1913 4238 2025 4219 
L 2025 4700 
C 1913 4719 1756 4738 1625 4738 
C 1025 4738 656 4406 656 3856 
L 656 3394 
L 113 3394 
L 113 2944 
L 656 2944 
L 656 0 
L 1200 0 
L 1200 2944 
L 1950 2944 
L 1950 3394 
z
" transform="scale(0.015625)"/>
        <path id="Pretendard-Regular-1cd" d="M 1819 -69 
C 2575 -69 3069 394 3156 1000 
L 2619 1000 
C 2525 625 2219 413 1819 413 
C 1200 413 806 913 806 1700 
C 806 2463 1213 2963 1819 2963 
C 2269 2963 2544 2681 2619 2369 
L 3156 2369 
C 3069 3013 2531 3438 1806 3438 
C 881 3438 269 2713 269 1681 
C 269 663 856 -69 1819 -69 
z
" transform="scale(0.015625)"/>
        <path id="Pretendard-Regular-285" d="M 1819 -69 
C 2738 -69 3356 625 3356 1681 
C 3356 2738 2738 3438 1819 3438 
C 894 3438 269 2738 269 1681 
C 269 625 894 -69 1819 -69 
z
M 1819 406 
C 1125 406 806 1006 806 1681 
C 806 2356 1125 2963 1819 2963 
C 2500 2963 2819 2356 2819 1681 
C 2819 1006 2500 406 1819 406 
z
" transform="scale(0.015625)"/>
        <path id="Pretendard-Regular-276" d="M 969 2038 
C 969 2625 1331 2956 1825 2956 
C 2306 2956 2594 2644 2594 2119 
L 2594 0 
L 3131 0 
L 3131 2156 
C 3131 3019 2675 3438 1988 3438 
C 1469 3438 1156 3206 994 2863 
L 950 2863 
L 950 3394 
L 431 3394 
L 431 0 
L 969 0 
L 969 2038 
z
" transform="scale(0.015625)"/>
       </defs>
       <use xlink:href="#Pretendard-Regular-360d"/>
       <use xlink:href="#Pretendard-Regular-2b4" transform="translate(62.703125 0)"/>
       <use xlink:href="#Pretendard-Regular-1e9" transform="translate(95.96875 0)"/>
       <use xlink:href="#Pretendard-Regular-214" transform="translate(151.25 0)"/>
       <use xlink:href="#Pretendard-Regular-25d" transform="translate(184.9375 0)"/>
       <use xlink:href="#Pretendard-Regular-1e9" transform="translate(206.71875 0)"/>
       <use xlink:href="#Pretendard-Regular-1cd" transform="translate(262 0)"/>
       <use xlink:href="#Pretendard-Regular-2d3" transform="translate(314.9375 0)"/>
       <use xlink:href="#Pretendard-Regular-23a" transform="translate(348.921875 0)"/>
       <use xlink:href="#Pretendard-Regular-285" transform="translate(370.703125 0)"/>
       <use xlink:href="#Pretendard-Regular-276" transform="translate(427.4375 0)"/>
      </g>
     </g>
    </g>
    <g id="ytick_3">
     <g id="line2d_17">
      <g>
       <use xlink:href="#m1d53a73b59" x="154.9" y="135.811548" style="fill: #333333; stroke: #333333; stroke-width: 0.8"/>
      </g>
     </g>
     <g id="text_11">
      <!-- −reflection −planning -->
      <g style="fill: #333333" transform="translate(52.81875 140.569849) scale(0.1 -0.1)">
       <defs>
        <path id="Pretendard-Regular-2ab" d="M 431 -1275 
L 969 -1275 
L 969 519 
L 1013 519 
C 1125 331 1350 -69 2000 -69 
C 2844 -69 3438 613 3438 1688 
C 3438 2763 2844 3438 1994 3438 
C 1338 3438 1125 3038 1013 2856 
L 950 2856 
L 950 3394 
L 431 3394 
L 431 -1275 
z
M 956 1700 
C 956 2450 1288 2956 1925 2956 
C 2575 2956 2900 2406 2900 1700 
C 2900 975 2569 413 1925 413 
C 1300 413 956 938 956 1700 
z
" transform="scale(0.015625)"/>
        <path id="Pretendard-Regular-219" d="M 1806 -1344 
C 2631 -1344 3281 -969 3281 -94 
L 3281 3394 
L 2756 3394 
L 2756 2856 
L 2713 2856 
C 2588 3038 2375 3438 1719 3438 
C 869 3438 269 2788 269 1744 
C 269 675 888 50 1713 50 
C 2369 50 2588 438 2700 625 
L 2744 625 
L 2744 -63 
C 2744 -625 2388 -875 1806 -875 
C 1325 -875 1006 -700 931 -356 
L 369 -356 
C 431 -988 988 -1344 1806 -1344 
z
M 1788 531 
C 1144 531 813 1019 813 1725 
C 813 2406 1138 2956 1788 2956 
C 2419 2956 2756 2450 2756 1725 
C 2756 975 2406 531 1788 531 
z
" transform="scale(0.015625)"/>
       </defs>
       <use xlink:href="#Pretendard-Regular-360d"/>
       <use xlink:href="#Pretendard-Regular-2b4" transform="translate(62.703125 0)"/>
       <use xlink:href="#Pretendard-Regular-1e9" transform="translate(95.96875 0)"/>
       <use xlink:href="#Pretendard-Regular-214" transform="translate(151.25 0)"/>
       <use xlink:href="#Pretendard-Regular-25d" transform="translate(184.9375 0)"/>
       <use xlink:href="#Pretendard-Regular-1e9" transform="translate(206.71875 0)"/>
       <use xlink:href="#Pretendard-Regular-1cd" transform="translate(262 0)"/>
       <use xlink:href="#Pretendard-Regular-2d3" transform="translate(314.9375 0)"/>
       <use xlink:href="#Pretendard-Regular-23a" transform="translate(348.921875 0)"/>
       <use xlink:href="#Pretendard-Regular-285" transform="translate(370.703125 0)"/>
       <use xlink:href="#Pretendard-Regular-276" transform="translate(427.4375 0)"/>
       <use xlink:href="#Pretendard-Regular-2" transform="translate(483.109375 0)"/>
       <use xlink:href="#Pretendard-Regular-360d" transform="translate(508.203125 0)"/>
       <use xlink:href="#Pretendard-Regular-2ab" transform="translate(570.90625 0)"/>
       <use xlink:href="#Pretendard-Regular-25d" transform="translate(628.8125 0)"/>
       <use xlink:href="#Pretendard-Regular-1a0" transform="translate(650.59375 0)"/>
       <use xlink:href="#Pretendard-Regular-276" transform="translate(704.109375 0)"/>
       <use xlink:href="#Pretendard-Regular-276" transform="translate(759.78125 0)"/>
       <use xlink:href="#Pretendard-Regular-23a" transform="translate(815.453125 0)"/>
       <use xlink:href="#Pretendard-Regular-276" transform="translate(837.234375 0)"/>
       <use xlink:href="#Pretendard-Regular-219" transform="translate(892.90625 0)"/>
      </g>
     </g>
    </g>
    <g id="ytick_4">
     <g id="line2d_18">
      <g>
       <use xlink:href="#m1d53a73b59" x="154.9" y="179.570551" style="fill: #333333; stroke: #333333; stroke-width: 0.8"/>
      </g>
     </g>
     <g id="text_12">
      <!-- 인간 크라우드워커 -->
      <g style="fill: #333333" transform="translate(76.253125 184.328851) scale(0.1 -0.1)">
       <defs>
        <path id="Pretendard-Regular-2178" d="M 4813 5044 
L 4325 5044 
L 4325 981 
L 4813 981 
L 4813 5044 
z
M 4988 25 
L 1713 25 
L 1713 1394 
L 1225 1394 
L 1225 -388 
L 4988 -388 
L 4988 25 
z
M 1813 4656 
C 981 4656 356 4094 356 3294 
C 356 2481 981 1925 1813 1925 
C 2644 1925 3269 2481 3269 3294 
C 3269 4094 2644 4656 1813 4656 
z
M 1813 4225 
C 2363 4225 2788 3838 2788 3294 
C 2788 2738 2363 2356 1813 2356 
C 1250 2356 831 2738 838 3294 
C 831 3838 1250 4225 1813 4225 
z
" transform="scale(0.015625)"/>
        <path id="Pretendard-Regular-604" d="M 4569 5050 
L 4075 5050 
L 4075 981 
L 4569 981 
L 4569 2944 
L 5406 2944 
L 5406 3356 
L 4569 3356 
L 4569 5050 
z
M 3069 4619 
L 463 4619 
L 463 4206 
L 2538 4206 
C 2431 3228 1563 2434 231 2019 
L 444 1625 
C 2044 2125 3069 3188 3069 4619 
z
M 4825 25 
L 1575 25 
L 1575 1394 
L 1088 1394 
L 1088 -388 
L 4825 -388 
L 4825 25 
z
" transform="scale(0.015625)"/>
        <path id="Pretendard-Regular-2a6c" d="M 4656 4481 
L 838 4481 
L 838 4069 
L 4181 4069 
L 4181 3794 
C 4178 3509 4178 3225 4169 2931 
L 688 2788 
L 756 2381 
L 4150 2569 
C 4116 2134 4053 1672 3931 1138 
L 4425 1094 
C 4656 2219 4656 2975 4656 3794 
L 4656 4481 
z
M 5288 688 
L 225 688 
L 225 275 
L 5288 275 
L 5288 688 
z
" transform="scale(0.015625)"/>
        <path id="Pretendard-Regular-117c" d="M 4525 5050 
L 4038 5050 
L 4038 -519 
L 4525 -519 
L 4525 2425 
L 5456 2425 
L 5456 2838 
L 4525 2838 
L 4525 5050 
z
M 2969 4531 
L 444 4531 
L 444 4125 
L 2481 4125 
L 2481 2950 
L 456 2950 
L 456 825 
L 900 825 
C 1969 831 2713 869 3588 1031 
L 3538 1438 
C 2694 1278 1975 1244 944 1244 
L 944 2544 
L 2969 2544 
L 2969 4531 
z
" transform="scale(0.015625)"/>
        <path id="Pretendard-Regular-20b0" d="M 5306 1863 
L 219 1863 
L 219 1450 
L 2506 1450 
L 2506 -506 
L 2988 -506 
L 2988 1450 
L 5306 1450 
L 5306 1863 
z
M 2750 4825 
C 1581 4825 794 4356 794 3600 
C 794 2863 1581 2394 2750 2394 
C 3919 2394 4706 2863 4706 3600 
C 4706 4356 3919 4825 2750 4825 
z
M 2750 4425 
C 3613 4425 4206 4100 4206 3600 
C 4206 3106 3613 2788 2750 2788 
C 1881 2788 1294 3106 1300 3600 
C 1294 4100 1881 4425 2750 4425 
z
" transform="scale(0.015625)"/>
        <path id="Pretendard-Regular-edc" d="M 4713 2375 
L 1363 2375 
L 1363 4125 
L 4656 4125 
L 4656 4531 
L 875 4531 
L 875 1969 
L 4713 1969 
L 4713 2375 
z
M 5313 663 
L 225 663 
L 225 250 
L 5313 250 
L 5313 663 
z
" transform="scale(0.015625)"/>
        <path id="Pretendard-Regular-20cc" d="M 4825 5044 
L 4325 5044 
L 4325 1244 
L 3044 1244 
L 3044 869 
L 4325 869 
L 4325 -513 
L 4825 -513 
L 4825 5044 
z
M 200 2119 
L 269 1700 
C 716 1700 1222 1703 1756 1725 
L 1756 -338 
L 2250 -338 
L 2250 1750 
C 2803 1781 3375 1838 3925 1931 
L 3894 2300 
C 2669 2125 1263 2119 200 2119 
z
M 2031 4769 
C 1200 4769 625 4325 625 3675 
C 625 3013 1200 2588 2031 2588 
C 2856 2588 3431 3013 3431 3675 
C 3431 4325 2856 4769 2031 4769 
z
M 2031 4388 
C 2575 4388 2969 4094 2969 3675 
C 2969 3250 2575 2969 2031 2969 
C 1469 2969 1081 3250 1088 3675 
C 1081 4094 1469 4388 2031 4388 
z
" transform="scale(0.015625)"/>
        <path id="Pretendard-Regular-28e4" d="M 3050 4469 
L 531 4469 
L 531 4063 
L 2563 4063 
C 2541 3719 2481 3391 2381 3081 
L 250 2938 
L 338 2513 
L 2231 2694 
C 1884 1941 1253 1300 231 788 
L 513 413 
C 2475 1394 3044 2863 3050 4469 
z
M 4825 5050 
L 4338 5050 
L 4338 2813 
L 3031 2813 
L 3031 2406 
L 4338 2406 
L 4338 -506 
L 4825 -506 
L 4825 5050 
z
" transform="scale(0.015625)"/>
       </defs>
       <use xlink:href="#Pretendard-Regular-2178"/>
       <use xlink:href="#Pretendard-Regular-604" transform="translate(86.421875 0)"/>
       <use xlink:href="#Pretendard-Regular-2" transform="translate(172.84375 0)"/>
       <use xlink:href="#Pretendard-Regular-2a6c" transform="translate(197.9375 0)"/>
       <use xlink:href="#Pretendard-Regular-117c" transform="translate(284.359375 0)"/>
       <use xlink:href="#Pretendard-Regular-20b0" transform="translate(370.78125 0)"/>
       <use xlink:href="#Pretendard-Regular-edc" transform="translate(457.203125 0)"/>
       <use xlink:href="#Pretendard-Regular-20cc" transform="translate(543.625 0)"/>
       <use xlink:href="#Pretendard-Regular-28e4" transform="translate(630.046875 0)"/>
      </g>
     </g>
    </g>
    <g id="ytick_5">
     <g id="line2d_19">
      <g>
       <use xlink:href="#m1d53a73b59" x="154.9" y="223.329553" style="fill: #333333; stroke: #333333; stroke-width: 0.8"/>
      </g>
     </g>
     <g id="text_13">
      <!-- −memory −planning −reflection -->
      <g style="fill: #333333" transform="translate(7.2 228.087854) scale(0.1 -0.1)">
       <defs>
        <path id="Pretendard-Regular-26f" d="M 431 0 
L 969 0 
L 969 2119 
C 969 2613 1325 2956 1731 2956 
C 2119 2956 2394 2700 2394 2319 
L 2394 0 
L 2938 0 
L 2938 2206 
C 2938 2638 3206 2956 3681 2956 
C 4050 2956 4369 2763 4369 2263 
L 4369 0 
L 4906 0 
L 4906 2269 
C 4906 3069 4475 3438 3869 3438 
C 3381 3438 3025 3213 2850 2863 
L 2813 2863 
C 2650 3225 2350 3438 1906 3438 
C 1463 3438 1138 3225 994 2863 
L 950 2863 
L 950 3394 
L 431 3394 
L 431 0 
z
" transform="scale(0.015625)"/>
       </defs>
       <use xlink:href="#Pretendard-Regular-360d"/>
       <use xlink:href="#Pretendard-Regular-26f" transform="translate(62.703125 0)"/>
       <use xlink:href="#Pretendard-Regular-1e9" transform="translate(146.109375 0)"/>
       <use xlink:href="#Pretendard-Regular-26f" transform="translate(201.390625 0)"/>
       <use xlink:href="#Pretendard-Regular-285" transform="translate(284.796875 0)"/>
       <use xlink:href="#Pretendard-Regular-2b4" transform="translate(341.53125 0)"/>
       <use xlink:href="#Pretendard-Regular-33a" transform="translate(378.15625 0)"/>
       <use xlink:href="#Pretendard-Regular-2" transform="translate(431.09375 0)"/>
       <use xlink:href="#Pretendard-Regular-360d" transform="translate(456.1875 0)"/>
       <use xlink:href="#Pretendard-Regular-2ab" transform="translate(518.890625 0)"/>
       <use xlink:href="#Pretendard-Regular-25d" transform="translate(576.796875 0)"/>
       <use xlink:href="#Pretendard-Regular-1a0" transform="translate(598.578125 0)"/>
       <use xlink:href="#Pretendard-Regular-276" transform="translate(652.09375 0)"/>
       <use xlink:href="#Pretendard-Regular-276" transform="translate(707.765625 0)"/>
       <use xlink:href="#Pretendard-Regular-23a" transform="translate(763.4375 0)"/>
       <use xlink:href="#Pretendard-Regular-276" transform="translate(785.21875 0)"/>
       <use xlink:href="#Pretendard-Regular-219" transform="translate(840.890625 0)"/>
       <use xlink:href="#Pretendard-Regular-2" transform="translate(898.796875 0)"/>
       <use xlink:href="#Pretendard-Regular-360d" transform="translate(923.890625 0)"/>
       <use xlink:href="#Pretendard-Regular-2b4" transform="translate(986.59375 0)"/>
       <use xlink:href="#Pretendard-Regular-1e9" transform="translate(1019.859375 0)"/>
       <use xlink:href="#Pretendard-Regular-214" transform="translate(1075.140625 0)"/>
       <use xlink:href="#Pretendard-Regular-25d" transform="translate(1108.828125 0)"/>
       <use xlink:href="#Pretendard-Regular-1e9" transform="translate(1130.609375 0)"/>
       <use xlink:href="#Pretendard-Regular-1cd" transform="translate(1185.890625 0)"/>
       <use xlink:href="#Pretendard-Regular-2d3" transform="translate(1238.828125 0)"/>
       <use xlink:href="#Pretendard-Regular-23a" transform="translate(1272.8125 0)"/>
       <use xlink:href="#Pretendard-Regular-285" transform="translate(1294.59375 0)"/>
       <use xlink:href="#Pretendard-Regular-276" transform="translate(1351.328125 0)"/>
      </g>
     </g>
    </g>
   </g>
   <g id="patch_3">
    <path d="M 154.9 34.728252 
L 414.145647 34.728252 
L 414.145647 61.858833 
L 154.9 61.858833 
z
" clip-path="url(#pacc46eeb33)" style="fill: #0f87a8"/>
   </g>
   <g id="patch_4">
    <path d="M 154.9 78.487254 
L 388.038942 78.487254 
L 388.038942 105.617836 
L 154.9 105.617836 
z
" clip-path="url(#pacc46eeb33)" style="fill: #8a8a8a"/>
   </g>
   <g id="patch_5">
    <path d="M 154.9 122.246257 
L 377.284021 122.246257 
L 377.284021 149.376839 
L 154.9 149.376839 
z
" clip-path="url(#pacc46eeb33)" style="fill: #8a8a8a"/>
   </g>
   <g id="patch_6">
    <path d="M 154.9 166.00526 
L 353.95278 166.00526 
L 353.95278 193.135841 
L 154.9 193.135841 
z
" clip-path="url(#pacc46eeb33)" style="fill: #333333"/>
   </g>
   <g id="patch_7">
    <path d="M 154.9 209.764262 
L 338.861197 209.764262 
L 338.861197 236.894844 
L 154.9 236.894844 
z
" clip-path="url(#pacc46eeb33)" style="fill: #8a8a8a"/>
   </g>
   <g id="line2d_20">
    <path d="M 437.650354 179.570551 
L 444.589013 179.570551 
L 444.589013 223.329553 
L 437.650354 223.329553 
" style="fill: none; stroke: #c4443c; stroke-width: 1.1; stroke-linecap: square"/>
   </g>
   <g id="patch_8">
    <path d="M 154.9 247.003174 
L 154.9 24.619922 
" style="fill: none; stroke: #333333; stroke-width: 0.8; stroke-linejoin: miter; stroke-linecap: square"/>
   </g>
   <g id="patch_9">
    <path d="M 154.9 247.003174 
L 441.119684 247.003174 
" style="fill: none; stroke: #333333; stroke-width: 0.8; stroke-linejoin: miter; stroke-linecap: square"/>
   </g>
   <g id="text_14">
    <!-- 29.89 -->
    <g style="fill: #333333" transform="translate(417.18131 51.668176) scale(0.095 -0.095)">
     <defs>
      <path id="Pretendard-Regular-32d2" d="M 1931 4588 
C 969 4594 350 3913 350 3069 
C 350 2194 1019 1575 1831 1575 
C 2313 1575 2725 1800 2988 2175 
L 3050 2175 
C 3044 1075 2594 438 1856 438 
C 1350 438 1044 738 944 1144 
L 388 1144 
C 500 425 1063 -63 1856 -63 
C 2919 -63 3575 838 3575 2444 
C 3575 4113 2713 4581 1931 4588 
z
M 1931 4094 
C 2531 4094 2963 3606 2963 3088 
C 2963 2556 2500 2069 1913 2069 
C 1319 2069 900 2513 900 3075 
C 894 3631 1338 4094 1931 4094 
z
" transform="scale(0.015625)"/>
      <path id="Pretendard-Regular-3359" d="M 813 -38 
C 1031 -38 1213 144 1213 369 
C 1213 588 1031 769 813 769 
C 594 769 406 588 413 369 
C 406 144 594 -38 813 -38 
z
" transform="scale(0.015625)"/>
      <path id="Pretendard-Regular-32d1" d="M 1938 -63 
C 2881 -63 3544 463 3550 1200 
C 3544 1788 3138 2269 2625 2350 
L 2625 2375 
C 3069 2481 3369 2894 3375 3388 
C 3369 4081 2763 4588 1938 4588 
C 1113 4588 506 4081 506 3388 
C 506 2894 800 2481 1250 2375 
L 1250 2350 
C 731 2269 325 1788 331 1200 
C 325 463 988 -63 1938 -63 
z
M 1938 431 
C 1288 431 881 756 894 1231 
C 881 1731 1331 2100 1938 2100 
C 2544 2100 2988 1731 2988 1231 
C 2988 756 2588 431 1938 431 
z
M 1938 2575 
C 1419 2575 1050 2888 1050 3344 
C 1050 3794 1400 4100 1938 4100 
C 2469 4100 2825 3794 2825 3344 
C 2825 2888 2450 2575 1938 2575 
z
" transform="scale(0.015625)"/>
     </defs>
     <use xlink:href="#Pretendard-Regular-32cb"/>
     <use xlink:href="#Pretendard-Regular-32d2" transform="translate(58.6875 0)"/>
     <use xlink:href="#Pretendard-Regular-3359" transform="translate(117.53125 0)"/>
     <use xlink:href="#Pretendard-Regular-32d1" transform="translate(140.671875 0)"/>
     <use xlink:href="#Pretendard-Regular-32d2" transform="translate(201.3125 0)"/>
    </g>
   </g>
   <g id="text_15">
    <!-- 26.88 -->
    <g style="fill: #333333" transform="translate(391.074606 95.427179) scale(0.095 -0.095)">
     <defs>
      <path id="Pretendard-Regular-32cf" d="M 2000 -63 
C 2950 -69 3575 613 3575 1463 
C 3575 2338 2906 2963 2100 2963 
C 1613 2963 1200 2738 938 2363 
L 881 2363 
C 881 3450 1325 4088 2069 4088 
C 2575 4088 2875 3788 2981 3388 
L 3538 3388 
C 3419 4100 2863 4588 2069 4588 
C 1006 4588 350 3688 350 2088 
C 350 413 1213 -50 2000 -63 
z
M 2000 431 
C 1394 431 956 919 956 1450 
C 963 1988 1419 2469 2013 2469 
C 2606 2469 3025 2013 3031 1456 
C 3025 894 2588 431 2000 431 
z
" transform="scale(0.015625)"/>
     </defs>
     <use xlink:href="#Pretendard-Regular-32cb"/>
     <use xlink:href="#Pretendard-Regular-32cf" transform="translate(58.6875 0)"/>
     <use xlink:href="#Pretendard-Regular-3359" transform="translate(116.703125 0)"/>
     <use xlink:href="#Pretendard-Regular-32d1" transform="translate(139.84375 0)"/>
     <use xlink:href="#Pretendard-Regular-32d1" transform="translate(200.484375 0)"/>
    </g>
   </g>
   <g id="text_16">
    <!-- 25.64 -->
    <g style="fill: #333333" transform="translate(380.319684 139.186182) scale(0.095 -0.095)">
     <defs>
      <path id="Pretendard-Regular-32cd" d="M 313 925 
L 2506 925 
L 2506 0 
L 3044 0 
L 3044 925 
L 3675 925 
L 3675 1419 
L 3044 1419 
L 3044 4525 
L 2350 4525 
L 313 1388 
L 313 925 
z
M 919 1419 
L 919 1456 
L 2450 3813 
L 2506 3813 
L 2506 1419 
L 919 1419 
z
" transform="scale(0.015625)"/>
     </defs>
     <use xlink:href="#Pretendard-Regular-32cb"/>
     <use xlink:href="#Pretendard-Regular-32ce" transform="translate(58.6875 0)"/>
     <use xlink:href="#Pretendard-Regular-3359" transform="translate(115.71875 0)"/>
     <use xlink:href="#Pretendard-Regular-32cf" transform="translate(138.625 0)"/>
     <use xlink:href="#Pretendard-Regular-32cd" transform="translate(199.953125 0)"/>
    </g>
   </g>
   <g id="text_17">
    <!-- 22.95 -->
    <g style="fill: #333333" transform="translate(356.988443 182.945184) scale(0.095 -0.095)">
     <use xlink:href="#Pretendard-Regular-32cb"/>
     <use xlink:href="#Pretendard-Regular-32cb" transform="translate(58.6875 0)"/>
     <use xlink:href="#Pretendard-Regular-3359" transform="translate(117.375 0)"/>
     <use xlink:href="#Pretendard-Regular-32d2" transform="translate(142.03125 0)"/>
     <use xlink:href="#Pretendard-Regular-32ce" transform="translate(203.359375 0)"/>
    </g>
   </g>
   <g id="text_18">
    <!-- 21.21 -->
    <g style="fill: #333333" transform="translate(341.89686 226.704187) scale(0.095 -0.095)">
     <use xlink:href="#Pretendard-Regular-32cb"/>
     <use xlink:href="#Pretendard-Regular-32ca" transform="translate(58.6875 0)"/>
     <use xlink:href="#Pretendard-Regular-3359" transform="translate(98.375 0)"/>
     <use xlink:href="#Pretendard-Regular-32cb" transform="translate(123.765625 0)"/>
     <use xlink:href="#Pretendard-Regular-32ca" transform="translate(182.453125 0)"/>
    </g>
   </g>
   <g id="text_19">
    <!-- 이 쌍만 -->
    <g style="fill: #c4443c" transform="translate(448.925675 199.279154) scale(0.09 -0.09)">
     <defs>
      <path id="Pretendard-Regular-2174" d="M 4806 5050 
L 4313 5050 
L 4313 -519 
L 4806 -519 
L 4806 5050 
z
M 1850 4619 
C 1019 4613 431 3863 431 2681 
C 431 1500 1019 750 1850 750 
C 2675 750 3269 1500 3269 2681 
C 3269 3863 2675 4613 1850 4619 
z
M 1850 4181 
C 2406 4175 2794 3588 2794 2681 
C 2794 1775 2406 1188 1850 1188 
C 1294 1188 906 1775 906 2681 
C 906 3588 1294 4175 1850 4181 
z
" transform="scale(0.015625)"/>
      <path id="Pretendard-Regular-1d0d" d="M 4681 5050 
L 4194 5050 
L 4194 1644 
L 4681 1644 
L 4681 3181 
L 5394 3181 
L 5394 3600 
L 4681 3600 
L 4681 5050 
z
M 1519 4163 
L 1519 4706 
L 1056 4706 
L 1056 4163 
C 1050 3619 819 2831 181 2450 
L 456 2106 
C 878 2356 1134 2788 1275 3244 
C 1397 2772 1634 2313 2063 2044 
C 2478 2300 2713 2744 2838 3206 
C 2975 2750 3238 2344 3663 2106 
L 3944 2450 
C 3300 2813 3056 3544 3056 4163 
L 3056 4706 
L 2594 4706 
L 2594 4163 
C 2594 3709 2488 3053 2063 2619 
C 1628 3063 1519 3734 1519 4163 
z
M 2869 1594 
C 1719 1588 1006 1200 1006 544 
C 1006 -113 1719 -494 2869 -494 
C 4025 -494 4731 -113 4731 544 
C 4731 1200 4025 1588 2869 1594 
z
M 2869 1188 
C 3719 1188 4231 950 4238 544 
C 4231 144 3719 -100 2869 -106 
C 2013 -100 1500 144 1500 544 
C 1500 950 2013 1188 2869 1188 
z
" transform="scale(0.015625)"/>
      <path id="Pretendard-Regular-13cc" d="M 3031 4544 
L 463 4544 
L 463 1988 
L 3031 1988 
L 3031 4544 
z
M 944 4144 
L 2556 4144 
L 2556 2381 
L 944 2381 
L 944 4144 
z
M 4569 5050 
L 4081 5050 
L 4081 975 
L 4569 975 
L 4569 2944 
L 5406 2944 
L 5406 3356 
L 4569 3356 
L 4569 5050 
z
M 4825 25 
L 1575 25 
L 1575 1363 
L 1094 1363 
L 1094 -388 
L 4825 -388 
L 4825 25 
z
" transform="scale(0.015625)"/>
     </defs>
     <use xlink:href="#Pretendard-Regular-2174"/>
     <use xlink:href="#Pretendard-Regular-2" transform="translate(86.421875 0)"/>
     <use xlink:href="#Pretendard-Regular-1d0d" transform="translate(111.515625 0)"/>
     <use xlink:href="#Pretendard-Regular-13cc" transform="translate(197.9375 0)"/>
    </g>
    <!-- 유의 X -->
    <g style="fill: #c4443c" transform="translate(448.925675 210.014993) scale(0.09 -0.09)">
     <defs>
      <path id="Pretendard-Regular-2120" d="M 5306 1881 
L 219 1881 
L 219 1475 
L 1538 1475 
L 1538 -506 
L 2044 -506 
L 2044 1475 
L 3469 1475 
L 3469 -506 
L 3963 -506 
L 3963 1475 
L 5306 1475 
L 5306 1881 
z
M 2750 4825 
C 1581 4825 794 4356 794 3613 
C 794 2875 1581 2406 2750 2413 
C 3919 2406 4706 2875 4706 3613 
C 4706 4356 3919 4825 2750 4825 
z
M 2750 4425 
C 3613 4425 4206 4106 4206 3613 
C 4206 3119 3613 2806 2750 2806 
C 1881 2806 1294 3119 1300 3613 
C 1294 4106 1881 4425 2750 4425 
z
" transform="scale(0.015625)"/>
      <path id="Pretendard-Regular-2158" d="M 2044 4644 
C 1169 4644 538 4113 544 3338 
C 538 2563 1169 2031 2044 2031 
C 2919 2031 3538 2563 3538 3338 
C 3538 4113 2919 4644 2044 4644 
z
M 2044 4213 
C 2631 4213 3056 3856 3056 3338 
C 3056 2819 2631 2463 2044 2463 
C 1450 2463 1019 2819 1025 3338 
C 1019 3856 1450 4213 2044 4213 
z
M 4781 5050 
L 4294 5050 
L 4294 -519 
L 4781 -519 
L 4781 5050 
z
M 256 1125 
L 325 706 
C 1325 706 2694 713 3963 950 
L 3925 1313 
C 2694 1131 1281 1125 256 1125 
z
" transform="scale(0.015625)"/>
      <path id="Pretendard-Regular-12c" d="M 788 4525 
L 119 4525 
L 1575 2263 
L 119 0 
L 781 0 
L 1938 1831 
L 1975 1831 
L 3131 0 
L 3794 0 
L 2375 2263 
L 3794 4525 
L 3131 4525 
L 1975 2656 
L 1938 2656 
L 788 4525 
z
" transform="scale(0.015625)"/>
     </defs>
     <use xlink:href="#Pretendard-Regular-2120"/>
     <use xlink:href="#Pretendard-Regular-2158" transform="translate(86.421875 0)"/>
     <use xlink:href="#Pretendard-Regular-2" transform="translate(172.84375 0)"/>
     <use xlink:href="#Pretendard-Regular-12c" transform="translate(197.9375 0)"/>
    </g>
   </g>
   <g id="text_20">
    <!-- 통제 평가 — 비교군 5개, 숫자가 말을 한다 -->
    <g style="fill: #333333" transform="translate(154.9 18.619922) scale(0.12 -0.12)">
     <defs>
      <path id="Pretendard-Bold-2bb5" d="M 5356 2181 
L 3156 2181 
L 3156 2531 
L 4800 2531 
L 4800 3144 
L 1606 3144 
L 1606 3469 
L 4619 3469 
L 4619 4044 
L 1606 4044 
L 1606 4363 
L 4750 4363 
L 4750 4975 
L 806 4975 
L 806 2531 
L 2356 2531 
L 2356 2181 
L 156 2181 
L 156 1556 
L 5356 1556 
L 5356 2181 
z
M 2756 1294 
C 1481 1300 763 963 763 363 
C 763 -250 1481 -575 2756 -575 
C 4013 -575 4731 -250 4738 363 
C 4731 963 4013 1300 2756 1294 
z
M 2756 706 
C 3556 706 3931 600 3938 363 
C 3931 119 3556 13 2756 13 
C 1938 13 1556 119 1563 363 
C 1556 600 1938 706 2756 706 
z
" transform="scale(0.015625)"/>
      <path id="Pretendard-Bold-221c" d="M 5088 5113 
L 4331 5113 
L 4331 -575 
L 5088 -575 
L 5088 5113 
z
M 3925 5019 
L 3175 5019 
L 3175 3163 
L 2425 3163 
L 2425 2519 
L 3175 2519 
L 3175 -313 
L 3925 -313 
L 3925 5019 
z
M 1969 3588 
L 1969 3894 
L 2831 3894 
L 2831 4531 
L 269 4531 
L 269 3894 
L 1200 3894 
L 1200 3588 
C 1200 2625 888 1600 50 1088 
L 531 500 
C 1053 819 1397 1381 1594 2044 
C 1784 1434 2119 925 2625 625 
L 3094 1213 
C 2263 1688 1969 2644 1969 3588 
z
" transform="scale(0.015625)"/>
      <path id="Pretendard-Bold-2" transform="scale(0.015625)"/>
      <path id="Pretendard-Bold-2dc9" d="M 3344 4738 
L 313 4738 
L 313 4100 
L 775 4100 
L 775 2500 
L 169 2494 
L 250 1850 
C 1150 1850 2394 1869 3463 2050 
L 3431 2638 
C 3253 2616 3066 2597 2875 2581 
L 2875 4100 
L 3344 4100 
L 3344 4738 
z
M 4963 5113 
L 4169 5113 
L 4169 4188 
L 3469 4188 
L 3469 3563 
L 4169 3563 
L 4169 3125 
L 3469 3125 
L 3469 2488 
L 4169 2488 
L 4169 1638 
L 4963 1638 
L 4963 5113 
z
M 3019 1550 
C 1800 1544 1063 1163 1063 481 
C 1063 -181 1800 -575 3019 -575 
C 4244 -575 4975 -181 4981 481 
C 4975 1163 4244 1544 3019 1550 
z
M 3019 938 
C 3781 938 4188 794 4188 481 
C 4188 181 3781 31 3019 31 
C 2256 31 1856 181 1856 481 
C 1856 794 2256 938 3019 938 
z
M 1544 2519 
L 1544 4100 
L 2113 4100 
L 2113 2538 
L 1544 2519 
z
" transform="scale(0.015625)"/>
      <path id="Pretendard-Bold-600" d="M 4656 5113 
L 3856 5113 
L 3856 -563 
L 4656 -563 
L 4656 2275 
L 5463 2275 
L 5463 2931 
L 4656 2931 
L 4656 5113 
z
M 3138 4531 
L 431 4531 
L 431 3881 
L 2325 3881 
C 2175 2613 1453 1706 106 1031 
L 556 419 
C 2469 1356 3131 2831 3138 4531 
z
" transform="scale(0.015625)"/>
      <path id="Pretendard-Bold-33c6" d="M 6200 2631 
L -19 2631 
L -19 1894 
L 6200 1894 
L 6200 2631 
z
" transform="scale(0.015625)"/>
      <path id="Pretendard-Bold-1844" d="M 4931 5113 
L 4125 5113 
L 4125 -588 
L 4931 -588 
L 4931 5113 
z
M 1250 4663 
L 450 4663 
L 450 744 
L 3263 744 
L 3263 4663 
L 2475 4663 
L 2475 3275 
L 1250 3275 
L 1250 4663 
z
M 1250 1388 
L 1250 2656 
L 2475 2656 
L 2475 1388 
L 1250 1388 
z
" transform="scale(0.015625)"/>
      <path id="Pretendard-Bold-750" d="M 4888 4619 
L 681 4619 
L 681 3988 
L 4088 3988 
C 4088 3328 4081 2553 3894 1513 
L 4675 1444 
C 4881 2588 4881 3369 4888 4063 
L 4888 4619 
z
M 5356 769 
L 3481 769 
L 3481 2556 
L 2694 2556 
L 2694 769 
L 2069 769 
L 2069 2556 
L 1275 2556 
L 1275 769 
L 169 769 
L 169 119 
L 5356 119 
L 5356 769 
z
" transform="scale(0.015625)"/>
      <path id="Pretendard-Bold-770" d="M 4756 4850 
L 806 4850 
L 806 4213 
L 3963 4213 
C 3963 3775 3950 3306 3831 2700 
L 169 2700 
L 169 2069 
L 2406 2069 
L 2406 856 
L 3200 856 
L 3200 2069 
L 5375 2069 
L 5375 2700 
L 4638 2700 
C 4756 3369 4756 3881 4756 4356 
L 4756 4850 
z
M 4844 163 
L 1569 163 
L 1569 1369 
L 775 1369 
L 775 -475 
L 4844 -475 
L 4844 163 
z
" transform="scale(0.015625)"/>
      <path id="Pretendard-Bold-32ce" d="M 2019 -63 
C 3038 -63 3731 594 3731 1506 
C 3731 2375 3113 2994 2281 2994 
C 1881 2994 1544 2838 1375 2613 
L 1338 2613 
L 1463 3756 
L 3475 3756 
L 3475 4525 
L 688 4525 
L 444 1919 
L 1294 1919 
C 1431 2175 1669 2300 2006 2300 
C 2481 2294 2819 1963 2819 1481 
C 2819 1013 2488 681 2019 681 
C 1625 681 1300 919 1281 1275 
L 369 1275 
C 388 494 1075 -63 2019 -63 
z
" transform="scale(0.015625)"/>
      <path id="Pretendard-Bold-61c" d="M 5075 5113 
L 4306 5113 
L 4306 2956 
L 3788 2956 
L 3788 4963 
L 3044 4963 
L 3044 -325 
L 3788 -325 
L 3788 2319 
L 4306 2319 
L 4306 -575 
L 5075 -575 
L 5075 5113 
z
M 2644 4413 
L 388 4413 
L 388 3775 
L 1869 3775 
C 1756 2659 1259 1825 100 1144 
L 563 594 
C 2163 1525 2638 2825 2644 4413 
z
" transform="scale(0.015625)"/>
      <path id="Pretendard-Bold-335a" d="M 1369 463 
L 481 463 
L 169 -1319 
L 831 -1319 
L 1369 463 
z
" transform="scale(0.015625)"/>
      <path id="Pretendard-Bold-1c2b" d="M 5356 2619 
L 169 2619 
L 169 1975 
L 2356 1975 
L 2356 1425 
L 3150 1425 
L 3150 1975 
L 5356 1975 
L 5356 2619 
z
M 3156 1094 
L 3156 1206 
L 2338 1206 
L 2338 1094 
C 2331 650 1738 156 500 50 
L 769 -550 
C 1725 -463 2397 -134 2744 319 
C 3088 -144 3772 -463 4744 -550 
L 4988 50 
C 3731 156 3156 625 3156 1094 
z
M 3175 4856 
L 3175 5050 
L 2356 5050 
L 2356 4856 
C 2350 4281 1700 3656 425 3519 
L 706 2900 
C 1681 3022 2394 3416 2763 3963 
C 3128 3416 3841 3022 4825 2900 
L 5106 3519 
C 3825 3656 3175 4281 3175 4856 
z
" transform="scale(0.015625)"/>
      <path id="Pretendard-Bold-2190" d="M 2269 3563 
L 2269 3913 
L 3413 3913 
L 3413 4563 
L 263 4563 
L 263 3913 
L 1469 3913 
L 1469 3563 
C 1463 2625 988 1569 38 1125 
L 500 494 
C 1159 803 1625 1441 1881 2194 
C 2131 1509 2584 928 3219 638 
L 3663 1263 
C 2725 1694 2263 2694 2269 3563 
z
M 4656 5113 
L 3856 5113 
L 3856 -575 
L 4656 -575 
L 4656 2275 
L 5494 2275 
L 5494 2944 
L 4656 2944 
L 4656 5113 
z
" transform="scale(0.015625)"/>
      <path id="Pretendard-Bold-13d0" d="M 4681 5113 
L 3881 5113 
L 3881 2269 
L 4681 2269 
L 4681 3356 
L 5450 3356 
L 5450 4013 
L 4681 4013 
L 4681 5113 
z
M 3069 4844 
L 338 4844 
L 338 2481 
L 3069 2481 
L 3069 4844 
z
M 1125 4219 
L 2281 4219 
L 2281 3113 
L 1125 3113 
L 1125 4219 
z
M 4681 2044 
L 906 2044 
L 906 1431 
L 3888 1431 
L 3888 1069 
L 919 1069 
L 919 -513 
L 4844 -513 
L 4844 113 
L 1700 113 
L 1700 494 
L 4681 494 
L 4681 2044 
z
" transform="scale(0.015625)"/>
      <path id="Pretendard-Bold-2144" d="M 2763 5031 
C 1450 5031 688 4688 688 4063 
C 688 3431 1450 3088 2763 3088 
C 4069 3088 4825 3431 4831 4063 
C 4825 4688 4069 5031 2763 5031 
z
M 2763 4450 
C 3606 4450 4006 4313 4006 4063 
C 4006 3781 3606 3675 2763 3675 
C 1925 3675 1519 3781 1525 4063 
C 1519 4313 1925 4450 2763 4450 
z
M 5356 2819 
L 169 2819 
L 169 2188 
L 5356 2188 
L 5356 2819 
z
M 4725 1856 
L 769 1856 
L 769 1275 
L 3938 1275 
L 3938 963 
L 775 963 
L 775 -538 
L 4875 -538 
L 4875 63 
L 1556 63 
L 1556 406 
L 4725 406 
L 4725 1856 
z
" transform="scale(0.015625)"/>
      <path id="Pretendard-Bold-2f5c" d="M 4681 5106 
L 3881 5106 
L 3881 863 
L 4681 863 
L 4681 2713 
L 5450 2713 
L 5450 3363 
L 4681 3363 
L 4681 5106 
z
M 3544 4513 
L 2256 4513 
L 2256 5119 
L 1463 5119 
L 1463 4513 
L 169 4513 
L 169 3881 
L 3544 3881 
L 3544 4513 
z
M 1856 3681 
C 1025 3681 444 3238 444 2581 
C 444 1925 1025 1494 1856 1494 
C 2681 1494 3256 1925 3256 2581 
C 3256 3238 2681 3681 1856 3681 
z
M 1856 3075 
C 2238 3069 2500 2894 2500 2581 
C 2500 2269 2238 2100 1856 2100 
C 1475 2100 1219 2269 1225 2581 
C 1219 2894 1475 3069 1856 3075 
z
M 4888 163 
L 1788 163 
L 1788 1188 
L 994 1188 
L 994 -475 
L 4888 -475 
L 4888 163 
z
" transform="scale(0.015625)"/>
      <path id="Pretendard-Bold-ce4" d="M 4656 5113 
L 3856 5113 
L 3856 -588 
L 4656 -588 
L 4656 2350 
L 5494 2350 
L 5494 3000 
L 4656 3000 
L 4656 5113 
z
M 3063 4588 
L 394 4588 
L 394 794 
L 875 794 
C 1881 788 2656 813 3538 963 
L 3450 1631 
C 2694 1497 2013 1459 1188 1450 
L 1188 3944 
L 3063 3944 
L 3063 4588 
z
" transform="scale(0.015625)"/>
     </defs>
     <use xlink:href="#Pretendard-Bold-2bb5"/>
     <use xlink:href="#Pretendard-Bold-221c" transform="translate(86.421875 0)"/>
     <use xlink:href="#Pretendard-Bold-2" transform="translate(172.84375 0)"/>
     <use xlink:href="#Pretendard-Bold-2dc9" transform="translate(195.890625 0)"/>
     <use xlink:href="#Pretendard-Bold-600" transform="translate(282.3125 0)"/>
     <use xlink:href="#Pretendard-Bold-2" transform="translate(368.734375 0)"/>
     <use xlink:href="#Pretendard-Bold-33c6" transform="translate(391.78125 0)"/>
     <use xlink:href="#Pretendard-Bold-2" transform="translate(488.359375 0)"/>
     <use xlink:href="#Pretendard-Bold-1844" transform="translate(511.40625 0)"/>
     <use xlink:href="#Pretendard-Bold-750" transform="translate(597.828125 0)"/>
     <use xlink:href="#Pretendard-Bold-770" transform="translate(684.25 0)"/>
     <use xlink:href="#Pretendard-Bold-2" transform="translate(770.671875 0)"/>
     <use xlink:href="#Pretendard-Bold-32ce" transform="translate(793.71875 0)"/>
     <use xlink:href="#Pretendard-Bold-61c" transform="translate(856.421875 0)"/>
     <use xlink:href="#Pretendard-Bold-335a" transform="translate(942.84375 0)"/>
     <use xlink:href="#Pretendard-Bold-2" transform="translate(968.390625 0)"/>
     <use xlink:href="#Pretendard-Bold-1c2b" transform="translate(991.4375 0)"/>
     <use xlink:href="#Pretendard-Bold-2190" transform="translate(1077.859375 0)"/>
     <use xlink:href="#Pretendard-Bold-600" transform="translate(1164.28125 0)"/>
     <use xlink:href="#Pretendard-Bold-2" transform="translate(1250.703125 0)"/>
     <use xlink:href="#Pretendard-Bold-13d0" transform="translate(1273.75 0)"/>
     <use xlink:href="#Pretendard-Bold-2144" transform="translate(1360.171875 0)"/>
     <use xlink:href="#Pretendard-Bold-2" transform="translate(1446.59375 0)"/>
     <use xlink:href="#Pretendard-Bold-2f5c" transform="translate(1469.640625 0)"/>
     <use xlink:href="#Pretendard-Bold-ce4" transform="translate(1556.0625 0)"/>
    </g>
   </g>
  </g>
  <g id="axes_2">
   <g id="patch_10">
    <path d="M 542.834615 247.003174 
L 740.2275 247.003174 
L 740.2275 24.619922 
L 542.834615 24.619922 
z
" style="fill: #ffffff"/>
   </g>
   <g id="matplotlib.axis_3">
    <g id="xtick_8">
     <g id="line2d_21">
      <g>
       <use xlink:href="#mfc0d97fb15" x="571.159262" y="247.003174" style="fill: #333333; stroke: #333333; stroke-width: 0.8"/>
      </g>
     </g>
     <g id="text_21">
      <!-- 시작 시각 -->
      <g style="fill: #333333" transform="translate(553.547153 263.043945) scale(0.095 -0.095)">
       <defs>
        <path id="Pretendard-Regular-1cdc" d="M 2200 3556 
L 2200 4569 
L 1713 4569 
L 1713 3556 
C 1706 2500 1019 1444 194 1063 
L 506 650 
C 1156 978 1703 1678 1963 2519 
C 2228 1725 2775 1072 3406 763 
L 3706 1150 
C 2888 1519 2194 2544 2200 3556 
z
M 4806 5050 
L 4313 5050 
L 4313 -519 
L 4806 -519 
L 4806 5050 
z
" transform="scale(0.015625)"/>
        <path id="Pretendard-Regular-2191" d="M 2106 4019 
L 2106 4256 
L 3356 4256 
L 3356 4656 
L 356 4656 
L 356 4256 
L 1625 4256 
L 1625 4019 
C 1619 3225 1038 2506 206 2213 
L 469 1831 
C 1122 2072 1631 2563 1869 3194 
C 2106 2619 2591 2163 3225 1938 
L 3475 2319 
C 2650 2606 2106 3281 2106 4019 
z
M 4569 5050 
L 4081 5050 
L 4081 1700 
L 4569 1700 
L 4569 3163 
L 5406 3163 
L 5406 3581 
L 4569 3581 
L 4569 5050 
z
M 4569 1406 
L 931 1406 
L 931 1006 
L 4081 1006 
L 4081 -506 
L 4569 -506 
L 4569 1406 
z
" transform="scale(0.015625)"/>
        <path id="Pretendard-Regular-601" d="M 4569 5050 
L 4081 5050 
L 4081 1788 
L 4569 1788 
L 4569 3219 
L 5406 3219 
L 5406 3638 
L 4569 3638 
L 4569 5050 
z
M 3044 4694 
L 469 4694 
L 469 4288 
L 2525 4288 
C 2422 3344 1581 2600 219 2231 
L 419 1850 
C 2063 2288 3044 3288 3044 4694 
z
M 4569 1531 
L 931 1531 
L 931 1131 
L 4081 1131 
L 4081 -506 
L 4569 -506 
L 4569 1531 
z
" transform="scale(0.015625)"/>
       </defs>
       <use xlink:href="#Pretendard-Regular-1cdc"/>
       <use xlink:href="#Pretendard-Regular-2191" transform="translate(86.421875 0)"/>
       <use xlink:href="#Pretendard-Regular-2" transform="translate(172.84375 0)"/>
       <use xlink:href="#Pretendard-Regular-1cdc" transform="translate(197.9375 0)"/>
       <use xlink:href="#Pretendard-Regular-601" transform="translate(284.359375 0)"/>
      </g>
      <!-- (비교군 아님 — -->
      <g style="fill: #333333" transform="translate(542.085551 274.376221) scale(0.095 -0.095)">
       <defs>
        <path id="Pretendard-Regular-1844" d="M 4806 5050 
L 4313 5050 
L 4313 -519 
L 4806 -519 
L 4806 5050 
z
M 1038 4575 
L 550 4575 
L 550 825 
L 3175 825 
L 3175 4575 
L 2694 4575 
L 2694 3106 
L 1038 3106 
L 1038 4575 
z
M 1038 1238 
L 1038 2713 
L 2694 2713 
L 2694 1238 
L 1038 1238 
z
" transform="scale(0.015625)"/>
        <path id="Pretendard-Regular-750" d="M 4688 4488 
L 756 4488 
L 756 4081 
L 4206 4081 
L 4206 3869 
C 4206 3175 4206 2444 4006 1463 
L 4488 1406 
C 4688 2438 4688 3156 4688 3869 
L 4688 4488 
z
M 5288 688 
L 3350 688 
L 3350 2519 
L 2869 2519 
L 2869 688 
L 1969 688 
L 1969 2519 
L 1481 2519 
L 1481 688 
L 225 688 
L 225 281 
L 5288 281 
L 5288 688 
z
" transform="scale(0.015625)"/>
        <path id="Pretendard-Regular-770" d="M 4644 4750 
L 869 4750 
L 869 4344 
L 4156 4344 
L 4156 4313 
C 4156 3844 4156 3316 4006 2588 
L 225 2588 
L 225 2194 
L 2544 2194 
L 2544 850 
L 3025 850 
L 3025 2194 
L 5313 2194 
L 5313 2588 
L 4506 2588 
C 4644 3313 4644 3844 4644 4313 
L 4644 4750 
z
M 4763 25 
L 1363 25 
L 1363 1350 
L 869 1350 
L 869 -388 
L 4763 -388 
L 4763 25 
z
" transform="scale(0.015625)"/>
        <path id="Pretendard-Regular-cd8" d="M 4806 5050 
L 4325 5050 
L 4325 1894 
L 4806 1894 
L 4806 5050 
z
M 1069 4719 
L 575 4719 
L 575 2319 
L 1025 2319 
C 1988 2325 2831 2394 3769 2581 
L 3694 2994 
C 2813 2803 1988 2741 1069 2738 
L 1069 4719 
z
M 4806 1638 
L 1200 1638 
L 1200 -431 
L 4806 -431 
L 4806 1638 
z
M 1681 1244 
L 4325 1244 
L 4325 -31 
L 1681 -31 
L 1681 1244 
z
" transform="scale(0.015625)"/>
        <path id="Pretendard-Regular-33c6" d="M 6175 2506 
L -50 2506 
L -50 2013 
L 6175 2013 
L 6175 2506 
z
" transform="scale(0.015625)"/>
       </defs>
       <use xlink:href="#Pretendard-Regular-33d1"/>
       <use xlink:href="#Pretendard-Regular-1844" transform="translate(34.078125 0)"/>
       <use xlink:href="#Pretendard-Regular-750" transform="translate(120.5 0)"/>
       <use xlink:href="#Pretendard-Regular-770" transform="translate(206.921875 0)"/>
       <use xlink:href="#Pretendard-Regular-2" transform="translate(293.34375 0)"/>
       <use xlink:href="#Pretendard-Regular-1f44" transform="translate(318.4375 0)"/>
       <use xlink:href="#Pretendard-Regular-cd8" transform="translate(404.859375 0)"/>
       <use xlink:href="#Pretendard-Regular-2" transform="translate(491.28125 0)"/>
       <use xlink:href="#Pretendard-Regular-33c6" transform="translate(516.375 0)"/>
      </g>
      <!-- 이틀 효과와 섞임) -->
      <g style="fill: #333333" transform="translate(538.421372 285.708496) scale(0.095 -0.095)">
       <defs>
        <path id="Pretendard-Regular-2cc0" d="M 4688 3263 
L 1388 3263 
L 1388 3750 
L 4506 3750 
L 4506 4094 
L 1388 4094 
L 1388 4550 
L 4656 4550 
L 4656 4906 
L 894 4906 
L 894 2906 
L 4688 2906 
L 4688 3263 
z
M 5288 2481 
L 231 2481 
L 231 2088 
L 5288 2088 
L 5288 2481 
z
M 4638 1663 
L 838 1663 
L 838 1300 
L 4156 1300 
L 4156 813 
L 850 813 
L 850 -444 
L 4806 -444 
L 4806 -75 
L 1338 -75 
L 1338 463 
L 4638 463 
L 4638 1663 
z
" transform="scale(0.015625)"/>
        <path id="Pretendard-Regular-30a8" d="M 5025 4219 
L 2994 4219 
L 2994 4956 
L 2513 4956 
L 2513 4219 
L 475 4219 
L 475 3813 
L 5025 3813 
L 5025 4219 
z
M 5313 538 
L 3938 538 
L 3938 1569 
C 4350 1741 4581 2028 4581 2406 
C 4581 3069 3881 3450 2756 3450 
C 1625 3450 925 3069 931 2406 
C 928 2028 1156 1744 1569 1569 
L 1569 538 
L 225 538 
L 225 131 
L 5313 131 
L 5313 538 
z
M 2756 3063 
C 3575 3063 4081 2819 4081 2406 
C 4081 2000 3575 1756 2756 1756 
C 1925 1756 1419 2000 1425 2406 
C 1419 2819 1925 3063 2756 3063 
z
M 2063 538 
L 2063 1425 
C 2269 1388 2503 1369 2756 1369 
C 3013 1369 3247 1388 3456 1431 
L 3456 538 
L 2063 538 
z
" transform="scale(0.015625)"/>
        <path id="Pretendard-Regular-6fc" d="M 3306 4431 
L 481 4431 
L 481 4031 
L 2813 4031 
C 2813 3588 2800 2913 2650 1981 
L 3144 1938 
C 3300 2969 3300 3706 3306 4144 
L 3306 4431 
z
M 1850 2844 
L 1369 2844 
L 1369 1144 
C 941 1131 534 1128 169 1125 
L 231 719 
C 1225 713 2531 738 3700 919 
L 3675 1288 
C 3097 1219 2466 1178 1850 1156 
L 1850 2844 
z
M 4513 5050 
L 4025 5050 
L 4025 -506 
L 4513 -506 
L 4513 2300 
L 5413 2300 
L 5413 2725 
L 4513 2725 
L 4513 5050 
z
" transform="scale(0.015625)"/>
        <path id="Pretendard-Regular-2040" d="M 1900 4688 
C 1031 4681 413 4156 419 3381 
C 413 2681 919 2184 1656 2100 
L 1656 1138 
C 1122 1119 603 1116 156 1113 
L 238 700 
C 1213 694 2531 706 3706 906 
L 3675 1275 
C 3191 1213 2669 1175 2150 1150 
L 2150 2100 
C 2875 2188 3375 2684 3381 3381 
C 3375 4156 2756 4681 1900 4688 
z
M 1900 4263 
C 2475 4263 2894 3900 2900 3381 
C 2894 2863 2475 2500 1900 2500 
C 1319 2500 894 2863 900 3381 
C 894 3900 1319 4263 1900 4263 
z
M 4519 5050 
L 4031 5050 
L 4031 -506 
L 4519 -506 
L 4519 2331 
L 5425 2331 
L 5425 2756 
L 4519 2756 
L 4519 5050 
z
" transform="scale(0.015625)"/>
        <path id="Pretendard-Regular-1b1e" d="M 2119 4188 
L 2119 4788 
L 1638 4788 
L 1638 4213 
C 1631 3363 1069 2631 231 2331 
L 488 1938 
C 1147 2184 1644 2688 1881 3338 
C 2122 2753 2609 2291 3225 2063 
L 3488 2450 
C 2681 2731 2113 3425 2119 4188 
z
M 4831 5050 
L 4338 5050 
L 4338 3925 
L 3100 3925 
L 3100 3513 
L 4338 3513 
L 4338 1819 
L 4831 1819 
L 4831 5050 
z
M 2788 1519 
L 956 1519 
L 956 1125 
L 2288 1125 
L 2288 -506 
L 2788 -506 
L 2788 1519 
z
M 4831 1519 
L 3056 1519 
L 3056 1125 
L 4338 1125 
L 4338 -506 
L 4831 -506 
L 4831 1519 
z
" transform="scale(0.015625)"/>
        <path id="Pretendard-Regular-2184" d="M 4813 5044 
L 4325 5044 
L 4325 1869 
L 4813 1869 
L 4813 5044 
z
M 4813 1569 
L 1200 1569 
L 1200 -431 
L 4813 -431 
L 4813 1569 
z
M 1681 1169 
L 4331 1169 
L 4331 -31 
L 1681 -31 
L 1681 1169 
z
M 1813 4750 
C 969 4750 356 4225 356 3450 
C 356 2688 969 2156 1813 2156 
C 2656 2156 3269 2688 3269 3450 
C 3269 4225 2656 4750 1813 4750 
z
M 1813 4331 
C 2375 4338 2788 3969 2788 3450 
C 2788 2938 2375 2575 1813 2575 
C 1244 2575 831 2938 838 3450 
C 831 3969 1244 4338 1813 4331 
z
" transform="scale(0.015625)"/>
       </defs>
       <use xlink:href="#Pretendard-Regular-2174"/>
       <use xlink:href="#Pretendard-Regular-2cc0" transform="translate(86.421875 0)"/>
       <use xlink:href="#Pretendard-Regular-2" transform="translate(172.84375 0)"/>
       <use xlink:href="#Pretendard-Regular-30a8" transform="translate(197.9375 0)"/>
       <use xlink:href="#Pretendard-Regular-6fc" transform="translate(284.359375 0)"/>
       <use xlink:href="#Pretendard-Regular-2040" transform="translate(370.78125 0)"/>
       <use xlink:href="#Pretendard-Regular-2" transform="translate(457.203125 0)"/>
       <use xlink:href="#Pretendard-Regular-1b1e" transform="translate(482.296875 0)"/>
       <use xlink:href="#Pretendard-Regular-2184" transform="translate(568.71875 0)"/>
       <use xlink:href="#Pretendard-Regular-33d2" transform="translate(655.140625 0)"/>
      </g>
     </g>
    </g>
    <g id="xtick_9">
     <g id="line2d_22">
      <g>
       <use xlink:href="#mfc0d97fb15" x="641.531057" y="247.003174" style="fill: #333333; stroke: #333333; stroke-width: 0.8"/>
      </g>
     </g>
     <g id="text_22">
      <!-- 2게임일 뒤 -->
      <g style="fill: #333333" transform="translate(621.131292 263.043945) scale(0.095 -0.095)">
       <defs>
        <path id="Pretendard-Regular-68c" d="M 4981 5050 
L 4513 5050 
L 4513 -506 
L 4981 -506 
L 4981 5050 
z
M 3813 4900 
L 3344 4900 
L 3344 2769 
L 2350 2769 
C 2534 3263 2622 3791 2625 4338 
L 469 4338 
L 469 3931 
L 2138 3931 
C 2047 2769 1441 1766 231 1050 
L 519 694 
C 1294 1150 1828 1722 2169 2369 
L 3344 2369 
L 3344 -225 
L 3813 -225 
L 3813 4900 
z
" transform="scale(0.015625)"/>
        <path id="Pretendard-Regular-217c" d="M 1800 4844 
C 956 4838 356 4338 356 3613 
C 356 2888 956 2388 1800 2388 
C 2631 2388 3238 2888 3238 3613 
C 3238 4338 2631 4838 1800 4844 
z
M 1800 4431 
C 2350 4431 2763 4094 2763 3613 
C 2763 3125 2350 2788 1800 2788 
C 1244 2788 831 3125 838 3613 
C 831 4094 1244 4431 1800 4431 
z
M 4813 5050 
L 4325 5050 
L 4325 2194 
L 4813 2194 
L 4813 5050 
z
M 4813 1925 
L 1200 1925 
L 1200 1531 
L 4325 1531 
L 4325 956 
L 1213 956 
L 1213 -431 
L 5013 -431 
L 5013 -38 
L 1694 -38 
L 1694 588 
L 4813 588 
L 4813 1925 
z
" transform="scale(0.015625)"/>
        <path id="Pretendard-Regular-ea4" d="M 4806 5044 
L 4325 5044 
L 4325 -513 
L 4806 -513 
L 4806 5044 
z
M 200 2019 
L 263 1600 
C 744 1600 1278 1606 1831 1625 
L 1831 -338 
L 2319 -338 
L 2319 1650 
C 2859 1675 3413 1722 3950 1794 
L 3925 2169 
C 2694 2031 1306 2025 200 2019 
z
M 3500 3138 
L 1225 3138 
L 1225 4331 
L 3425 4331 
L 3425 4731 
L 731 4731 
L 731 2725 
L 3500 2725 
L 3500 3138 
z
" transform="scale(0.015625)"/>
       </defs>
       <use xlink:href="#Pretendard-Regular-32cb"/>
       <use xlink:href="#Pretendard-Regular-68c" transform="translate(58.6875 0)"/>
       <use xlink:href="#Pretendard-Regular-2184" transform="translate(145.109375 0)"/>
       <use xlink:href="#Pretendard-Regular-217c" transform="translate(231.53125 0)"/>
       <use xlink:href="#Pretendard-Regular-2" transform="translate(317.953125 0)"/>
       <use xlink:href="#Pretendard-Regular-ea4" transform="translate(343.046875 0)"/>
      </g>
      <!-- (전체 아키텍처) -->
      <g style="fill: #333333" transform="translate(612.471448 274.376221) scale(0.095 -0.095)">
       <use xlink:href="#Pretendard-Regular-33d1"/>
       <use xlink:href="#Pretendard-Regular-2204" transform="translate(34.078125 0)"/>
       <use xlink:href="#Pretendard-Regular-26b4" transform="translate(120.5 0)"/>
       <use xlink:href="#Pretendard-Regular-2" transform="translate(206.921875 0)"/>
       <use xlink:href="#Pretendard-Regular-1f44" transform="translate(232.015625 0)"/>
       <use xlink:href="#Pretendard-Regular-2aa4" transform="translate(318.4375 0)"/>
       <use xlink:href="#Pretendard-Regular-2b4d" transform="translate(404.859375 0)"/>
       <use xlink:href="#Pretendard-Regular-2698" transform="translate(491.28125 0)"/>
       <use xlink:href="#Pretendard-Regular-33d2" transform="translate(577.703125 0)"/>
      </g>
     </g>
    </g>
    <g id="xtick_10">
     <g id="line2d_23">
      <g>
       <use xlink:href="#mfc0d97fb15" x="711.902852" y="247.003174" style="fill: #333333; stroke: #333333; stroke-width: 0.8"/>
      </g>
     </g>
     <g id="text_23">
      <!-- 아키텍처를 -->
      <g style="fill: #333333" transform="translate(691.377657 263.043945) scale(0.095 -0.095)">
       <defs>
        <path id="Pretendard-Regular-137c" d="M 5306 2469 
L 219 2469 
L 219 2081 
L 5306 2081 
L 5306 2469 
z
M 4669 1638 
L 831 1638 
L 831 1269 
L 4181 1269 
L 4181 794 
L 838 794 
L 838 -431 
L 4850 -431 
L 4850 -75 
L 1331 -75 
L 1331 456 
L 4669 456 
L 4669 1638 
z
M 4650 4881 
L 863 4881 
L 863 4525 
L 4156 4525 
L 4156 4069 
L 881 4069 
L 881 2888 
L 4750 2888 
L 4750 3244 
L 1369 3244 
L 1369 3731 
L 4650 3731 
L 4650 4881 
z
" transform="scale(0.015625)"/>
       </defs>
       <use xlink:href="#Pretendard-Regular-1f44"/>
       <use xlink:href="#Pretendard-Regular-2aa4" transform="translate(86.421875 0)"/>
       <use xlink:href="#Pretendard-Regular-2b4d" transform="translate(172.84375 0)"/>
       <use xlink:href="#Pretendard-Regular-2698" transform="translate(259.265625 0)"/>
       <use xlink:href="#Pretendard-Regular-137c" transform="translate(345.6875 0)"/>
      </g>
      <!-- 뺀 마을 -->
      <g style="fill: #333333" transform="translate(698.395782 274.376221) scale(0.095 -0.095)">
       <defs>
        <path id="Pretendard-Regular-1880" d="M 731 4563 
L 338 4563 
L 338 1894 
L 1650 1894 
L 1650 4563 
L 1269 4563 
L 1269 3631 
L 731 3631 
L 731 4563 
z
M 731 2300 
L 731 3238 
L 1269 3238 
L 1269 2300 
L 731 2300 
z
M 2338 4563 
L 1956 4563 
L 1956 1894 
L 3269 1894 
L 3269 4563 
L 2881 4563 
L 2881 3631 
L 2338 3631 
L 2338 4563 
z
M 2338 2300 
L 2338 3238 
L 2881 3238 
L 2881 2300 
L 2338 2300 
z
M 5088 5044 
L 4656 5044 
L 4656 3394 
L 4100 3394 
L 4100 4938 
L 3675 4938 
L 3675 1069 
L 4100 1069 
L 4100 2981 
L 4656 2981 
L 4656 894 
L 5088 894 
L 5088 5044 
z
M 5256 25 
L 1713 25 
L 1713 1369 
L 1231 1369 
L 1231 -388 
L 5256 -388 
L 5256 25 
z
" transform="scale(0.015625)"/>
        <path id="Pretendard-Regular-13c8" d="M 3019 4488 
L 456 4488 
L 456 906 
L 3019 906 
L 3019 4488 
z
M 931 4094 
L 2531 4094 
L 2531 1306 
L 931 1306 
L 931 4094 
z
M 4525 5050 
L 4038 5050 
L 4038 -506 
L 4525 -506 
L 4525 2406 
L 5456 2406 
L 5456 2831 
L 4525 2831 
L 4525 5050 
z
" transform="scale(0.015625)"/>
        <path id="Pretendard-Regular-2144" d="M 2756 4950 
C 1519 4950 788 4613 788 3994 
C 788 3363 1519 3025 2756 3019 
C 3994 3025 4719 3363 4719 3994 
C 4719 4613 3994 4950 2756 4950 
z
M 2756 4581 
C 3675 4581 4219 4356 4219 3994 
C 4219 3606 3675 3394 2756 3394 
C 1831 3394 1294 3606 1300 3994 
C 1294 4356 1831 4581 2756 4581 
z
M 5288 2644 
L 225 2644 
L 225 2244 
L 5288 2244 
L 5288 2644 
z
M 4638 1763 
L 838 1763 
L 838 1388 
L 4156 1388 
L 4156 881 
L 850 881 
L 850 -444 
L 4806 -444 
L 4806 -56 
L 1338 -56 
L 1338 519 
L 4638 519 
L 4638 1763 
z
" transform="scale(0.015625)"/>
       </defs>
       <use xlink:href="#Pretendard-Regular-1880"/>
       <use xlink:href="#Pretendard-Regular-2" transform="translate(86.421875 0)"/>
       <use xlink:href="#Pretendard-Regular-13c8" transform="translate(111.515625 0)"/>
       <use xlink:href="#Pretendard-Regular-2144" transform="translate(197.9375 0)"/>
      </g>
      <!-- (안 돌림) -->
      <g style="fill: #333333" transform="translate(695.15836 285.708496) scale(0.095 -0.095)">
       <defs>
        <path id="Pretendard-Regular-1f48" d="M 4569 5050 
L 4081 5050 
L 4081 950 
L 4569 950 
L 4569 2944 
L 5406 2944 
L 5406 3356 
L 4569 3356 
L 4569 5050 
z
M 4825 25 
L 1575 25 
L 1575 1375 
L 1094 1375 
L 1094 -388 
L 4825 -388 
L 4825 25 
z
M 1788 4656 
C 956 4656 325 4094 331 3288 
C 325 2481 956 1919 1788 1919 
C 2619 1919 3244 2481 3250 3288 
C 3244 4094 2619 4656 1788 4656 
z
M 1788 4225 
C 2350 4225 2769 3838 2769 3288 
C 2769 2738 2350 2350 1788 2350 
C 1238 2350 806 2738 813 3288 
C 806 3838 1238 4225 1788 4225 
z
" transform="scale(0.015625)"/>
        <path id="Pretendard-Regular-dcc" d="M 4688 3556 
L 1394 3556 
L 1394 4425 
L 4631 4425 
L 4631 4831 
L 900 4831 
L 900 3163 
L 2513 3163 
L 2513 2625 
L 225 2625 
L 225 2225 
L 5288 2225 
L 5288 2625 
L 3000 2625 
L 3000 3163 
L 4688 3163 
L 4688 3556 
z
M 4638 1750 
L 838 1750 
L 838 1375 
L 4156 1375 
L 4156 875 
L 850 875 
L 850 -444 
L 4806 -444 
L 4806 -50 
L 1338 -50 
L 1338 513 
L 4638 513 
L 4638 1750 
z
" transform="scale(0.015625)"/>
        <path id="Pretendard-Regular-13bc" d="M 4813 5044 
L 4325 5044 
L 4325 1750 
L 4813 1750 
L 4813 5044 
z
M 3044 4706 
L 506 4706 
L 506 4313 
L 2556 4313 
L 2556 3588 
L 519 3588 
L 519 2019 
L 969 2019 
C 1994 2019 2756 2050 3688 2194 
L 3631 2606 
C 2731 2456 1988 2425 994 2431 
L 994 3200 
L 3044 3200 
L 3044 4706 
z
M 4813 1450 
L 1200 1450 
L 1200 -431 
L 4813 -431 
L 4813 1450 
z
M 1681 1050 
L 4331 1050 
L 4331 -31 
L 1681 -31 
L 1681 1050 
z
" transform="scale(0.015625)"/>
       </defs>
       <use xlink:href="#Pretendard-Regular-33d1"/>
       <use xlink:href="#Pretendard-Regular-1f48" transform="translate(34.078125 0)"/>
       <use xlink:href="#Pretendard-Regular-2" transform="translate(120.5 0)"/>
       <use xlink:href="#Pretendard-Regular-dcc" transform="translate(145.59375 0)"/>
       <use xlink:href="#Pretendard-Regular-13bc" transform="translate(232.015625 0)"/>
       <use xlink:href="#Pretendard-Regular-33d2" transform="translate(318.4375 0)"/>
      </g>
     </g>
    </g>
   </g>
   <g id="matplotlib.axis_4">
    <g id="ytick_6">
     <g id="line2d_24">
      <path d="M 542.834615 247.003174 
L 740.2275 247.003174 
" clip-path="url(#pb37eaed46e)" style="fill: none; stroke: #eeeeee; stroke-width: 0.8; stroke-linecap: square"/>
     </g>
     <g id="line2d_25">
      <g>
       <use xlink:href="#m1d53a73b59" x="542.834615" y="247.003174" style="fill: #333333; stroke: #333333; stroke-width: 0.8"/>
      </g>
     </g>
     <g id="text_24">
      <!-- 0.0 -->
      <g style="fill: #333333" transform="translate(521.876802 251.761475) scale(0.1 -0.1)">
       <use xlink:href="#Pretendard-Regular-32c9"/>
       <use xlink:href="#Pretendard-Regular-3359" transform="translate(57.09375 0)"/>
       <use xlink:href="#Pretendard-Regular-32c9" transform="translate(80 0)"/>
      </g>
     </g>
    </g>
    <g id="ytick_7">
     <g id="line2d_26">
      <path d="M 542.834615 202.526523 
L 740.2275 202.526523 
" clip-path="url(#pb37eaed46e)" style="fill: none; stroke: #eeeeee; stroke-width: 0.8; stroke-linecap: square"/>
     </g>
     <g id="line2d_27">
      <g>
       <use xlink:href="#m1d53a73b59" x="542.834615" y="202.526523" style="fill: #333333; stroke: #333333; stroke-width: 0.8"/>
      </g>
     </g>
     <g id="text_25">
      <!-- 0.2 -->
      <g style="fill: #333333" transform="translate(521.717427 207.284824) scale(0.1 -0.1)">
       <use xlink:href="#Pretendard-Regular-32c9"/>
       <use xlink:href="#Pretendard-Regular-3359" transform="translate(57.09375 0)"/>
       <use xlink:href="#Pretendard-Regular-32cb" transform="translate(82.484375 0)"/>
      </g>
     </g>
    </g>
    <g id="ytick_8">
     <g id="line2d_28">
      <path d="M 542.834615 158.049873 
L 740.2275 158.049873 
" clip-path="url(#pb37eaed46e)" style="fill: none; stroke: #eeeeee; stroke-width: 0.8; stroke-linecap: square"/>
     </g>
     <g id="line2d_29">
      <g>
       <use xlink:href="#m1d53a73b59" x="542.834615" y="158.049873" style="fill: #333333; stroke: #333333; stroke-width: 0.8"/>
      </g>
     </g>
     <g id="text_26">
      <!-- 0.4 -->
      <g style="fill: #333333" transform="translate(521.345552 162.808174) scale(0.1 -0.1)">
       <use xlink:href="#Pretendard-Regular-32c9"/>
       <use xlink:href="#Pretendard-Regular-3359" transform="translate(57.09375 0)"/>
       <use xlink:href="#Pretendard-Regular-32cd" transform="translate(82.484375 0)"/>
      </g>
     </g>
    </g>
    <g id="ytick_9">
     <g id="line2d_30">
      <path d="M 542.834615 113.573223 
L 740.2275 113.573223 
" clip-path="url(#pb37eaed46e)" style="fill: none; stroke: #eeeeee; stroke-width: 0.8; stroke-linecap: square"/>
     </g>
     <g id="line2d_31">
      <g>
       <use xlink:href="#m1d53a73b59" x="542.834615" y="113.573223" style="fill: #333333; stroke: #333333; stroke-width: 0.8"/>
      </g>
     </g>
     <g id="text_27">
      <!-- 0.6 -->
      <g style="fill: #333333" transform="translate(521.701802 118.331523) scale(0.1 -0.1)">
       <use xlink:href="#Pretendard-Regular-32c9"/>
       <use xlink:href="#Pretendard-Regular-3359" transform="translate(57.09375 0)"/>
       <use xlink:href="#Pretendard-Regular-32cf" transform="translate(80 0)"/>
      </g>
     </g>
    </g>
    <g id="ytick_10">
     <g id="line2d_32">
      <path d="M 542.834615 69.096572 
L 740.2275 69.096572 
" clip-path="url(#pb37eaed46e)" style="fill: none; stroke: #eeeeee; stroke-width: 0.8; stroke-linecap: square"/>
     </g>
     <g id="line2d_33">
      <g>
       <use xlink:href="#m1d53a73b59" x="542.834615" y="69.096572" style="fill: #333333; stroke: #333333; stroke-width: 0.8"/>
      </g>
     </g>
     <g id="text_28">
      <!-- 0.8 -->
      <g style="fill: #333333" transform="translate(521.747115 73.854873) scale(0.1 -0.1)">
       <use xlink:href="#Pretendard-Regular-32c9"/>
       <use xlink:href="#Pretendard-Regular-3359" transform="translate(57.09375 0)"/>
       <use xlink:href="#Pretendard-Regular-32d1" transform="translate(80.234375 0)"/>
      </g>
     </g>
    </g>
    <g id="ytick_11">
     <g id="line2d_34">
      <path d="M 542.834615 24.619922 
L 740.2275 24.619922 
" clip-path="url(#pb37eaed46e)" style="fill: none; stroke: #eeeeee; stroke-width: 0.8; stroke-linecap: square"/>
     </g>
     <g id="line2d_35">
      <g>
       <use xlink:href="#m1d53a73b59" x="542.834615" y="24.619922" style="fill: #333333; stroke: #333333; stroke-width: 0.8"/>
      </g>
     </g>
     <g id="text_29">
      <!-- 1.0 -->
      <g style="fill: #333333" transform="translate(523.617427 29.378223) scale(0.1 -0.1)">
       <use xlink:href="#Pretendard-Regular-32ca"/>
       <use xlink:href="#Pretendard-Regular-3359" transform="translate(39.6875 0)"/>
       <use xlink:href="#Pretendard-Regular-32c9" transform="translate(62.59375 0)"/>
      </g>
     </g>
    </g>
    <g id="text_30">
     <!-- 관계망 밀도 -->
     <g style="fill: #333333" transform="translate(514.812837 159.814712) rotate(-90) scale(0.105 -0.105)">
      <defs>
       <path id="Pretendard-Regular-700" d="M 3306 4619 
L 538 4619 
L 538 4206 
L 2825 4206 
C 2816 3856 2803 3384 2669 2719 
L 3163 2681 
C 3300 3406 3300 3963 3306 4325 
L 3306 4619 
z
M 1875 3388 
L 1388 3388 
L 1388 2181 
C 959 2169 553 2166 194 2163 
L 244 1756 
C 1231 1756 2575 1781 3738 1981 
L 3706 2344 
C 3128 2263 2491 2219 1875 2194 
L 1875 3388 
z
M 4581 5050 
L 4081 5050 
L 4081 869 
L 4581 869 
L 4581 2819 
L 5394 2819 
L 5394 3238 
L 4581 3238 
L 4581 5050 
z
M 4763 25 
L 1544 25 
L 1544 1244 
L 1050 1244 
L 1050 -388 
L 4763 -388 
L 4763 25 
z
" transform="scale(0.015625)"/>
       <path id="Pretendard-Regular-6c4" d="M 4981 5050 
L 4513 5050 
L 4513 -506 
L 4981 -506 
L 4981 5050 
z
M 3856 4900 
L 3388 4900 
L 3388 3500 
L 2544 3500 
C 2594 3772 2619 4053 2619 4338 
L 469 4338 
L 469 3931 
L 2131 3931 
C 2034 2769 1428 1766 219 1050 
L 519 694 
C 1569 1322 2178 2153 2450 3094 
L 3388 3094 
L 3388 2106 
L 2356 2106 
L 2356 1700 
L 3388 1700 
L 3388 -225 
L 3856 -225 
L 3856 4900 
z
" transform="scale(0.015625)"/>
       <path id="Pretendard-Regular-13dd" d="M 3031 4625 
L 463 4625 
L 463 2244 
L 3031 2244 
L 3031 4625 
z
M 944 4225 
L 2556 4225 
L 2556 2638 
L 944 2638 
L 944 4225 
z
M 4569 5050 
L 4081 5050 
L 4081 1763 
L 4569 1763 
L 4569 3250 
L 5406 3250 
L 5406 3656 
L 4569 3656 
L 4569 5050 
z
M 2788 1575 
C 1650 1575 944 1188 944 538 
C 944 -119 1650 -500 2788 -506 
C 3919 -500 4619 -119 4619 538 
C 4619 1188 3919 1575 2788 1575 
z
M 2788 1175 
C 3631 1175 4144 938 4144 538 
C 4144 131 3631 -100 2788 -106 
C 1950 -100 1431 131 1438 538 
C 1431 938 1950 1175 2788 1175 
z
" transform="scale(0.015625)"/>
       <path id="Pretendard-Regular-1600" d="M 3125 4738 
L 519 4738 
L 519 2475 
L 3125 2475 
L 3125 4738 
z
M 1000 4338 
L 2644 4338 
L 2644 2863 
L 1000 2863 
L 1000 4338 
z
M 4806 5050 
L 4325 5050 
L 4325 2181 
L 4806 2181 
L 4806 5050 
z
M 4806 1906 
L 1200 1906 
L 1200 1513 
L 4325 1513 
L 4325 944 
L 1206 944 
L 1206 -444 
L 5006 -444 
L 5006 -44 
L 1694 -44 
L 1694 581 
L 4806 581 
L 4806 1906 
z
" transform="scale(0.015625)"/>
       <path id="Pretendard-Regular-dc4" d="M 4713 2444 
L 1369 2444 
L 1369 4194 
L 4656 4194 
L 4656 4594 
L 875 4594 
L 875 2044 
L 2513 2044 
L 2513 606 
L 225 606 
L 225 194 
L 5313 194 
L 5313 606 
L 2994 606 
L 2994 2044 
L 4713 2044 
L 4713 2444 
z
" transform="scale(0.015625)"/>
      </defs>
      <use xlink:href="#Pretendard-Regular-700"/>
      <use xlink:href="#Pretendard-Regular-6c4" transform="translate(86.421875 0)"/>
      <use xlink:href="#Pretendard-Regular-13dd" transform="translate(172.84375 0)"/>
      <use xlink:href="#Pretendard-Regular-2" transform="translate(259.265625 0)"/>
      <use xlink:href="#Pretendard-Regular-1600" transform="translate(284.359375 0)"/>
      <use xlink:href="#Pretendard-Regular-dc4" transform="translate(370.78125 0)"/>
     </g>
    </g>
   </g>
   <g id="patch_11">
    <path d="M 551.807019 247.003174 
L 590.511506 247.003174 
L 590.511506 209.865171 
L 551.807019 209.865171 
z
" clip-path="url(#pb37eaed46e)" style="fill: #bdbdbd"/>
   </g>
   <g id="patch_12">
    <path d="M 622.178814 247.003174 
L 660.883301 247.003174 
L 660.883301 82.439567 
L 622.178814 82.439567 
z
" clip-path="url(#pb37eaed46e)" style="fill: #0f87a8"/>
   </g>
   <g id="patch_13">
    <path d="M 692.550609 247.003174 
L 731.255096 247.003174 
L 731.255096 82.439567 
L 692.550609 82.439567 
L 692.550609 247.003174 
z
" clip-path="url(#pb37eaed46e)" style="fill: none; stroke-dasharray: 5.92,2.56; stroke-dashoffset: 0; stroke: #c4443c; stroke-width: 1.6; stroke-linejoin: miter"/>
   </g>
   <g id="patch_14">
    <path d="M 542.834615 247.003174 
L 542.834615 24.619922 
" style="fill: none; stroke: #333333; stroke-width: 0.8; stroke-linejoin: miter; stroke-linecap: square"/>
   </g>
   <g id="patch_15">
    <path d="M 542.834615 247.003174 
L 740.2275 247.003174 
" style="fill: none; stroke: #333333; stroke-width: 0.8; stroke-linejoin: miter; stroke-linecap: square"/>
   </g>
   <g id="text_31">
    <!-- ? -->
    <g style="fill: #c4443c" transform="translate(705.983477 174.760145) scale(0.22 -0.22)">
     <defs>
      <path id="Pretendard-Bold-3360" d="M 1163 1425 
L 1163 1356 
L 1988 1356 
L 1988 1425 
C 1994 1863 2150 2063 2500 2275 
C 2913 2519 3175 2850 3175 3363 
C 3175 4131 2556 4588 1688 4588 
C 888 4588 238 4169 219 3288 
L 1106 3288 
C 1119 3656 1388 3850 1681 3850 
C 1981 3850 2225 3644 2225 3331 
C 2225 3044 2019 2850 1750 2675 
C 1375 2444 1169 2200 1163 1425 
z
M 1594 -56 
C 1869 -56 2113 181 2113 469 
C 2113 756 1869 988 1594 988 
C 1300 988 1063 756 1069 469 
C 1063 181 1300 -56 1594 -56 
z
" transform="scale(0.015625)"/>
     </defs>
     <use xlink:href="#Pretendard-Bold-3360"/>
    </g>
   </g>
   <g id="text_32">
    <!-- 0.167 -->
    <g style="fill: #333333" transform="translate(559.440512 204.750356) scale(0.1 -0.1)">
     <defs>
      <path id="Pretendard-Regular-32d0" d="M 569 0 
L 1156 0 
L 3225 4000 
L 3225 4525 
L 250 4525 
L 250 4025 
L 2644 4025 
L 2644 3994 
L 569 0 
z
" transform="scale(0.015625)"/>
     </defs>
     <use xlink:href="#Pretendard-Regular-32c9"/>
     <use xlink:href="#Pretendard-Regular-3359" transform="translate(57.09375 0)"/>
     <use xlink:href="#Pretendard-Regular-32ca" transform="translate(74.03125 0)"/>
     <use xlink:href="#Pretendard-Regular-32cf" transform="translate(117.875 0)"/>
     <use xlink:href="#Pretendard-Regular-32d0" transform="translate(179.203125 0)"/>
    </g>
   </g>
   <g id="text_33">
    <!-- 0.74 -->
    <g style="fill: #333333" transform="translate(631.881839 77.547136) scale(0.1 -0.1)">
     <use xlink:href="#Pretendard-Regular-32c9"/>
     <use xlink:href="#Pretendard-Regular-3359" transform="translate(57.09375 0)"/>
     <use xlink:href="#Pretendard-Regular-32d0" transform="translate(81.0625 0)"/>
     <use xlink:href="#Pretendard-Regular-32cd" transform="translate(130.578125 0)"/>
    </g>
   </g>
   <g id="text_34">
    <!-- 창발 측정 — 비교군 없음 -->
    <g style="fill: #333333" transform="translate(542.834615 18.619922) scale(0.12 -0.12)">
     <defs>
      <path id="Pretendard-Bold-263d" d="M 3413 4513 
L 2275 4513 
L 2275 5138 
L 1469 5138 
L 1469 4513 
L 325 4513 
L 325 3888 
L 1469 3888 
C 1463 3241 1044 2597 125 2344 
L 506 1719 
C 1175 1916 1631 2328 1881 2850 
C 2138 2394 2588 2031 3231 1863 
L 3594 2488 
C 2681 2728 2269 3303 2263 3888 
L 3413 3888 
L 3413 4513 
z
M 4681 5113 
L 3881 5113 
L 3881 1681 
L 4681 1681 
L 4681 3119 
L 5450 3119 
L 5450 3763 
L 4681 3763 
L 4681 5113 
z
M 2819 1575 
C 1606 1575 869 1181 869 494 
C 869 -181 1606 -569 2819 -569 
C 4006 -569 4738 -181 4738 494 
C 4738 1181 4006 1575 2819 1575 
z
M 2819 963 
C 3556 963 3950 819 3950 494 
C 3950 188 3556 31 2819 31 
C 2063 31 1663 188 1669 494 
C 1663 819 2063 963 2819 963 
z
" transform="scale(0.015625)"/>
      <path id="Pretendard-Bold-161c" d="M 1131 4856 
L 338 4856 
L 338 2375 
L 3094 2375 
L 3094 4856 
L 2294 4856 
L 2294 4181 
L 1131 4181 
L 1131 4856 
z
M 1131 3000 
L 1131 3581 
L 2294 3581 
L 2294 3000 
L 1131 3000 
z
M 4681 5113 
L 3881 5113 
L 3881 2219 
L 4681 2219 
L 4681 3363 
L 5450 3363 
L 5450 4006 
L 4681 4006 
L 4681 5113 
z
M 4681 2006 
L 906 2006 
L 906 1388 
L 3888 1388 
L 3888 1031 
L 919 1031 
L 919 -538 
L 4844 -538 
L 4844 94 
L 1700 94 
L 1700 463 
L 4681 463 
L 4681 2006 
z
" transform="scale(0.015625)"/>
      <path id="Pretendard-Bold-2821" d="M 5356 2294 
L 169 2294 
L 169 1656 
L 5356 1656 
L 5356 2294 
z
M 4725 1225 
L 744 1225 
L 744 600 
L 3931 600 
L 3931 -575 
L 4725 -575 
L 4725 1225 
z
M 3150 5094 
L 2363 5094 
L 2363 4581 
L 669 4581 
L 669 3963 
L 2300 3963 
C 2203 3553 1625 3181 388 3106 
L 631 2500 
C 1672 2575 2397 2881 2756 3344 
C 3113 2881 3838 2575 4881 2500 
L 5125 3106 
C 3881 3181 3303 3553 3213 3963 
L 4856 3963 
L 4856 4581 
L 3150 4581 
L 3150 5094 
z
" transform="scale(0.015625)"/>
      <path id="Pretendard-Bold-2215" d="M 4963 5113 
L 4169 5113 
L 4169 3725 
L 3281 3725 
L 3281 3081 
L 4169 3081 
L 4169 1738 
L 4963 1738 
L 4963 5113 
z
M 3019 1613 
C 1806 1606 1063 1206 1063 513 
C 1063 -175 1806 -581 3019 -581 
C 4231 -581 4975 -175 4981 513 
C 4975 1206 4231 1606 3019 1613 
z
M 3019 1000 
C 3775 1000 4188 844 4188 513 
C 4188 188 3775 25 3019 25 
C 2263 25 1856 188 1856 513 
C 1856 844 2263 1000 3019 1000 
z
M 3450 4769 
L 363 4769 
L 363 4131 
L 1506 4131 
C 1484 3419 1066 2675 131 2363 
L 544 1731 
C 1219 1963 1672 2431 1925 3013 
C 2172 2497 2603 2084 3231 1881 
L 3625 2506 
C 2738 2800 2338 3469 2319 4131 
L 3450 4131 
L 3450 4769 
z
" transform="scale(0.015625)"/>
      <path id="Pretendard-Bold-1fc6" d="M 1538 1788 
L 800 1788 
L 800 -513 
L 2888 -513 
L 2888 -69 
L 3213 -563 
C 3672 -384 3984 -56 4175 338 
C 4356 -69 4672 -394 5163 -563 
L 5575 31 
C 4863 263 4581 813 4588 1394 
L 4588 1831 
L 3788 1831 
L 3788 1394 
C 3788 875 3519 344 2888 63 
L 2888 1788 
L 2150 1788 
L 2150 1219 
L 1538 1219 
L 1538 1788 
z
M 1538 94 
L 1538 631 
L 2150 631 
L 2150 94 
L 1538 94 
z
M 1756 4900 
C 881 4900 238 4344 244 3563 
C 238 2769 881 2213 1756 2213 
C 2484 2213 3066 2622 3219 3238 
L 4169 3238 
L 4169 2100 
L 4963 2100 
L 4963 5113 
L 4169 5113 
L 4169 3894 
L 3219 3894 
C 3059 4497 2481 4900 1756 4900 
z
M 1756 4244 
C 2188 4244 2500 3981 2500 3563 
C 2500 3131 2188 2869 1756 2863 
C 1313 2869 994 3131 1000 3563 
C 994 3981 1313 4244 1756 4244 
z
" transform="scale(0.015625)"/>
      <path id="Pretendard-Bold-214c" d="M 2763 5006 
C 1506 5006 688 4588 688 3894 
C 688 3206 1506 2788 2763 2794 
C 4025 2788 4825 3206 4831 3894 
C 4825 4588 4025 5006 2763 5006 
z
M 2763 4388 
C 3550 4388 4006 4219 4006 3894 
C 4006 3575 3550 3413 2763 3413 
C 1969 3413 1513 3575 1519 3894 
C 1513 4219 1969 4388 2763 4388 
z
M 4738 1425 
L 769 1425 
L 769 -513 
L 4738 -513 
L 4738 1425 
z
M 1556 794 
L 3956 794 
L 3956 125 
L 1556 125 
L 1556 794 
z
M 5356 2463 
L 169 2463 
L 169 1825 
L 5356 1825 
L 5356 2463 
z
" transform="scale(0.015625)"/>
     </defs>
     <use xlink:href="#Pretendard-Bold-263d"/>
     <use xlink:href="#Pretendard-Bold-161c" transform="translate(86.421875 0)"/>
     <use xlink:href="#Pretendard-Bold-2" transform="translate(172.84375 0)"/>
     <use xlink:href="#Pretendard-Bold-2821" transform="translate(195.890625 0)"/>
     <use xlink:href="#Pretendard-Bold-2215" transform="translate(282.3125 0)"/>
     <use xlink:href="#Pretendard-Bold-2" transform="translate(368.734375 0)"/>
     <use xlink:href="#Pretendard-Bold-33c6" transform="translate(391.78125 0)"/>
     <use xlink:href="#Pretendard-Bold-2" transform="translate(488.359375 0)"/>
     <use xlink:href="#Pretendard-Bold-1844" transform="translate(511.40625 0)"/>
     <use xlink:href="#Pretendard-Bold-750" transform="translate(597.828125 0)"/>
     <use xlink:href="#Pretendard-Bold-770" transform="translate(684.25 0)"/>
     <use xlink:href="#Pretendard-Bold-2" transform="translate(770.671875 0)"/>
     <use xlink:href="#Pretendard-Bold-1fc6" transform="translate(793.71875 0)"/>
     <use xlink:href="#Pretendard-Bold-214c" transform="translate(880.140625 0)"/>
    </g>
   </g>
  </g>
 </g>
 <defs>
  <clipPath id="pacc46eeb33">
   <rect x="154.9" y="24.619922" width="286.219684" height="222.383252"/>
  </clipPath>
  <clipPath id="pb37eaed46e">
   <rect x="542.834615" y="24.619922" width="197.392885" height="222.383252"/>
  </clipPath>
 </defs>
</svg>
