<?xml version="1.0" encoding="utf-8" standalone="no"?>
<!DOCTYPE svg PUBLIC "-//W3C//DTD SVG 1.1//EN"
  "http://www.w3.org/Graphics/SVG/1.1/DTD/svg11.dtd">
<svg xmlns:xlink="http://www.w3.org/1999/xlink" width="494.28pt" height="153pt" viewBox="0 0 494.28 153" xmlns="http://www.w3.org/2000/svg" version="1.1">
 <metadata>
  <rdf:RDF xmlns:dc="http://purl.org/dc/elements/1.1/" xmlns:cc="http://creativecommons.org/ns#" xmlns:rdf="http://www.w3.org/1999/02/22-rdf-syntax-ns#">
   <cc:Work>
    <dc:type rdf:resource="http://purl.org/dc/dcmitype/StillImage"/>
    <dc:date>2026-07-19T12:00:42.668956</dc:date>
    <dc:format>image/svg+xml</dc:format>
    <dc:creator>
     <cc:Agent>
      <dc:title>Matplotlib v3.11.1, https://matplotlib.org/</dc:title>
     </cc:Agent>
    </dc:creator>
   </cc:Work>
  </rdf:RDF>
 </metadata>
 <defs>
  <style type="text/css">*{stroke-linejoin: round; stroke-linecap: butt}</style>
 </defs>
 <g id="figure_1">
  <g id="patch_1">
   <path d="M 0 153 
L 494.28 153 
L 494.28 0 
L 0 0 
z
" style="fill: #ffffff"/>
  </g>
  <g id="axes_1">
   <g id="patch_2">
    <path d="M 15.379773 87.547826 
L 40.464409 87.547826 
L 40.464409 50.587826 
L 15.379773 50.587826 
z
" clip-path="url(#pf38df9e91b)" style="fill: #ffffff; stroke: #bdbdbd; stroke-width: 0.9; stroke-linejoin: miter"/>
   </g>
   <g id="patch_3">
    <path d="M 42.645682 87.547826 
L 67.730318 87.547826 
L 67.730318 50.587826 
L 42.645682 50.587826 
z
" clip-path="url(#pf38df9e91b)" style="fill: #ffffff; stroke: #bdbdbd; stroke-width: 0.9; stroke-linejoin: miter"/>
   </g>
   <g id="patch_4">
    <path d="M 69.911591 87.547826 
L 94.996227 87.547826 
L 94.996227 50.587826 
L 69.911591 50.587826 
z
" clip-path="url(#pf38df9e91b)" style="fill: #ffffff; stroke: #bdbdbd; stroke-width: 0.9; stroke-linejoin: miter"/>
   </g>
   <g id="patch_5">
    <path d="M 97.1775 87.547826 
L 122.262136 87.547826 
L 122.262136 50.587826 
L 97.1775 50.587826 
z
" clip-path="url(#pf38df9e91b)" style="fill: #ffffff; stroke: #bdbdbd; stroke-width: 0.9; stroke-linejoin: miter"/>
   </g>
   <g id="patch_6">
    <path d="M 124.443409 87.547826 
L 149.528045 87.547826 
L 149.528045 50.587826 
L 124.443409 50.587826 
z
" clip-path="url(#pf38df9e91b)" style="fill: #f1f1f1; stroke: #bdbdbd; stroke-width: 0.9; stroke-linejoin: miter"/>
   </g>
   <g id="patch_7">
    <path d="M 151.709318 87.547826 
L 176.793955 87.547826 
L 176.793955 50.587826 
L 151.709318 50.587826 
z
" clip-path="url(#pf38df9e91b)" style="fill: #f1f1f1; stroke: #bdbdbd; stroke-width: 0.9; stroke-linejoin: miter"/>
   </g>
   <g id="patch_8">
    <path d="M 178.975227 87.547826 
L 204.059864 87.547826 
L 204.059864 50.587826 
L 178.975227 50.587826 
z
" clip-path="url(#pf38df9e91b)" style="fill: #f1f1f1; stroke: #bdbdbd; stroke-width: 0.9; stroke-linejoin: miter"/>
   </g>
   <g id="patch_9">
    <path d="M 206.241136 87.547826 
L 231.325773 87.547826 
L 231.325773 50.587826 
L 206.241136 50.587826 
z
" clip-path="url(#pf38df9e91b)" style="fill: #f1f1f1; stroke: #bdbdbd; stroke-width: 0.9; stroke-linejoin: miter"/>
   </g>
   <g id="patch_10">
    <path d="M 233.507045 87.547826 
L 258.591682 87.547826 
L 258.591682 50.587826 
L 233.507045 50.587826 
z
" clip-path="url(#pf38df9e91b)" style="fill: #ffffff; stroke: #0f87a8; stroke-width: 2.2; stroke-linejoin: miter"/>
   </g>
   <g id="patch_11">
    <path d="M 260.772955 87.547826 
L 285.857591 87.547826 
L 285.857591 50.587826 
L 260.772955 50.587826 
z
" clip-path="url(#pf38df9e91b)" style="fill: #f1f1f1; stroke: #bdbdbd; stroke-width: 0.9; stroke-linejoin: miter"/>
   </g>
   <g id="patch_12">
    <path d="M 288.038864 87.547826 
L 313.1235 87.547826 
L 313.1235 50.587826 
L 288.038864 50.587826 
z
" clip-path="url(#pf38df9e91b)" style="fill: #f1f1f1; stroke: #bdbdbd; stroke-width: 0.9; stroke-linejoin: miter"/>
   </g>
   <g id="patch_13">
    <path d="M 315.304773 87.547826 
L 340.389409 87.547826 
L 340.389409 50.587826 
L 315.304773 50.587826 
z
" clip-path="url(#pf38df9e91b)" style="fill: #f1f1f1; stroke: #bdbdbd; stroke-width: 0.9; stroke-linejoin: miter"/>
   </g>
   <g id="patch_14">
    <path d="M 342.570682 87.547826 
L 367.655318 87.547826 
L 367.655318 50.587826 
L 342.570682 50.587826 
z
" clip-path="url(#pf38df9e91b)" style="fill: #f1f1f1; stroke: #bdbdbd; stroke-width: 0.9; stroke-linejoin: miter"/>
   </g>
   <g id="patch_15">
    <path d="M 369.836591 87.547826 
L 394.921227 87.547826 
L 394.921227 50.587826 
L 369.836591 50.587826 
z
" clip-path="url(#pf38df9e91b)" style="fill: #ffffff; stroke: #bdbdbd; stroke-width: 0.9; stroke-linejoin: miter"/>
   </g>
   <g id="patch_16">
    <path d="M 397.1025 87.547826 
L 422.187136 87.547826 
L 422.187136 50.587826 
L 397.1025 50.587826 
z
" clip-path="url(#pf38df9e91b)" style="fill: #ffffff; stroke: #bdbdbd; stroke-width: 0.9; stroke-linejoin: miter"/>
   </g>
   <g id="patch_17">
    <path d="M 424.368409 87.547826 
L 449.453045 87.547826 
L 449.453045 50.587826 
L 424.368409 50.587826 
z
" clip-path="url(#pf38df9e91b)" style="fill: #ffffff; stroke: #bdbdbd; stroke-width: 0.9; stroke-linejoin: miter"/>
   </g>
   <g id="patch_18">
    <path d="M 451.634318 87.547826 
L 476.718955 87.547826 
L 476.718955 50.587826 
L 451.634318 50.587826 
z
" clip-path="url(#pf38df9e91b)" style="fill: #ffffff; stroke: #bdbdbd; stroke-width: 0.9; stroke-linejoin: miter"/>
   </g>
   <g id="line2d_1">
    <path d="M 124.443409 44.963478 
L 367.655318 44.963478 
" clip-path="url(#pf38df9e91b)" style="fill: none; stroke: #8a8a8a; stroke-width: 1.2; stroke-linecap: square"/>
   </g>
   <g id="text_1">
    <!-- 0 -->
    <g style="fill: #8a8a8a" transform="translate(24.049513 74.489224) scale(0.13 -0.13)">
     <defs>
      <path id="Pretendard-Regular-32c9" d="M 1906 -63 
C 2906 -63 3488 781 3488 2263 
C 3488 3731 2900 4588 1906 4588 
C 913 4588 325 3731 325 2263 
C 325 781 900 -63 1906 -63 
z
M 1906 438 
C 1250 438 869 1094 869 2263 
C 869 3431 1256 4100 1906 4100 
C 2556 4100 2938 3431 2938 2263 
C 2938 1094 2556 438 1906 438 
z
" transform="scale(0.015625)"/>
     </defs>
     <use xlink:href="#Pretendard-Regular-32c9"/>
    </g>
   </g>
   <g id="text_2">
    <!-- ★ -->
    <g style="fill: #333333" transform="translate(48.922609 74.489224) scale(0.13 -0.13)">
     <defs>
      <path id="Pretendard-Regular-34ca" d="M 1306 -200 
L 3075 1094 
L 4856 -200 
L 4175 1894 
L 5944 3175 
L 3756 3175 
L 3075 5256 
L 2400 3175 
L 213 3175 
L 1988 1894 
L 1306 -200 
z
" transform="scale(0.015625)"/>
     </defs>
     <use xlink:href="#Pretendard-Regular-34ca"/>
    </g>
   </g>
   <g id="text_3">
    <!-- 0 -->
    <g style="fill: #8a8a8a" transform="translate(78.581331 74.489224) scale(0.13 -0.13)">
     <use xlink:href="#Pretendard-Regular-32c9"/>
    </g>
   </g>
   <g id="text_4">
    <!-- 0 -->
    <g style="fill: #8a8a8a" transform="translate(105.84724 74.489224) scale(0.13 -0.13)">
     <use xlink:href="#Pretendard-Regular-32c9"/>
    </g>
   </g>
   <g id="text_5">
    <!-- ★ -->
    <g style="fill: #333333" transform="translate(130.720337 74.489224) scale(0.13 -0.13)">
     <use xlink:href="#Pretendard-Regular-34ca"/>
    </g>
   </g>
   <g id="text_6">
    <!-- 0 -->
    <g style="fill: #8a8a8a" transform="translate(160.379058 74.489224) scale(0.13 -0.13)">
     <use xlink:href="#Pretendard-Regular-32c9"/>
    </g>
   </g>
   <g id="text_7">
    <!-- ★ -->
    <g style="fill: #333333" transform="translate(185.252155 74.489224) scale(0.13 -0.13)">
     <use xlink:href="#Pretendard-Regular-34ca"/>
    </g>
   </g>
   <g id="text_8">
    <!-- 0 -->
    <g style="fill: #8a8a8a" transform="translate(214.910876 74.489224) scale(0.13 -0.13)">
     <use xlink:href="#Pretendard-Regular-32c9"/>
    </g>
   </g>
   <g id="text_9">
    <!-- ★ -->
    <g style="fill: #333333" transform="translate(239.777879 74.489224) scale(0.13 -0.13)">
     <defs>
      <path id="Pretendard-Bold-34ca" d="M 1256 -269 
L 3081 1063 
L 4913 -269 
L 4213 1881 
L 6038 3206 
L 3781 3206 
L 3081 5344 
L 2388 3206 
L 138 3206 
L 1963 1881 
L 1256 -269 
z
" transform="scale(0.015625)"/>
     </defs>
     <use xlink:href="#Pretendard-Bold-34ca"/>
    </g>
   </g>
   <g id="text_10">
    <!-- 0 -->
    <g style="fill: #8a8a8a" transform="translate(269.442695 74.489224) scale(0.13 -0.13)">
     <use xlink:href="#Pretendard-Regular-32c9"/>
    </g>
   </g>
   <g id="text_11">
    <!-- 0 -->
    <g style="fill: #8a8a8a" transform="translate(296.708604 74.489224) scale(0.13 -0.13)">
     <use xlink:href="#Pretendard-Regular-32c9"/>
    </g>
   </g>
   <g id="text_12">
    <!-- ★ -->
    <g style="fill: #333333" transform="translate(321.5817 74.489224) scale(0.13 -0.13)">
     <use xlink:href="#Pretendard-Regular-34ca"/>
    </g>
   </g>
   <g id="text_13">
    <!-- 0 -->
    <g style="fill: #8a8a8a" transform="translate(351.240422 74.489224) scale(0.13 -0.13)">
     <use xlink:href="#Pretendard-Regular-32c9"/>
    </g>
   </g>
   <g id="text_14">
    <!-- 0 -->
    <g style="fill: #8a8a8a" transform="translate(378.506331 74.489224) scale(0.13 -0.13)">
     <use xlink:href="#Pretendard-Regular-32c9"/>
    </g>
   </g>
   <g id="text_15">
    <!-- ★ -->
    <g style="fill: #333333" transform="translate(403.379428 74.489224) scale(0.13 -0.13)">
     <use xlink:href="#Pretendard-Regular-34ca"/>
    </g>
   </g>
   <g id="text_16">
    <!-- ★ -->
    <g style="fill: #333333" transform="translate(430.645337 74.489224) scale(0.13 -0.13)">
     <use xlink:href="#Pretendard-Regular-34ca"/>
    </g>
   </g>
   <g id="text_17">
    <!-- 0 -->
    <g style="fill: #8a8a8a" transform="translate(460.304058 74.489224) scale(0.13 -0.13)">
     <use xlink:href="#Pretendard-Regular-32c9"/>
    </g>
   </g>
   <g id="patch_19">
    <path d="M 246.049364 23.78008 
Q 246.049364 33.372342 246.049364 42.964605 
" style="fill: none; stroke: #bdbdbd; stroke-width: 0.9; stroke-linecap: round"/>
   </g>
   <g id="text_18">
    <!-- 이웃 8명(양옆 4명씩) -->
    <g style="fill: #333333" transform="translate(201.616317 17.243478) scale(0.105 -0.105)">
     <defs>
      <path id="Pretendard-Regular-2174" d="M 4806 5050 
L 4313 5050 
L 4313 -519 
L 4806 -519 
L 4806 5050 
z
M 1850 4619 
C 1019 4613 431 3863 431 2681 
C 431 1500 1019 750 1850 750 
C 2675 750 3269 1500 3269 2681 
C 3269 3863 2675 4613 1850 4619 
z
M 1850 4181 
C 2406 4175 2794 3588 2794 2681 
C 2794 1775 2406 1188 1850 1188 
C 1294 1188 906 1775 906 2681 
C 906 3588 1294 4175 1850 4181 
z
" transform="scale(0.015625)"/>
      <path id="Pretendard-Regular-20c3" d="M 5306 2513 
L 225 2513 
L 225 2088 
L 2506 2088 
L 2506 1481 
L 2988 1481 
L 2988 2088 
L 5306 2088 
L 5306 2513 
z
M 2994 1050 
L 2994 1231 
L 2494 1231 
L 2494 1050 
C 2494 444 1588 -6 594 -106 
L 756 -481 
C 1628 -388 2413 -44 2744 488 
C 3075 -50 3866 -388 4744 -481 
L 4900 -106 
C 3894 -6 2994 438 2994 1050 
z
M 2756 4956 
C 1538 4956 788 4594 788 3944 
C 788 3300 1538 2925 2756 2931 
C 3975 2925 4719 3300 4719 3944 
C 4719 4594 3975 4956 2756 4956 
z
M 2756 4581 
C 3656 4588 4219 4344 4219 3944 
C 4219 3550 3656 3313 2756 3313 
C 1850 3313 1288 3550 1294 3944 
C 1288 4344 1850 4588 2756 4581 
z
" transform="scale(0.015625)"/>
      <path id="Pretendard-Regular-2" transform="scale(0.015625)"/>
      <path id="Pretendard-Regular-32d1" d="M 1938 -63 
C 2881 -63 3544 463 3550 1200 
C 3544 1788 3138 2269 2625 2350 
L 2625 2375 
C 3069 2481 3369 2894 3375 3388 
C 3369 4081 2763 4588 1938 4588 
C 1113 4588 506 4081 506 3388 
C 506 2894 800 2481 1250 2375 
L 1250 2350 
C 731 2269 325 1788 331 1200 
C 325 463 988 -63 1938 -63 
z
M 1938 431 
C 1288 431 881 756 894 1231 
C 881 1731 1331 2100 1938 2100 
C 2544 2100 2988 1731 2988 1231 
C 2988 756 2588 431 1938 431 
z
M 1938 2575 
C 1419 2575 1050 2888 1050 3344 
C 1050 3794 1400 4100 1938 4100 
C 2469 4100 2825 3794 2825 3344 
C 2825 2888 2450 2575 1938 2575 
z
" transform="scale(0.015625)"/>
      <path id="Pretendard-Regular-1485" d="M 4831 5050 
L 4338 5050 
L 4338 4144 
L 3038 4144 
L 3038 4625 
L 488 4625 
L 488 2156 
L 3038 2156 
L 3038 2631 
L 4338 2631 
L 4338 1756 
L 4831 1756 
L 4831 5050 
z
M 975 4225 
L 2556 4225 
L 2556 2556 
L 975 2556 
L 975 4225 
z
M 2988 1594 
C 1831 1594 1125 1213 1125 544 
C 1125 -119 1831 -494 2988 -494 
C 4144 -494 4850 -119 4850 544 
C 4850 1213 4144 1594 2988 1594 
z
M 2988 1213 
C 3838 1206 4363 963 4363 544 
C 4363 144 3838 -106 2988 -106 
C 2138 -106 1606 144 1613 544 
C 1606 963 2138 1206 2988 1213 
z
M 3038 3044 
L 3038 3738 
L 4338 3738 
L 4338 3044 
L 3038 3044 
z
" transform="scale(0.015625)"/>
      <path id="Pretendard-Regular-33d1" d="M 569 1725 
C 575 544 894 -438 1469 -1275 
L 1944 -1275 
C 1519 -656 1125 613 1125 1725 
C 1125 2838 1519 4100 1944 4719 
L 1469 4719 
C 894 3888 575 2906 569 1725 
z
" transform="scale(0.015625)"/>
      <path id="Pretendard-Regular-1f91" d="M 5394 4206 
L 4569 4206 
L 4569 5050 
L 4081 5050 
L 4081 1750 
L 4569 1750 
L 4569 2613 
L 5394 2613 
L 5394 3025 
L 4569 3025 
L 4569 3800 
L 5394 3800 
L 5394 4206 
z
M 1788 4713 
C 944 4719 325 4181 331 3406 
C 325 2631 944 2106 1788 2100 
C 2631 2106 3244 2631 3250 3406 
C 3244 4181 2631 4719 1788 4713 
z
M 1788 4294 
C 2356 4300 2769 3931 2769 3406 
C 2769 2881 2356 2519 1788 2513 
C 1225 2519 806 2881 813 3406 
C 806 3931 1225 4300 1788 4294 
z
M 2788 1581 
C 1650 1575 944 1200 944 538 
C 944 -113 1650 -494 2788 -494 
C 3919 -494 4619 -113 4619 538 
C 4619 1200 3919 1575 2788 1581 
z
M 2788 1181 
C 3631 1181 4144 944 4144 538 
C 4144 138 3631 -100 2788 -100 
C 1950 -100 1431 138 1438 538 
C 1431 944 1950 1181 2788 1181 
z
" transform="scale(0.015625)"/>
      <path id="Pretendard-Regular-2006" d="M 4831 5050 
L 4338 5050 
L 4338 4275 
L 2875 4275 
C 2619 4559 2222 4728 1756 4725 
C 913 4731 313 4200 313 3431 
C 313 2669 913 2150 1756 2150 
C 2222 2150 2616 2316 2875 2594 
L 4338 2594 
L 4338 1919 
L 4831 1919 
L 4831 5050 
z
M 1756 4313 
C 2306 4319 2719 3950 2719 3431 
C 2719 2919 2306 2556 1756 2556 
C 1188 2556 781 2919 781 3431 
C 781 3950 1188 4319 1756 4313 
z
M 4875 1650 
L 1119 1650 
L 1119 1250 
L 1925 1250 
L 1925 -19 
L 1063 -19 
L 1063 -419 
L 4944 -419 
L 4944 -19 
L 4075 -19 
L 4075 1250 
L 4875 1250 
L 4875 1650 
z
M 2406 -19 
L 2406 1250 
L 3588 1250 
L 3588 -19 
L 2406 -19 
z
M 3119 3869 
L 4338 3869 
L 4338 3006 
L 3125 3006 
C 3169 3138 3194 3278 3194 3431 
C 3194 3588 3166 3734 3119 3869 
z
" transform="scale(0.015625)"/>
      <path id="Pretendard-Regular-32cd" d="M 313 925 
L 2506 925 
L 2506 0 
L 3044 0 
L 3044 925 
L 3675 925 
L 3675 1419 
L 3044 1419 
L 3044 4525 
L 2350 4525 
L 313 1388 
L 313 925 
z
M 919 1419 
L 919 1456 
L 2450 3813 
L 2506 3813 
L 2506 1419 
L 919 1419 
z
" transform="scale(0.015625)"/>
      <path id="Pretendard-Regular-1f29" d="M 4869 1488 
L 1056 1488 
L 1056 1094 
L 4381 1094 
L 4381 -506 
L 4869 -506 
L 4869 1488 
z
M 4869 5050 
L 4381 5050 
L 4381 1781 
L 4869 1781 
L 4869 5050 
z
M 1531 4125 
L 1531 4713 
L 1063 4713 
L 1063 4125 
C 1063 3588 831 2800 188 2425 
L 463 2069 
C 888 2322 1147 2753 1294 3213 
C 1413 2741 1650 2278 2081 2013 
C 2503 2278 2741 2725 2869 3194 
C 3006 2728 3269 2313 3706 2069 
L 3975 2425 
C 3331 2769 3088 3519 3088 4125 
L 3088 4713 
L 2625 4713 
L 2625 4125 
C 2625 3669 2506 3019 2088 2588 
C 1650 3031 1531 3697 1531 4125 
z
" transform="scale(0.015625)"/>
      <path id="Pretendard-Regular-33d2" d="M 1613 1725 
C 1606 2906 1288 3888 713 4719 
L 238 4719 
C 663 4100 1056 2838 1056 1725 
C 1056 613 663 -656 238 -1275 
L 713 -1275 
C 1288 -438 1606 544 1613 1725 
z
" transform="scale(0.015625)"/>
     </defs>
     <use xlink:href="#Pretendard-Regular-2174"/>
     <use xlink:href="#Pretendard-Regular-20c3" transform="translate(86.421875 0)"/>
     <use xlink:href="#Pretendard-Regular-2" transform="translate(172.84375 0)"/>
     <use xlink:href="#Pretendard-Regular-32d1" transform="translate(197.9375 0)"/>
     <use xlink:href="#Pretendard-Regular-1485" transform="translate(258.578125 0)"/>
     <use xlink:href="#Pretendard-Regular-33d1" transform="translate(345 0)"/>
     <use xlink:href="#Pretendard-Regular-1f91" transform="translate(379.078125 0)"/>
     <use xlink:href="#Pretendard-Regular-2006" transform="translate(465.5 0)"/>
     <use xlink:href="#Pretendard-Regular-2" transform="translate(551.921875 0)"/>
     <use xlink:href="#Pretendard-Regular-32cd" transform="translate(577.015625 0)"/>
     <use xlink:href="#Pretendard-Regular-1485" transform="translate(639.421875 0)"/>
     <use xlink:href="#Pretendard-Regular-1f29" transform="translate(725.84375 0)"/>
     <use xlink:href="#Pretendard-Regular-33d2" transform="translate(812.265625 0)"/>
    </g>
   </g>
   <g id="text_19">
    <!-- 나(★) — 이웃 8명 중 같은 색 3명 &lt; 4명 → 불만 → 최소 요구가 -->
    <g style="fill: #0f87a8" transform="translate(114.230887 114.413301) scale(0.105 -0.105)">
     <defs>
      <path id="Pretendard-Regular-a98" d="M 5425 2831 
L 4525 2831 
L 4525 5050 
L 4038 5050 
L 4038 -506 
L 4525 -506 
L 4525 2419 
L 5425 2419 
L 5425 2831 
z
M 944 4500 
L 456 4500 
L 456 906 
L 900 906 
C 1744 906 2606 963 3563 1156 
L 3500 1575 
C 2584 1384 1756 1322 944 1319 
L 944 4500 
z
" transform="scale(0.015625)"/>
      <path id="Pretendard-Regular-33c6" d="M 6175 2506 
L -50 2506 
L -50 2013 
L 6175 2013 
L 6175 2506 
z
" transform="scale(0.015625)"/>
      <path id="Pretendard-Regular-2311" d="M 5288 2450 
L 225 2450 
L 225 2044 
L 2513 2044 
L 2513 1450 
C 1453 1406 838 1063 838 475 
C 838 -144 1550 -494 2756 -494 
C 3950 -494 4663 -144 4669 475 
C 4663 1063 4044 1406 2994 1450 
L 2994 2044 
L 5288 2044 
L 5288 2450 
z
M 2756 1075 
C 3638 1069 4175 850 4175 475 
C 4175 106 3638 -113 2756 -113 
C 1863 -113 1331 106 1338 475 
C 1331 850 1863 1069 2756 1075 
z
M 4838 4788 
L 688 4788 
L 688 4388 
L 2438 4388 
C 2400 3763 1475 3278 513 3175 
L 688 2788 
C 1603 2897 2453 3303 2756 3925 
C 3063 3303 3916 2897 4825 2788 
L 5006 3175 
C 4025 3278 3106 3763 3075 4388 
L 4838 4388 
L 4838 4788 
z
" transform="scale(0.015625)"/>
      <path id="Pretendard-Regular-619" d="M 4569 5050 
L 4081 5050 
L 4081 2075 
L 4569 2075 
L 4569 3344 
L 5406 3344 
L 5406 3750 
L 4569 3750 
L 4569 5050 
z
M 3075 4656 
L 481 4656 
L 481 4256 
L 2531 4256 
C 2450 3381 1659 2678 244 2369 
L 450 1969 
C 2088 2344 3069 3269 3075 4656 
z
M 4594 1825 
L 1050 1825 
L 1050 -431 
L 4725 -431 
L 4725 -50 
L 1544 -50 
L 1544 525 
L 4531 525 
L 4531 900 
L 1544 900 
L 1544 1450 
L 4594 1450 
L 4594 1825 
z
" transform="scale(0.015625)"/>
      <path id="Pretendard-Regular-2140" d="M 5288 2119 
L 225 2119 
L 225 1719 
L 5288 1719 
L 5288 2119 
z
M 4725 25 
L 1375 25 
L 1375 1231 
L 881 1231 
L 881 -388 
L 4725 -388 
L 4725 25 
z
M 2756 4850 
C 1550 4856 788 4444 788 3750 
C 788 3056 1550 2644 2756 2644 
C 3950 2644 4719 3056 4719 3750 
C 4719 4444 3950 4856 2756 4850 
z
M 2756 4456 
C 3644 4456 4219 4188 4219 3750 
C 4219 3313 3644 3044 2756 3044 
C 1863 3044 1288 3313 1294 3750 
C 1288 4188 1863 4456 2756 4456 
z
" transform="scale(0.015625)"/>
      <path id="Pretendard-Regular-1ac9" d="M 1881 3963 
L 1881 4706 
L 1413 4706 
L 1413 3963 
C 1413 3331 963 2600 231 2275 
L 500 1894 
C 1044 2138 1444 2609 1650 3150 
C 1847 2656 2231 2250 2756 2031 
L 3019 2413 
C 2306 2694 1881 3331 1881 3963 
z
M 4944 5044 
L 4475 5044 
L 4475 3594 
L 3738 3594 
L 3738 4944 
L 3275 4944 
L 3275 1719 
L 3738 1719 
L 3738 3181 
L 4475 3181 
L 4475 1688 
L 4944 1688 
L 4944 5044 
z
M 4944 1381 
L 1200 1381 
L 1200 975 
L 4463 975 
L 4463 -506 
L 4944 -506 
L 4944 1381 
z
" transform="scale(0.015625)"/>
      <path id="Pretendard-Regular-32cc" d="M 1988 -63 
C 2888 -63 3569 488 3563 1231 
C 3569 1806 3206 2225 2619 2319 
L 2619 2350 
C 3094 2481 3394 2863 3388 3375 
C 3394 4025 2869 4588 2006 4588 
C 1200 4588 538 4106 506 3388 
L 1050 3388 
C 1075 3831 1519 4100 2000 4100 
C 2513 4100 2844 3794 2844 3344 
C 2844 2875 2463 2569 1913 2569 
L 1544 2569 
L 1544 2075 
L 1913 2075 
C 2619 2075 3013 1725 3013 1231 
C 3013 763 2575 438 1981 438 
C 1444 438 1013 706 981 1138 
L 413 1138 
C 444 419 1088 -63 1988 -63 
z
" transform="scale(0.015625)"/>
      <path id="Pretendard-Regular-3632" d="M 581 2006 
L 3438 563 
L 3438 1144 
L 1275 2175 
L 1275 2213 
L 3438 3250 
L 3438 3831 
L 581 2381 
L 581 2006 
z
" transform="scale(0.015625)"/>
      <path id="Pretendard-Regular-3686" d="M 3288 275 
L 5275 2263 
L 3288 4250 
L 2938 3906 
L 4338 2506 
L 731 2506 
L 731 2013 
L 4338 2013 
L 2938 613 
L 3288 275 
z
" transform="scale(0.015625)"/>
      <path id="Pretendard-Regular-1788" d="M 1388 4956 
L 900 4956 
L 900 3131 
L 4625 3131 
L 4625 4956 
L 4138 4956 
L 4138 4425 
L 1388 4425 
L 1388 4956 
z
M 1388 3513 
L 1388 4050 
L 4138 4050 
L 4138 3513 
L 1388 3513 
z
M 5288 2669 
L 225 2669 
L 225 2263 
L 2506 2263 
L 2506 1719 
L 838 1719 
L 838 1344 
L 4156 1344 
L 4156 850 
L 850 850 
L 850 -444 
L 4806 -444 
L 4806 -56 
L 1338 -56 
L 1338 488 
L 4638 488 
L 4638 1719 
L 2994 1719 
L 2994 2263 
L 5288 2263 
L 5288 2669 
z
" transform="scale(0.015625)"/>
      <path id="Pretendard-Regular-13cc" d="M 3031 4544 
L 463 4544 
L 463 1988 
L 3031 1988 
L 3031 4544 
z
M 944 4144 
L 2556 4144 
L 2556 2381 
L 944 2381 
L 944 4144 
z
M 4569 5050 
L 4081 5050 
L 4081 975 
L 4569 975 
L 4569 2944 
L 5406 2944 
L 5406 3356 
L 4569 3356 
L 4569 5050 
z
M 4825 25 
L 1575 25 
L 1575 1363 
L 1094 1363 
L 1094 -388 
L 4825 -388 
L 4825 25 
z
" transform="scale(0.015625)"/>
      <path id="Pretendard-Regular-275c" d="M 2331 2119 
L 1850 2119 
L 1850 1075 
C 1272 1056 722 1053 256 1050 
L 325 644 
C 1325 644 2694 650 3963 881 
L 3925 1244 
C 3413 1169 2866 1122 2331 1100 
L 2331 2119 
z
M 3638 4319 
L 2331 4319 
L 2331 5006 
L 1850 5006 
L 1850 4319 
L 563 4319 
L 563 3913 
L 1838 3913 
C 1825 3163 1247 2553 425 2313 
L 663 1938 
C 1331 2141 1850 2584 2094 3181 
C 2341 2616 2863 2188 3531 1988 
L 3763 2375 
C 2941 2609 2344 3194 2331 3913 
L 3638 3913 
L 3638 4319 
z
M 4781 5050 
L 4294 5050 
L 4294 -519 
L 4781 -519 
L 4781 5050 
z
" transform="scale(0.015625)"/>
      <path id="Pretendard-Regular-1b8c" d="M 5313 625 
L 2981 625 
L 2981 1988 
L 2500 1988 
L 2500 625 
L 225 625 
L 225 219 
L 5313 219 
L 5313 625 
z
M 2994 4244 
L 2994 4669 
L 2481 4669 
L 2481 4244 
C 2481 3313 1394 2500 425 2331 
L 644 1925 
C 1491 2097 2378 2675 2744 3475 
C 3103 2672 3997 2097 4844 1925 
L 5063 2331 
C 4094 2500 2994 3313 2994 4244 
z
" transform="scale(0.015625)"/>
      <path id="Pretendard-Regular-2094" d="M 5313 619 
L 4050 619 
L 4050 2131 
C 4509 2378 4788 2775 4788 3269 
C 4788 4131 3944 4694 2756 4700 
C 1569 4694 725 4131 725 3269 
C 725 2766 1013 2366 1488 2119 
L 1488 619 
L 225 619 
L 225 206 
L 5313 206 
L 5313 619 
z
M 2756 4294 
C 3663 4300 4313 3888 4313 3269 
C 4313 2650 3663 2231 2756 2231 
C 1844 2231 1200 2650 1200 3269 
C 1200 3888 1844 4300 2756 4294 
z
M 1969 619 
L 1969 1938 
C 2206 1875 2472 1844 2756 1844 
C 3047 1844 3316 1878 3556 1944 
L 3556 619 
L 1969 619 
z
" transform="scale(0.015625)"/>
      <path id="Pretendard-Regular-76c" d="M 4619 4688 
L 863 4688 
L 863 4281 
L 4131 4281 
L 4131 4200 
C 4131 3684 4131 3100 3963 2300 
L 225 2300 
L 225 1894 
L 2500 1894 
L 2500 -519 
L 2994 -519 
L 2994 1894 
L 5288 1894 
L 5288 2300 
L 4463 2300 
C 4619 3100 4619 3672 4619 4200 
L 4619 4688 
z
" transform="scale(0.015625)"/>
      <path id="Pretendard-Regular-600" d="M 4525 5050 
L 4038 5050 
L 4038 -506 
L 4525 -506 
L 4525 2375 
L 5425 2375 
L 5425 2788 
L 4525 2788 
L 4525 5050 
z
M 3088 4450 
L 519 4450 
L 519 4038 
L 2594 4038 
C 2481 2722 1700 1653 263 938 
L 538 550 
C 2350 1444 3088 2875 3088 4450 
z
" transform="scale(0.015625)"/>
     </defs>
     <use xlink:href="#Pretendard-Regular-a98"/>
     <use xlink:href="#Pretendard-Regular-33d1" transform="translate(86.421875 0)"/>
     <use xlink:href="#Pretendard-Regular-34ca" transform="translate(120.5 0)"/>
     <use xlink:href="#Pretendard-Regular-33d2" transform="translate(216.890625 0)"/>
     <use xlink:href="#Pretendard-Regular-2" transform="translate(250.96875 0)"/>
     <use xlink:href="#Pretendard-Regular-33c6" transform="translate(276.0625 0)"/>
     <use xlink:href="#Pretendard-Regular-2" transform="translate(371.765625 0)"/>
     <use xlink:href="#Pretendard-Regular-2174" transform="translate(396.859375 0)"/>
     <use xlink:href="#Pretendard-Regular-20c3" transform="translate(483.28125 0)"/>
     <use xlink:href="#Pretendard-Regular-2" transform="translate(569.703125 0)"/>
     <use xlink:href="#Pretendard-Regular-32d1" transform="translate(594.796875 0)"/>
     <use xlink:href="#Pretendard-Regular-1485" transform="translate(655.4375 0)"/>
     <use xlink:href="#Pretendard-Regular-2" transform="translate(741.859375 0)"/>
     <use xlink:href="#Pretendard-Regular-2311" transform="translate(766.953125 0)"/>
     <use xlink:href="#Pretendard-Regular-2" transform="translate(853.375 0)"/>
     <use xlink:href="#Pretendard-Regular-619" transform="translate(878.46875 0)"/>
     <use xlink:href="#Pretendard-Regular-2140" transform="translate(964.890625 0)"/>
     <use xlink:href="#Pretendard-Regular-2" transform="translate(1051.3125 0)"/>
     <use xlink:href="#Pretendard-Regular-1ac9" transform="translate(1076.40625 0)"/>
     <use xlink:href="#Pretendard-Regular-2" transform="translate(1162.828125 0)"/>
     <use xlink:href="#Pretendard-Regular-32cc" transform="translate(1187.921875 0)"/>
     <use xlink:href="#Pretendard-Regular-1485" transform="translate(1249.640625 0)"/>
     <use xlink:href="#Pretendard-Regular-2" transform="translate(1336.0625 0)"/>
     <use xlink:href="#Pretendard-Regular-3632" transform="translate(1361.15625 0)"/>
     <use xlink:href="#Pretendard-Regular-2" transform="translate(1423.859375 0)"/>
     <use xlink:href="#Pretendard-Regular-32cd" transform="translate(1448.953125 0)"/>
     <use xlink:href="#Pretendard-Regular-1485" transform="translate(1511.359375 0)"/>
     <use xlink:href="#Pretendard-Regular-2" transform="translate(1597.78125 0)"/>
     <use xlink:href="#Pretendard-Regular-3686" transform="translate(1622.875 0)"/>
     <use xlink:href="#Pretendard-Regular-2" transform="translate(1714.1875 0)"/>
     <use xlink:href="#Pretendard-Regular-1788" transform="translate(1739.28125 0)"/>
     <use xlink:href="#Pretendard-Regular-13cc" transform="translate(1825.703125 0)"/>
     <use xlink:href="#Pretendard-Regular-2" transform="translate(1912.125 0)"/>
     <use xlink:href="#Pretendard-Regular-3686" transform="translate(1937.21875 0)"/>
     <use xlink:href="#Pretendard-Regular-2" transform="translate(2028.53125 0)"/>
     <use xlink:href="#Pretendard-Regular-275c" transform="translate(2053.625 0)"/>
     <use xlink:href="#Pretendard-Regular-1b8c" transform="translate(2140.046875 0)"/>
     <use xlink:href="#Pretendard-Regular-2" transform="translate(2226.46875 0)"/>
     <use xlink:href="#Pretendard-Regular-2094" transform="translate(2251.5625 0)"/>
     <use xlink:href="#Pretendard-Regular-76c" transform="translate(2337.984375 0)"/>
     <use xlink:href="#Pretendard-Regular-600" transform="translate(2424.40625 0)"/>
    </g>
    <!-- 채워지는 가장 가까운 자리로 이동 -->
    <g style="fill: #0f87a8" transform="translate(177.259598 126.938448) scale(0.105 -0.105)">
     <defs>
      <path id="Pretendard-Regular-2644" d="M 1850 3344 
L 1850 3600 
L 2919 3600 
L 2919 4006 
L 1856 4006 
L 1856 4844 
L 1388 4844 
L 1388 4006 
L 313 4006 
L 313 3600 
L 1388 3600 
L 1388 3344 
C 1381 2425 931 1456 181 1019 
L 475 656 
C 1028 981 1425 1600 1625 2313 
C 1828 1641 2228 1072 2781 769 
L 3069 1138 
C 2306 1544 1850 2456 1850 3344 
z
M 5000 5050 
L 4525 5050 
L 4525 2800 
L 3769 2800 
L 3769 4931 
L 3300 4931 
L 3300 -225 
L 3769 -225 
L 3769 2381 
L 4525 2381 
L 4525 -506 
L 5000 -506 
L 5000 5050 
z
" transform="scale(0.015625)"/>
      <path id="Pretendard-Regular-20cc" d="M 4825 5044 
L 4325 5044 
L 4325 1244 
L 3044 1244 
L 3044 869 
L 4325 869 
L 4325 -513 
L 4825 -513 
L 4825 5044 
z
M 200 2119 
L 269 1700 
C 716 1700 1222 1703 1756 1725 
L 1756 -338 
L 2250 -338 
L 2250 1750 
C 2803 1781 3375 1838 3925 1931 
L 3894 2300 
C 2669 2125 1263 2119 200 2119 
z
M 2031 4769 
C 1200 4769 625 4325 625 3675 
C 625 3013 1200 2588 2031 2588 
C 2856 2588 3431 3013 3431 3675 
C 3431 4325 2856 4769 2031 4769 
z
M 2031 4388 
C 2575 4388 2969 4094 2969 3675 
C 2969 3250 2575 2969 2031 2969 
C 1469 2969 1081 3250 1088 3675 
C 1081 4094 1469 4388 2031 4388 
z
" transform="scale(0.015625)"/>
      <path id="Pretendard-Regular-23c0" d="M 2213 3344 
L 2213 4069 
L 3538 4069 
L 3538 4475 
L 406 4475 
L 406 4069 
L 1719 4069 
L 1719 3344 
C 1713 2381 1019 1331 225 950 
L 519 563 
C 1153 881 1713 1591 1975 2406 
C 2231 1638 2794 997 3444 700 
L 3719 1088 
C 2900 1444 2213 2400 2213 3344 
z
M 4806 5050 
L 4313 5050 
L 4313 -506 
L 4806 -506 
L 4806 5050 
z
" transform="scale(0.015625)"/>
      <path id="Pretendard-Regular-c94" d="M 4719 3363 
L 1400 3363 
L 1400 4844 
L 913 4844 
L 913 2969 
L 4719 2969 
L 4719 3363 
z
M 5306 2213 
L 219 2213 
L 219 1813 
L 5306 1813 
L 5306 2213 
z
M 4750 38 
L 1369 38 
L 1369 1244 
L 881 1244 
L 881 -369 
L 4750 -369 
L 4750 38 
z
" transform="scale(0.015625)"/>
      <path id="Pretendard-Regular-21a5" d="M 2106 3994 
L 2106 4231 
L 3356 4231 
L 3356 4638 
L 356 4638 
L 356 4231 
L 1625 4231 
L 1625 3994 
C 1619 3194 1038 2475 206 2194 
L 456 1800 
C 1122 2041 1634 2538 1875 3175 
C 2113 2616 2597 2172 3238 1963 
L 3469 2350 
C 2650 2619 2106 3269 2106 3994 
z
M 4569 5050 
L 4081 5050 
L 4081 1694 
L 4569 1694 
L 4569 3219 
L 5406 3219 
L 5406 3631 
L 4569 3631 
L 4569 5050 
z
M 2788 1544 
C 1644 1544 944 1169 944 531 
C 944 -119 1644 -494 2788 -494 
C 3931 -494 4619 -119 4619 531 
C 4619 1169 3931 1544 2788 1544 
z
M 2788 1150 
C 3631 1150 4144 919 4144 531 
C 4144 131 3631 -100 2788 -100 
C 1950 -100 1431 131 1438 531 
C 1431 919 1950 1150 2788 1150 
z
" transform="scale(0.015625)"/>
      <path id="Pretendard-Regular-84c" d="M 4625 5050 
L 4131 5050 
L 4131 -506 
L 4625 -506 
L 4625 2344 
L 5469 2344 
L 5469 2756 
L 4625 2756 
L 4625 5050 
z
M 1913 4444 
L 381 4444 
L 381 4031 
L 1450 4031 
C 1384 2925 1047 1891 206 1031 
L 600 750 
C 1606 1819 1906 3119 1913 4444 
z
M 3438 4444 
L 2088 4444 
L 2088 4031 
L 2975 4031 
C 2931 2872 2669 1638 1800 656 
L 2200 381 
C 3238 1594 3431 3125 3438 4444 
z
" transform="scale(0.015625)"/>
      <path id="Pretendard-Regular-20b4" d="M 5306 2225 
L 219 2225 
L 219 1819 
L 2556 1819 
L 2556 681 
L 3050 681 
L 3050 1819 
L 5306 1819 
L 5306 2225 
z
M 4738 31 
L 1369 31 
L 1369 1238 
L 875 1238 
L 875 -388 
L 4738 -388 
L 4738 31 
z
M 2756 4906 
C 1569 4900 794 4475 794 3788 
C 794 3100 1569 2681 2756 2681 
C 3944 2681 4713 3100 4713 3788 
C 4713 4475 3944 4900 2756 4906 
z
M 2756 4506 
C 3619 4506 4194 4231 4194 3788 
C 4194 3356 3619 3081 2756 3081 
C 1894 3081 1313 3356 1319 3788 
C 1313 4231 1894 4506 2756 4506 
z
" transform="scale(0.015625)"/>
      <path id="Pretendard-Regular-2190" d="M 2106 3344 
L 2106 4069 
L 3356 4069 
L 3356 4475 
L 331 4475 
L 331 4069 
L 1625 4069 
L 1625 3344 
C 1619 2394 931 1338 131 950 
L 431 563 
C 1053 881 1613 1600 1869 2419 
C 2116 1666 2644 1003 3269 700 
L 3550 1088 
C 2744 1469 2100 2450 2106 3344 
z
M 4525 5050 
L 4038 5050 
L 4038 -506 
L 4525 -506 
L 4525 2381 
L 5456 2381 
L 5456 2800 
L 4525 2800 
L 4525 5050 
z
" transform="scale(0.015625)"/>
      <path id="Pretendard-Regular-13ac" d="M 4813 5050 
L 4325 5050 
L 4325 -519 
L 4813 -519 
L 4813 5050 
z
M 3125 4531 
L 538 4531 
L 538 4125 
L 2631 4125 
L 2631 2956 
L 550 2956 
L 550 831 
L 1013 831 
C 1969 831 2813 869 3838 1031 
L 3788 1444 
C 2794 1284 1972 1244 1050 1244 
L 1050 2556 
L 3125 2556 
L 3125 4531 
z
" transform="scale(0.015625)"/>
      <path id="Pretendard-Regular-125c" d="M 5313 594 
L 2994 594 
L 2994 1644 
L 4800 1644 
L 4800 2050 
L 1350 2050 
L 1350 2956 
L 4669 2956 
L 4669 4638 
L 850 4638 
L 850 4231 
L 4188 4231 
L 4188 3356 
L 863 3356 
L 863 1644 
L 2513 1644 
L 2513 594 
L 225 594 
L 225 181 
L 5313 181 
L 5313 594 
z
" transform="scale(0.015625)"/>
      <path id="Pretendard-Regular-dd9" d="M 5294 2300 
L 2994 2300 
L 2994 2950 
L 4700 2950 
L 4700 3350 
L 1350 3350 
L 1350 4394 
L 4663 4394 
L 4663 4788 
L 869 4788 
L 869 2950 
L 2519 2950 
L 2519 2300 
L 225 2300 
L 225 1906 
L 5294 1906 
L 5294 2300 
z
M 2756 1500 
C 1556 1500 838 1138 838 500 
C 838 -144 1556 -500 2756 -506 
C 3950 -500 4663 -144 4669 500 
C 4663 1138 3950 1500 2756 1500 
z
M 2756 1113 
C 3638 1113 4175 881 4175 500 
C 4175 113 3638 -113 2756 -113 
C 1863 -113 1331 113 1338 500 
C 1331 881 1863 1113 2756 1113 
z
" transform="scale(0.015625)"/>
     </defs>
     <use xlink:href="#Pretendard-Regular-2644"/>
     <use xlink:href="#Pretendard-Regular-20cc" transform="translate(86.421875 0)"/>
     <use xlink:href="#Pretendard-Regular-23c0" transform="translate(172.84375 0)"/>
     <use xlink:href="#Pretendard-Regular-c94" transform="translate(259.265625 0)"/>
     <use xlink:href="#Pretendard-Regular-2" transform="translate(345.6875 0)"/>
     <use xlink:href="#Pretendard-Regular-600" transform="translate(370.78125 0)"/>
     <use xlink:href="#Pretendard-Regular-21a5" transform="translate(457.203125 0)"/>
     <use xlink:href="#Pretendard-Regular-2" transform="translate(543.625 0)"/>
     <use xlink:href="#Pretendard-Regular-600" transform="translate(568.71875 0)"/>
     <use xlink:href="#Pretendard-Regular-84c" transform="translate(655.140625 0)"/>
     <use xlink:href="#Pretendard-Regular-20b4" transform="translate(741.5625 0)"/>
     <use xlink:href="#Pretendard-Regular-2" transform="translate(827.984375 0)"/>
     <use xlink:href="#Pretendard-Regular-2190" transform="translate(853.078125 0)"/>
     <use xlink:href="#Pretendard-Regular-13ac" transform="translate(939.5 0)"/>
     <use xlink:href="#Pretendard-Regular-125c" transform="translate(1025.921875 0)"/>
     <use xlink:href="#Pretendard-Regular-2" transform="translate(1112.34375 0)"/>
     <use xlink:href="#Pretendard-Regular-2174" transform="translate(1137.4375 0)"/>
     <use xlink:href="#Pretendard-Regular-dd9" transform="translate(1223.859375 0)"/>
    </g>
   </g>
  </g>
 </g>
 <defs>
  <clipPath id="pf38df9e91b">
   <rect x="7.2" y="7.2" width="479.88" height="138.6"/>
  </clipPath>
 </defs>
</svg>
