<?xml version="1.0" encoding="utf-8" standalone="no"?>
<!DOCTYPE svg PUBLIC "-//W3C//DTD SVG 1.1//EN"
  "http://www.w3.org/Graphics/SVG/1.1/DTD/svg11.dtd">
<svg xmlns:xlink="http://www.w3.org/1999/xlink" width="411.941582pt" height="298.386916pt" viewBox="0 0 411.941582 298.386916" xmlns="http://www.w3.org/2000/svg" version="1.1">
 <metadata>
  <rdf:RDF xmlns:dc="http://purl.org/dc/elements/1.1/" xmlns:cc="http://creativecommons.org/ns#" xmlns:rdf="http://www.w3.org/1999/02/22-rdf-syntax-ns#">
   <cc:Work>
    <dc:type rdf:resource="http://purl.org/dc/dcmitype/StillImage"/>
    <dc:date>2026-07-19T12:00:42.725784</dc:date>
    <dc:format>image/svg+xml</dc:format>
    <dc:creator>
     <cc:Agent>
      <dc:title>Matplotlib v3.11.1, https://matplotlib.org/</dc:title>
     </cc:Agent>
    </dc:creator>
   </cc:Work>
  </rdf:RDF>
 </metadata>
 <defs>
  <style type="text/css">*{stroke-linejoin: round; stroke-linecap: butt}</style>
 </defs>
 <g id="figure_1">
  <g id="patch_1">
   <path d="M 0 298.386916 
L 411.941582 298.386916 
L 411.941582 0 
L 0 0 
z
" style="fill: #ffffff"/>
  </g>
  <g id="axes_1">
   <g id="patch_2">
    <path d="M 47.621582 257.943752 
L 404.741582 257.943752 
L 404.741582 25.095752 
L 47.621582 25.095752 
z
" style="fill: #ffffff"/>
   </g>
   <g id="matplotlib.axis_1">
    <g id="xtick_1">
     <g id="line2d_1">
      <defs>
       <path id="m63bb753245" d="M 0 0 
L 0 3.5 
" style="stroke: #333333; stroke-width: 0.8"/>
      </defs>
      <g>
       <use xlink:href="#m63bb753245" x="129.558205" y="257.943752" style="fill: #333333; stroke: #333333; stroke-width: 0.8"/>
      </g>
     </g>
     <g id="text_1">
      <!-- 무작위 배치 -->
      <g style="fill: #333333" transform="translate(104.412034 275.412014) scale(0.11 -0.11)">
       <defs>
        <path id="Pretendard-Regular-1534" d="M 5306 1819 
L 219 1819 
L 219 1413 
L 2506 1413 
L 2506 -506 
L 2988 -506 
L 2988 1413 
L 5306 1413 
L 5306 1819 
z
M 4644 4738 
L 875 4738 
L 875 2575 
L 4644 2575 
L 4644 4738 
z
M 1356 4338 
L 4156 4338 
L 4156 2963 
L 1356 2963 
L 1356 4338 
z
" transform="scale(0.015625)"/>
        <path id="Pretendard-Regular-2191" d="M 2106 4019 
L 2106 4256 
L 3356 4256 
L 3356 4656 
L 356 4656 
L 356 4256 
L 1625 4256 
L 1625 4019 
C 1619 3225 1038 2506 206 2213 
L 469 1831 
C 1122 2072 1631 2563 1869 3194 
C 2106 2619 2591 2163 3225 1938 
L 3475 2319 
C 2650 2606 2106 3281 2106 4019 
z
M 4569 5050 
L 4081 5050 
L 4081 1700 
L 4569 1700 
L 4569 3163 
L 5406 3163 
L 5406 3581 
L 4569 3581 
L 4569 5050 
z
M 4569 1406 
L 931 1406 
L 931 1006 
L 4081 1006 
L 4081 -506 
L 4569 -506 
L 4569 1406 
z
" transform="scale(0.015625)"/>
        <path id="Pretendard-Regular-2104" d="M 2056 4775 
C 1225 4781 631 4325 631 3644 
C 631 2969 1225 2500 2056 2506 
C 2888 2500 3481 2969 3481 3644 
C 3481 4325 2888 4781 2056 4775 
z
M 2056 4375 
C 2619 4381 3013 4075 3013 3644 
C 3013 3206 2619 2906 2056 2913 
C 1500 2906 1106 3206 1113 3644 
C 1106 4075 1500 4381 2056 4375 
z
M 4806 5044 
L 4325 5044 
L 4325 -513 
L 4806 -513 
L 4806 5044 
z
M 213 2031 
L 281 1613 
C 744 1616 1278 1619 1844 1644 
L 1844 -338 
L 2331 -338 
L 2331 1675 
C 2866 1706 3419 1766 3950 1863 
L 3919 2231 
C 2681 2050 1256 2031 213 2031 
z
" transform="scale(0.015625)"/>
        <path id="Pretendard-Regular-2" transform="scale(0.015625)"/>
        <path id="Pretendard-Regular-1630" d="M 900 4519 
L 431 4519 
L 431 881 
L 2563 881 
L 2563 4519 
L 2106 4519 
L 2106 3163 
L 900 3163 
L 900 4519 
z
M 900 1288 
L 900 2763 
L 2106 2763 
L 2106 1288 
L 900 1288 
z
M 4988 5050 
L 4513 5050 
L 4513 2844 
L 3738 2844 
L 3738 4931 
L 3269 4931 
L 3269 -225 
L 3738 -225 
L 3738 2438 
L 4513 2438 
L 4513 -506 
L 4988 -506 
L 4988 5050 
z
" transform="scale(0.015625)"/>
        <path id="Pretendard-Regular-2858" d="M 4806 5050 
L 4313 5050 
L 4313 -506 
L 4806 -506 
L 4806 5050 
z
M 2275 3238 
L 2275 3681 
L 3569 3681 
L 3569 4081 
L 2275 4081 
L 2275 4944 
L 1788 4944 
L 1788 4081 
L 488 4081 
L 488 3681 
L 1794 3681 
L 1794 3238 
C 1794 2263 1163 1325 338 950 
L 613 569 
C 1253 872 1794 1513 2044 2294 
C 2303 1556 2847 953 3488 669 
L 3763 1050 
C 2925 1406 2275 2306 2275 3238 
z
" transform="scale(0.015625)"/>
       </defs>
       <use xlink:href="#Pretendard-Regular-1534"/>
       <use xlink:href="#Pretendard-Regular-2191" transform="translate(86.421875 0)"/>
       <use xlink:href="#Pretendard-Regular-2104" transform="translate(172.84375 0)"/>
       <use xlink:href="#Pretendard-Regular-2" transform="translate(259.265625 0)"/>
       <use xlink:href="#Pretendard-Regular-1630" transform="translate(284.359375 0)"/>
       <use xlink:href="#Pretendard-Regular-2858" transform="translate(370.78125 0)"/>
      </g>
      <!-- (규칙이 돌기 전) -->
      <g style="fill: #333333" transform="translate(94.53008 288.533596) scale(0.11 -0.11)">
       <defs>
        <path id="Pretendard-Regular-33d1" d="M 569 1725 
C 575 544 894 -438 1469 -1275 
L 1944 -1275 
C 1519 -656 1125 613 1125 1725 
C 1125 2838 1519 4100 1944 4719 
L 1469 4719 
C 894 3888 575 2906 569 1725 
z
" transform="scale(0.015625)"/>
        <path id="Pretendard-Regular-7dc" d="M 4588 4688 
L 875 4688 
L 875 4281 
L 4113 4281 
L 4113 4263 
C 4113 3766 4113 3138 3931 2263 
L 225 2263 
L 225 1856 
L 1550 1856 
L 1550 -506 
L 2038 -506 
L 2038 1856 
L 3463 1856 
L 3463 -506 
L 3950 -506 
L 3950 1856 
L 5288 1856 
L 5288 2263 
L 4431 2263 
C 4588 3144 4588 3763 4588 4263 
L 4588 4688 
z
" transform="scale(0.015625)"/>
        <path id="Pretendard-Regular-2859" d="M 2244 3825 
L 2244 3963 
L 3519 3963 
L 3519 4369 
L 2250 4369 
L 2250 5075 
L 1756 5075 
L 1756 4369 
L 475 4369 
L 475 3963 
L 1756 3963 
L 1756 3825 
C 1756 3063 1169 2388 338 2106 
L 581 1719 
C 1247 1947 1766 2422 2013 3038 
C 2259 2469 2781 2031 3438 1831 
L 3675 2213 
C 2850 2469 2244 3106 2244 3825 
z
M 4813 5050 
L 4325 5050 
L 4325 1631 
L 4813 1631 
L 4813 5050 
z
M 4813 1344 
L 1075 1344 
L 1075 944 
L 4325 944 
L 4325 -506 
L 4813 -506 
L 4813 1344 
z
" transform="scale(0.015625)"/>
        <path id="Pretendard-Regular-2174" d="M 4806 5050 
L 4313 5050 
L 4313 -519 
L 4806 -519 
L 4806 5050 
z
M 1850 4619 
C 1019 4613 431 3863 431 2681 
C 431 1500 1019 750 1850 750 
C 2675 750 3269 1500 3269 2681 
C 3269 3863 2675 4613 1850 4619 
z
M 1850 4181 
C 2406 4175 2794 3588 2794 2681 
C 2794 1775 2406 1188 1850 1188 
C 1294 1188 906 1775 906 2681 
C 906 3588 1294 4175 1850 4181 
z
" transform="scale(0.015625)"/>
        <path id="Pretendard-Regular-dcc" d="M 4688 3556 
L 1394 3556 
L 1394 4425 
L 4631 4425 
L 4631 4831 
L 900 4831 
L 900 3163 
L 2513 3163 
L 2513 2625 
L 225 2625 
L 225 2225 
L 5288 2225 
L 5288 2625 
L 3000 2625 
L 3000 3163 
L 4688 3163 
L 4688 3556 
z
M 4638 1750 
L 838 1750 
L 838 1375 
L 4156 1375 
L 4156 875 
L 850 875 
L 850 -444 
L 4806 -444 
L 4806 -50 
L 1338 -50 
L 1338 513 
L 4638 513 
L 4638 1750 
z
" transform="scale(0.015625)"/>
        <path id="Pretendard-Regular-830" d="M 4819 5050 
L 4325 5050 
L 4325 -506 
L 4819 -506 
L 4819 5050 
z
M 3175 4444 
L 550 4444 
L 550 4044 
L 2675 4044 
C 2563 2716 1797 1650 294 938 
L 563 538 
C 2425 1431 3169 2844 3175 4444 
z
" transform="scale(0.015625)"/>
        <path id="Pretendard-Regular-2204" d="M 4831 5044 
L 4338 5044 
L 4338 3506 
L 3194 3506 
L 3194 3100 
L 4338 3100 
L 4338 969 
L 4831 969 
L 4831 5044 
z
M 4988 25 
L 1756 25 
L 1756 1338 
L 1263 1338 
L 1263 -388 
L 4988 -388 
L 4988 25 
z
M 2156 3900 
L 2156 4188 
L 3400 4188 
L 3400 4594 
L 406 4594 
L 406 4188 
L 1663 4188 
L 1663 3900 
C 1663 3100 1069 2369 250 2081 
L 506 1681 
C 1166 1928 1678 2441 1919 3081 
C 2156 2506 2641 2038 3269 1813 
L 3525 2206 
C 2713 2481 2156 3181 2156 3900 
z
" transform="scale(0.015625)"/>
        <path id="Pretendard-Regular-33d2" d="M 1613 1725 
C 1606 2906 1288 3888 713 4719 
L 238 4719 
C 663 4100 1056 2838 1056 1725 
C 1056 613 663 -656 238 -1275 
L 713 -1275 
C 1288 -438 1606 544 1613 1725 
z
" transform="scale(0.015625)"/>
       </defs>
       <use xlink:href="#Pretendard-Regular-33d1"/>
       <use xlink:href="#Pretendard-Regular-7dc" transform="translate(34.078125 0)"/>
       <use xlink:href="#Pretendard-Regular-2859" transform="translate(120.5 0)"/>
       <use xlink:href="#Pretendard-Regular-2174" transform="translate(206.921875 0)"/>
       <use xlink:href="#Pretendard-Regular-2" transform="translate(293.34375 0)"/>
       <use xlink:href="#Pretendard-Regular-dcc" transform="translate(318.4375 0)"/>
       <use xlink:href="#Pretendard-Regular-830" transform="translate(404.859375 0)"/>
       <use xlink:href="#Pretendard-Regular-2" transform="translate(491.28125 0)"/>
       <use xlink:href="#Pretendard-Regular-2204" transform="translate(516.375 0)"/>
       <use xlink:href="#Pretendard-Regular-33d2" transform="translate(602.796875 0)"/>
      </g>
     </g>
    </g>
    <g id="xtick_2">
     <g id="line2d_2">
      <g>
       <use xlink:href="#m63bb753245" x="322.804959" y="257.943752" style="fill: #333333; stroke: #333333; stroke-width: 0.8"/>
      </g>
     </g>
     <g id="text_2">
      <!-- 균형 도달 -->
      <g style="fill: #333333" transform="translate(302.41199 275.412014) scale(0.11 -0.11)">
       <defs>
        <path id="Pretendard-Regular-7e0" d="M 4644 4744 
L 869 4744 
L 869 4344 
L 4156 4344 
L 4156 4325 
C 4156 3881 4156 3366 4025 2663 
L 225 2663 
L 225 2256 
L 1913 2256 
L 1913 913 
L 2394 913 
L 2394 2256 
L 3413 2256 
L 3413 913 
L 3888 913 
L 3888 2256 
L 5313 2256 
L 5313 2663 
L 4513 2663 
C 4644 3359 4644 3881 4644 4325 
L 4644 4744 
z
M 4794 25 
L 1338 25 
L 1338 1350 
L 850 1350 
L 850 -388 
L 4794 -388 
L 4794 25 
z
" transform="scale(0.015625)"/>
        <path id="Pretendard-Regular-3015" d="M 3375 4425 
L 2069 4425 
L 2069 5094 
L 1581 5094 
L 1581 4425 
L 231 4425 
L 231 4025 
L 3375 4025 
L 3375 4425 
z
M 1819 3738 
C 1069 3738 556 3331 563 2713 
C 556 2088 1069 1681 1819 1681 
C 2563 1681 3088 2088 3088 2713 
C 3088 3331 2563 3738 1819 3738 
z
M 1819 3369 
C 2300 3363 2625 3100 2631 2713 
C 2625 2319 2300 2063 1819 2063 
C 1338 2063 1019 2319 1019 2713 
C 1019 3100 1338 3363 1819 3369 
z
M 4831 5050 
L 4338 5050 
L 4338 3713 
L 3375 3713 
L 3375 3306 
L 4338 3306 
L 4338 2631 
L 3369 2631 
L 3369 2225 
L 4338 2225 
L 4338 1456 
L 4831 1456 
L 4831 5050 
z
M 3000 1400 
C 1831 1400 1131 1056 1131 450 
C 1131 -144 1831 -494 3000 -494 
C 4156 -494 4863 -144 4863 450 
C 4863 1056 4156 1400 3000 1400 
z
M 3000 1019 
C 3831 1019 4344 813 4344 450 
C 4344 100 3831 -113 3000 -113 
C 2156 -113 1638 100 1638 450 
C 1638 813 2156 1019 3000 1019 
z
" transform="scale(0.015625)"/>
        <path id="Pretendard-Regular-dc4" d="M 4713 2444 
L 1369 2444 
L 1369 4194 
L 4656 4194 
L 4656 4594 
L 875 4594 
L 875 2044 
L 2513 2044 
L 2513 606 
L 225 606 
L 225 194 
L 5313 194 
L 5313 606 
L 2994 606 
L 2994 2044 
L 4713 2044 
L 4713 2444 
z
" transform="scale(0.015625)"/>
        <path id="Pretendard-Regular-cec" d="M 2950 4725 
L 481 4725 
L 481 2463 
L 913 2463 
C 2056 2456 2738 2488 3531 2656 
L 3469 3050 
C 2706 2897 2050 2856 963 2863 
L 963 4325 
L 2950 4325 
L 2950 4725 
z
M 4569 5050 
L 4081 5050 
L 4081 2244 
L 4569 2244 
L 4569 3463 
L 5406 3463 
L 5406 3869 
L 4569 3869 
L 4569 5050 
z
M 4569 1969 
L 1025 1969 
L 1025 1569 
L 4081 1569 
L 4081 988 
L 1038 988 
L 1038 -431 
L 4775 -431 
L 4775 -31 
L 1519 -31 
L 1519 600 
L 4569 600 
L 4569 1969 
z
" transform="scale(0.015625)"/>
       </defs>
       <use xlink:href="#Pretendard-Regular-7e0"/>
       <use xlink:href="#Pretendard-Regular-3015" transform="translate(86.421875 0)"/>
       <use xlink:href="#Pretendard-Regular-2" transform="translate(172.84375 0)"/>
       <use xlink:href="#Pretendard-Regular-dc4" transform="translate(197.9375 0)"/>
       <use xlink:href="#Pretendard-Regular-cec" transform="translate(284.359375 0)"/>
      </g>
      <!-- (규칙이 돈 후) -->
      <g style="fill: #333333" transform="translate(292.530037 288.533596) scale(0.11 -0.11)">
       <defs>
        <path id="Pretendard-Regular-dc8" d="M 5294 2119 
L 3000 2119 
L 3000 2850 
L 4713 2850 
L 4713 3250 
L 1356 3250 
L 1356 4356 
L 4663 4356 
L 4663 4763 
L 869 4763 
L 869 2850 
L 2513 2850 
L 2513 2119 
L 225 2119 
L 225 1719 
L 5294 1719 
L 5294 2119 
z
M 4756 25 
L 1369 25 
L 1369 1213 
L 881 1213 
L 881 -388 
L 4756 -388 
L 4756 25 
z
" transform="scale(0.015625)"/>
        <path id="Pretendard-Regular-30c4" d="M 4994 4413 
L 2994 4413 
L 2994 5081 
L 2513 5081 
L 2513 4413 
L 488 4413 
L 488 4006 
L 4994 4006 
L 4994 4413 
z
M 5313 1450 
L 225 1450 
L 225 1044 
L 2513 1044 
L 2513 -519 
L 2994 -519 
L 2994 1044 
L 5313 1044 
L 5313 1450 
z
M 2756 3688 
C 1619 3688 938 3356 944 2756 
C 938 2169 1619 1838 2756 1831 
C 3888 1838 4569 2169 4569 2756 
C 4569 3356 3888 3688 2756 3688 
z
M 2756 3313 
C 3575 3313 4056 3106 4063 2756 
C 4056 2413 3575 2213 2756 2213 
C 1925 2213 1444 2413 1450 2756 
C 1444 3106 1925 3313 2756 3313 
z
" transform="scale(0.015625)"/>
       </defs>
       <use xlink:href="#Pretendard-Regular-33d1"/>
       <use xlink:href="#Pretendard-Regular-7dc" transform="translate(34.078125 0)"/>
       <use xlink:href="#Pretendard-Regular-2859" transform="translate(120.5 0)"/>
       <use xlink:href="#Pretendard-Regular-2174" transform="translate(206.921875 0)"/>
       <use xlink:href="#Pretendard-Regular-2" transform="translate(293.34375 0)"/>
       <use xlink:href="#Pretendard-Regular-dc8" transform="translate(318.4375 0)"/>
       <use xlink:href="#Pretendard-Regular-2" transform="translate(404.859375 0)"/>
       <use xlink:href="#Pretendard-Regular-30c4" transform="translate(429.953125 0)"/>
       <use xlink:href="#Pretendard-Regular-33d2" transform="translate(516.375 0)"/>
      </g>
     </g>
    </g>
   </g>
   <g id="matplotlib.axis_2">
    <g id="ytick_1">
     <g id="line2d_3">
      <path d="M 47.621582 257.943752 
L 404.741582 257.943752 
" clip-path="url(#pfb699ef7c8)" style="fill: none; stroke: #eeeeee; stroke-width: 0.8; stroke-linecap: square"/>
     </g>
     <g id="line2d_4">
      <defs>
       <path id="mc89930df7d" d="M 0 0 
L -3.5 0 
" style="stroke: #333333; stroke-width: 0.8"/>
      </defs>
      <g>
       <use xlink:href="#mc89930df7d" x="47.621582" y="257.943752" style="fill: #333333; stroke: #333333; stroke-width: 0.8"/>
      </g>
     </g>
     <g id="text_3">
      <!-- 0 -->
      <g style="fill: #333333" transform="translate(34.66377 262.702053) scale(0.1 -0.1)">
       <defs>
        <path id="Pretendard-Regular-32c9" d="M 1906 -63 
C 2906 -63 3488 781 3488 2263 
C 3488 3731 2900 4588 1906 4588 
C 913 4588 325 3731 325 2263 
C 325 781 900 -63 1906 -63 
z
M 1906 438 
C 1250 438 869 1094 869 2263 
C 869 3431 1256 4100 1906 4100 
C 2556 4100 2938 3431 2938 2263 
C 2938 1094 2556 438 1906 438 
z
" transform="scale(0.015625)"/>
       </defs>
       <use xlink:href="#Pretendard-Regular-32c9"/>
      </g>
     </g>
    </g>
    <g id="ytick_2">
     <g id="line2d_5">
      <path d="M 47.621582 211.374152 
L 404.741582 211.374152 
" clip-path="url(#pfb699ef7c8)" style="fill: none; stroke: #eeeeee; stroke-width: 0.8; stroke-linecap: square"/>
     </g>
     <g id="line2d_6">
      <g>
       <use xlink:href="#mc89930df7d" x="47.621582" y="211.374152" style="fill: #333333; stroke: #333333; stroke-width: 0.8"/>
      </g>
     </g>
     <g id="text_4">
      <!-- 20 -->
      <g style="fill: #333333" transform="translate(28.79502 216.132453) scale(0.1 -0.1)">
       <defs>
        <path id="Pretendard-Regular-32cb" d="M 425 0 
L 3363 0 
L 3363 500 
L 1206 500 
L 1206 538 
L 2244 1606 
C 3044 2431 3281 2825 3281 3331 
C 3281 4038 2694 4588 1875 4588 
C 1056 4588 438 4050 444 3250 
L 975 3250 
C 975 3756 1319 4100 1856 4100 
C 2363 4100 2756 3794 2756 3331 
C 2756 2913 2500 2606 1963 2038 
L 419 413 
L 425 0 
z
" transform="scale(0.015625)"/>
       </defs>
       <use xlink:href="#Pretendard-Regular-32cb"/>
       <use xlink:href="#Pretendard-Regular-32c9" transform="translate(58.6875 0)"/>
      </g>
     </g>
    </g>
    <g id="ytick_3">
     <g id="line2d_7">
      <path d="M 47.621582 164.804552 
L 404.741582 164.804552 
" clip-path="url(#pfb699ef7c8)" style="fill: none; stroke: #eeeeee; stroke-width: 0.8; stroke-linecap: square"/>
     </g>
     <g id="line2d_8">
      <g>
       <use xlink:href="#mc89930df7d" x="47.621582" y="164.804552" style="fill: #333333; stroke: #333333; stroke-width: 0.8"/>
      </g>
     </g>
     <g id="text_5">
      <!-- 40 -->
      <g style="fill: #333333" transform="translate(28.423145 169.562853) scale(0.1 -0.1)">
       <defs>
        <path id="Pretendard-Regular-32cd" d="M 313 925 
L 2506 925 
L 2506 0 
L 3044 0 
L 3044 925 
L 3675 925 
L 3675 1419 
L 3044 1419 
L 3044 4525 
L 2350 4525 
L 313 1388 
L 313 925 
z
M 919 1419 
L 919 1456 
L 2450 3813 
L 2506 3813 
L 2506 1419 
L 919 1419 
z
" transform="scale(0.015625)"/>
       </defs>
       <use xlink:href="#Pretendard-Regular-32cd"/>
       <use xlink:href="#Pretendard-Regular-32c9" transform="translate(62.40625 0)"/>
      </g>
     </g>
    </g>
    <g id="ytick_4">
     <g id="line2d_9">
      <path d="M 47.621582 118.234952 
L 404.741582 118.234952 
" clip-path="url(#pfb699ef7c8)" style="fill: none; stroke: #eeeeee; stroke-width: 0.8; stroke-linecap: square"/>
     </g>
     <g id="line2d_10">
      <g>
       <use xlink:href="#mc89930df7d" x="47.621582" y="118.234952" style="fill: #333333; stroke: #333333; stroke-width: 0.8"/>
      </g>
     </g>
     <g id="text_6">
      <!-- 60 -->
      <g style="fill: #333333" transform="translate(28.530957 122.993253) scale(0.1 -0.1)">
       <defs>
        <path id="Pretendard-Regular-32cf" d="M 2000 -63 
C 2950 -69 3575 613 3575 1463 
C 3575 2338 2906 2963 2100 2963 
C 1613 2963 1200 2738 938 2363 
L 881 2363 
C 881 3450 1325 4088 2069 4088 
C 2575 4088 2875 3788 2981 3388 
L 3538 3388 
C 3419 4100 2863 4588 2069 4588 
C 1006 4588 350 3688 350 2088 
C 350 413 1213 -50 2000 -63 
z
M 2000 431 
C 1394 431 956 919 956 1450 
C 963 1988 1419 2469 2013 2469 
C 2606 2469 3025 2013 3031 1456 
C 3025 894 2588 431 2000 431 
z
" transform="scale(0.015625)"/>
       </defs>
       <use xlink:href="#Pretendard-Regular-32cf"/>
       <use xlink:href="#Pretendard-Regular-32c9" transform="translate(61.328125 0)"/>
      </g>
     </g>
    </g>
    <g id="ytick_5">
     <g id="line2d_11">
      <path d="M 47.621582 71.665352 
L 404.741582 71.665352 
" clip-path="url(#pfb699ef7c8)" style="fill: none; stroke: #eeeeee; stroke-width: 0.8; stroke-linecap: square"/>
     </g>
     <g id="line2d_12">
      <g>
       <use xlink:href="#mc89930df7d" x="47.621582" y="71.665352" style="fill: #333333; stroke: #333333; stroke-width: 0.8"/>
      </g>
     </g>
     <g id="text_7">
      <!-- 80 -->
      <g style="fill: #333333" transform="translate(28.599707 76.423653) scale(0.1 -0.1)">
       <defs>
        <path id="Pretendard-Regular-32d1" d="M 1938 -63 
C 2881 -63 3544 463 3550 1200 
C 3544 1788 3138 2269 2625 2350 
L 2625 2375 
C 3069 2481 3369 2894 3375 3388 
C 3369 4081 2763 4588 1938 4588 
C 1113 4588 506 4081 506 3388 
C 506 2894 800 2481 1250 2375 
L 1250 2350 
C 731 2269 325 1788 331 1200 
C 325 463 988 -63 1938 -63 
z
M 1938 431 
C 1288 431 881 756 894 1231 
C 881 1731 1331 2100 1938 2100 
C 2544 2100 2988 1731 2988 1231 
C 2988 756 2588 431 1938 431 
z
M 1938 2575 
C 1419 2575 1050 2888 1050 3344 
C 1050 3794 1400 4100 1938 4100 
C 2469 4100 2825 3794 2825 3344 
C 2825 2888 2450 2575 1938 2575 
z
" transform="scale(0.015625)"/>
       </defs>
       <use xlink:href="#Pretendard-Regular-32d1"/>
       <use xlink:href="#Pretendard-Regular-32c9" transform="translate(60.640625 0)"/>
      </g>
     </g>
    </g>
    <g id="ytick_6">
     <g id="line2d_13">
      <path d="M 47.621582 25.095752 
L 404.741582 25.095752 
" clip-path="url(#pfb699ef7c8)" style="fill: none; stroke: #eeeeee; stroke-width: 0.8; stroke-linecap: square"/>
     </g>
     <g id="line2d_14">
      <g>
       <use xlink:href="#mc89930df7d" x="47.621582" y="25.095752" style="fill: #333333; stroke: #333333; stroke-width: 0.8"/>
      </g>
     </g>
     <g id="text_8">
      <!-- 100 -->
      <g style="fill: #333333" transform="translate(24.321582 29.854053) scale(0.1 -0.1)">
       <defs>
        <path id="Pretendard-Regular-32ca" d="M 2025 4525 
L 1456 4525 
L 331 3775 
L 331 3206 
L 1431 3938 
L 1456 3938 
L 1456 0 
L 2025 0 
L 2025 4525 
z
" transform="scale(0.015625)"/>
       </defs>
       <use xlink:href="#Pretendard-Regular-32ca"/>
       <use xlink:href="#Pretendard-Regular-32c9" transform="translate(43.84375 0)"/>
       <use xlink:href="#Pretendard-Regular-32c9" transform="translate(103.421875 0)"/>
      </g>
     </g>
    </g>
    <g id="text_9">
     <!-- 이웃 중 같은 색 비율 (%) -->
     <g style="fill: #333333" transform="translate(17.668262 194.937643) rotate(-90) scale(0.11 -0.11)">
      <defs>
       <path id="Pretendard-Regular-20c3" d="M 5306 2513 
L 225 2513 
L 225 2088 
L 2506 2088 
L 2506 1481 
L 2988 1481 
L 2988 2088 
L 5306 2088 
L 5306 2513 
z
M 2994 1050 
L 2994 1231 
L 2494 1231 
L 2494 1050 
C 2494 444 1588 -6 594 -106 
L 756 -481 
C 1628 -388 2413 -44 2744 488 
C 3075 -50 3866 -388 4744 -481 
L 4900 -106 
C 3894 -6 2994 438 2994 1050 
z
M 2756 4956 
C 1538 4956 788 4594 788 3944 
C 788 3300 1538 2925 2756 2931 
C 3975 2925 4719 3300 4719 3944 
C 4719 4594 3975 4956 2756 4956 
z
M 2756 4581 
C 3656 4588 4219 4344 4219 3944 
C 4219 3550 3656 3313 2756 3313 
C 1850 3313 1288 3550 1294 3944 
C 1288 4344 1850 4588 2756 4581 
z
" transform="scale(0.015625)"/>
       <path id="Pretendard-Regular-2311" d="M 5288 2450 
L 225 2450 
L 225 2044 
L 2513 2044 
L 2513 1450 
C 1453 1406 838 1063 838 475 
C 838 -144 1550 -494 2756 -494 
C 3950 -494 4663 -144 4669 475 
C 4663 1063 4044 1406 2994 1450 
L 2994 2044 
L 5288 2044 
L 5288 2450 
z
M 2756 1075 
C 3638 1069 4175 850 4175 475 
C 4175 106 3638 -113 2756 -113 
C 1863 -113 1331 106 1338 475 
C 1331 850 1863 1069 2756 1075 
z
M 4838 4788 
L 688 4788 
L 688 4388 
L 2438 4388 
C 2400 3763 1475 3278 513 3175 
L 688 2788 
C 1603 2897 2453 3303 2756 3925 
C 3063 3303 3916 2897 4825 2788 
L 5006 3175 
C 4025 3278 3106 3763 3075 4388 
L 4838 4388 
L 4838 4788 
z
" transform="scale(0.015625)"/>
       <path id="Pretendard-Regular-619" d="M 4569 5050 
L 4081 5050 
L 4081 2075 
L 4569 2075 
L 4569 3344 
L 5406 3344 
L 5406 3750 
L 4569 3750 
L 4569 5050 
z
M 3075 4656 
L 481 4656 
L 481 4256 
L 2531 4256 
C 2450 3381 1659 2678 244 2369 
L 450 1969 
C 2088 2344 3069 3269 3075 4656 
z
M 4594 1825 
L 1050 1825 
L 1050 -431 
L 4725 -431 
L 4725 -50 
L 1544 -50 
L 1544 525 
L 4531 525 
L 4531 900 
L 1544 900 
L 1544 1450 
L 4594 1450 
L 4594 1825 
z
" transform="scale(0.015625)"/>
       <path id="Pretendard-Regular-2140" d="M 5288 2119 
L 225 2119 
L 225 1719 
L 5288 1719 
L 5288 2119 
z
M 4725 25 
L 1375 25 
L 1375 1231 
L 881 1231 
L 881 -388 
L 4725 -388 
L 4725 25 
z
M 2756 4850 
C 1550 4856 788 4444 788 3750 
C 788 3056 1550 2644 2756 2644 
C 3950 2644 4719 3056 4719 3750 
C 4719 4444 3950 4856 2756 4850 
z
M 2756 4456 
C 3644 4456 4219 4188 4219 3750 
C 4219 3313 3644 3044 2756 3044 
C 1863 3044 1288 3313 1294 3750 
C 1288 4188 1863 4456 2756 4456 
z
" transform="scale(0.015625)"/>
       <path id="Pretendard-Regular-1ac9" d="M 1881 3963 
L 1881 4706 
L 1413 4706 
L 1413 3963 
C 1413 3331 963 2600 231 2275 
L 500 1894 
C 1044 2138 1444 2609 1650 3150 
C 1847 2656 2231 2250 2756 2031 
L 3019 2413 
C 2306 2694 1881 3331 1881 3963 
z
M 4944 5044 
L 4475 5044 
L 4475 3594 
L 3738 3594 
L 3738 4944 
L 3275 4944 
L 3275 1719 
L 3738 1719 
L 3738 3181 
L 4475 3181 
L 4475 1688 
L 4944 1688 
L 4944 5044 
z
M 4944 1381 
L 1200 1381 
L 1200 975 
L 4463 975 
L 4463 -506 
L 4944 -506 
L 4944 1381 
z
" transform="scale(0.015625)"/>
       <path id="Pretendard-Regular-1844" d="M 4806 5050 
L 4313 5050 
L 4313 -519 
L 4806 -519 
L 4806 5050 
z
M 1038 4575 
L 550 4575 
L 550 825 
L 3175 825 
L 3175 4575 
L 2694 4575 
L 2694 3106 
L 1038 3106 
L 1038 4575 
z
M 1038 1238 
L 1038 2713 
L 2694 2713 
L 2694 1238 
L 1038 1238 
z
" transform="scale(0.015625)"/>
       <path id="Pretendard-Regular-2128" d="M 2756 4981 
C 1519 4981 788 4638 788 4019 
C 788 3394 1519 3056 2756 3050 
C 3994 3056 4719 3394 4719 4019 
C 4719 4638 3994 4981 2756 4981 
z
M 2756 4606 
C 3675 4600 4219 4388 4219 4019 
C 4219 3638 3675 3431 2756 3425 
C 1831 3431 1294 3638 1300 4019 
C 1294 4388 1831 4600 2756 4606 
z
M 5288 2713 
L 225 2713 
L 225 2313 
L 1606 2313 
L 1606 1763 
L 838 1763 
L 838 1388 
L 4156 1388 
L 4156 881 
L 850 881 
L 850 -444 
L 4806 -444 
L 4806 -56 
L 1338 -56 
L 1338 519 
L 4638 519 
L 4638 1763 
L 3875 1763 
L 3875 2313 
L 5288 2313 
L 5288 2713 
z
M 2088 1763 
L 2088 2313 
L 3388 2313 
L 3388 1763 
L 2088 1763 
z
" transform="scale(0.015625)"/>
       <path id="Pretendard-Regular-3623" d="M 1381 2425 
C 1963 2425 2288 2863 2288 3513 
C 2288 4150 1975 4594 1381 4594 
C 806 4594 475 4150 475 3513 
C 475 2863 794 2425 1381 2425 
z
M 1381 2813 
C 1081 2813 931 3088 931 3513 
C 931 3931 1081 4206 1381 4206 
C 1700 4213 1831 3931 1831 3513 
C 1831 3088 1688 2813 1381 2813 
z
M 4144 -63 
C 4719 -69 5044 375 5044 1019 
C 5044 1663 4731 2106 4144 2106 
C 3569 2106 3231 1663 3238 1019 
C 3231 375 3556 -69 4144 -63 
z
M 4144 325 
C 3838 325 3688 600 3688 1019 
C 3688 1444 3844 1713 4144 1719 
C 4456 1725 4588 1444 4588 1019 
C 4588 600 4444 325 4144 325 
z
M 919 0 
L 1425 0 
L 4538 4525 
L 4031 4525 
L 919 0 
z
" transform="scale(0.015625)"/>
      </defs>
      <use xlink:href="#Pretendard-Regular-2174"/>
      <use xlink:href="#Pretendard-Regular-20c3" transform="translate(86.421875 0)"/>
      <use xlink:href="#Pretendard-Regular-2" transform="translate(172.84375 0)"/>
      <use xlink:href="#Pretendard-Regular-2311" transform="translate(197.9375 0)"/>
      <use xlink:href="#Pretendard-Regular-2" transform="translate(284.359375 0)"/>
      <use xlink:href="#Pretendard-Regular-619" transform="translate(309.453125 0)"/>
      <use xlink:href="#Pretendard-Regular-2140" transform="translate(395.875 0)"/>
      <use xlink:href="#Pretendard-Regular-2" transform="translate(482.296875 0)"/>
      <use xlink:href="#Pretendard-Regular-1ac9" transform="translate(507.390625 0)"/>
      <use xlink:href="#Pretendard-Regular-2" transform="translate(593.8125 0)"/>
      <use xlink:href="#Pretendard-Regular-1844" transform="translate(618.90625 0)"/>
      <use xlink:href="#Pretendard-Regular-2128" transform="translate(705.328125 0)"/>
      <use xlink:href="#Pretendard-Regular-2" transform="translate(791.75 0)"/>
      <use xlink:href="#Pretendard-Regular-33d1" transform="translate(816.84375 0)"/>
      <use xlink:href="#Pretendard-Regular-3623" transform="translate(850.921875 0)"/>
      <use xlink:href="#Pretendard-Regular-33d2" transform="translate(937.15625 0)"/>
     </g>
    </g>
   </g>
   <g id="patch_3">
    <path d="M 63.854309 257.943752 
L 129.558205 257.943752 
L 129.558205 134.534312 
L 63.854309 134.534312 
z
" clip-path="url(#pfb699ef7c8)" style="fill: #8a8a8a"/>
   </g>
   <g id="patch_4">
    <path d="M 257.101063 257.943752 
L 322.804959 257.943752 
L 322.804959 64.679912 
L 257.101063 64.679912 
z
" clip-path="url(#pfb699ef7c8)" style="fill: #0f87a8"/>
   </g>
   <g id="patch_5">
    <path d="M 129.558205 257.943752 
L 195.262102 257.943752 
L 195.262102 150.833672 
L 129.558205 150.833672 
z
" clip-path="url(#pfb699ef7c8)" style="fill: #bdbdbd"/>
   </g>
   <g id="patch_6">
    <path d="M 322.804959 257.943752 
L 388.508855 257.943752 
L 388.508855 71.665352 
L 322.804959 71.665352 
z
" clip-path="url(#pfb699ef7c8)" style="fill: #6fb4c6"/>
   </g>
   <g id="patch_7">
    <path d="M 47.621582 257.943752 
L 47.621582 25.095752 
" style="fill: none; stroke: #333333; stroke-width: 0.8; stroke-linejoin: miter; stroke-linecap: square"/>
   </g>
   <g id="patch_8">
    <path d="M 47.621582 257.943752 
L 404.741582 257.943752 
" style="fill: none; stroke: #333333; stroke-width: 0.8; stroke-linejoin: miter; stroke-linecap: square"/>
   </g>
   <g id="text_10">
    <!-- 53% -->
    <g style="fill: #333333" transform="translate(85.805945 131.041592) scale(0.105 -0.105)">
     <defs>
      <path id="Pretendard-Regular-32ce" d="M 1900 -63 
C 2800 -63 3463 569 3463 1444 
C 3463 2325 2825 2963 1963 2963 
C 1644 2963 1338 2856 1138 2700 
L 1094 2700 
L 1263 4025 
L 3244 4025 
L 3244 4525 
L 794 4525 
L 475 2050 
L 1019 2050 
C 1188 2344 1481 2463 1863 2456 
C 2469 2450 2913 2019 2913 1431 
C 2913 863 2488 431 1900 431 
C 1413 431 1019 731 975 1138 
L 431 1138 
C 463 444 1081 -63 1900 -63 
z
" transform="scale(0.015625)"/>
      <path id="Pretendard-Regular-32cc" d="M 1988 -63 
C 2888 -63 3569 488 3563 1231 
C 3569 1806 3206 2225 2619 2319 
L 2619 2350 
C 3094 2481 3394 2863 3388 3375 
C 3394 4025 2869 4588 2006 4588 
C 1200 4588 538 4106 506 3388 
L 1050 3388 
C 1075 3831 1519 4100 2000 4100 
C 2513 4100 2844 3794 2844 3344 
C 2844 2875 2463 2569 1913 2569 
L 1544 2569 
L 1544 2075 
L 1913 2075 
C 2619 2075 3013 1725 3013 1231 
C 3013 763 2575 438 1981 438 
C 1444 438 1013 706 981 1138 
L 413 1138 
C 444 419 1088 -63 1988 -63 
z
" transform="scale(0.015625)"/>
     </defs>
     <use xlink:href="#Pretendard-Regular-32ce"/>
     <use xlink:href="#Pretendard-Regular-32cc" transform="translate(59.671875 0)"/>
     <use xlink:href="#Pretendard-Regular-3623" transform="translate(121.390625 0)"/>
    </g>
   </g>
   <g id="text_11">
    <!-- 83% -->
    <g style="fill: #333333" transform="translate(279.001839 61.187192) scale(0.105 -0.105)">
     <use xlink:href="#Pretendard-Regular-32d1"/>
     <use xlink:href="#Pretendard-Regular-32cc" transform="translate(60.640625 0)"/>
     <use xlink:href="#Pretendard-Regular-3623" transform="translate(122.359375 0)"/>
    </g>
   </g>
   <g id="text_12">
    <!-- 46% -->
    <g style="fill: #333333" transform="translate(151.386794 147.340952) scale(0.105 -0.105)">
     <use xlink:href="#Pretendard-Regular-32cd"/>
     <use xlink:href="#Pretendard-Regular-32cf" transform="translate(62.40625 0)"/>
     <use xlink:href="#Pretendard-Regular-3623" transform="translate(123.734375 0)"/>
    </g>
   </g>
   <g id="text_13">
    <!-- 80% -->
    <g style="fill: #333333" transform="translate(344.818118 68.172632) scale(0.105 -0.105)">
     <use xlink:href="#Pretendard-Regular-32d1"/>
     <use xlink:href="#Pretendard-Regular-32c9" transform="translate(60.640625 0)"/>
     <use xlink:href="#Pretendard-Regular-3623" transform="translate(120.21875 0)"/>
    </g>
   </g>
   <g id="patch_9">
    <path d="M 98.115306 133.11452 
Q 174.709022 56.496455 280.396061 70.012945 
" style="fill: none; stroke: #c4443c; stroke-width: 1.6; stroke-linecap: round"/>
    <path d="M 276.682094 67.521669 
L 280.396061 70.012945 
L 276.174661 71.489353 
" style="fill: none; stroke: #c4443c; stroke-width: 1.6; stroke-linecap: round"/>
   </g>
   <g id="text_14">
    <!-- +30%p = 규칙이 한 일 -->
    <g style="fill: #c4443c" transform="translate(174.412832 53.037512) scale(0.11 -0.11)">
     <defs>
      <path id="Pretendard-Bold-362b" d="M 1700 694 
L 2481 694 
L 2481 1863 
L 3650 1863 
L 3650 2644 
L 2481 2644 
L 2481 3813 
L 1700 3813 
L 1700 2644 
L 531 2644 
L 531 1863 
L 1700 1863 
L 1700 694 
z
" transform="scale(0.015625)"/>
      <path id="Pretendard-Bold-32cc" d="M 2031 -63 
C 3050 -63 3788 494 3781 1269 
C 3788 1831 3419 2238 2756 2319 
L 2756 2356 
C 3263 2444 3619 2806 3613 3313 
C 3619 4031 2988 4588 2044 4588 
C 1119 4588 413 4050 400 3269 
L 1300 3269 
C 1313 3613 1644 3838 2044 3838 
C 2444 3838 2706 3600 2706 3256 
C 2706 2900 2394 2656 1950 2656 
L 1531 2656 
L 1531 1963 
L 1950 1963 
C 2481 1963 2813 1700 2806 1331 
C 2813 969 2488 713 2038 713 
C 1600 713 1275 938 1256 1275 
L 306 1275 
C 325 488 1038 -63 2031 -63 
z
" transform="scale(0.015625)"/>
      <path id="Pretendard-Bold-32c9" d="M 2113 -63 
C 3244 -63 3931 775 3931 2263 
C 3931 3738 3244 4588 2113 4588 
C 981 4588 294 3744 294 2263 
C 294 781 981 -63 2113 -63 
z
M 2113 713 
C 1588 713 1250 1219 1256 2263 
C 1256 3294 1588 3819 2113 3819 
C 2638 3819 2969 3294 2969 2263 
C 2975 1219 2638 713 2113 713 
z
" transform="scale(0.015625)"/>
      <path id="Pretendard-Bold-3623" d="M 1544 2263 
C 2213 2263 2581 2750 2588 3469 
C 2581 4188 2225 4681 1544 4681 
C 881 4681 500 4188 500 3469 
C 500 2756 869 2263 1544 2263 
z
M 1544 2819 
C 1281 2819 1138 3081 1138 3469 
C 1138 3850 1275 4125 1544 4125 
C 1825 4125 1944 3856 1950 3469 
C 1944 3081 1813 2819 1544 2819 
z
M 4594 -150 
C 5269 -150 5638 338 5644 1056 
C 5638 1775 5275 2269 4594 2269 
C 3938 2269 3556 1775 3556 1056 
C 3556 344 3925 -150 4594 -150 
z
M 4594 406 
C 4338 406 4194 663 4194 1056 
C 4194 1438 4331 1706 4594 1706 
C 4881 1713 5000 1444 5006 1056 
C 5000 663 4869 406 4594 406 
z
M 1150 0 
L 1850 0 
L 4963 4525 
L 4263 4525 
L 1150 0 
z
" transform="scale(0.015625)"/>
      <path id="Pretendard-Bold-2ab" d="M 363 -1275 
L 1288 -1275 
L 1288 544 
L 1313 544 
C 1444 263 1725 -56 2281 -56 
C 3056 -56 3656 563 3656 1694 
C 3656 2856 3031 3438 2281 3438 
C 1713 3438 1438 3100 1313 2825 
L 1275 2825 
L 1275 3394 
L 363 3394 
L 363 -1275 
z
M 1269 1700 
C 1269 2313 1525 2700 1988 2700 
C 2463 2700 2713 2294 2713 1700 
C 2713 1100 2463 681 1988 681 
C 1531 681 1269 1088 1269 1700 
z
" transform="scale(0.015625)"/>
      <path id="Pretendard-Bold-2" transform="scale(0.015625)"/>
      <path id="Pretendard-Bold-3610" d="M 575 2156 
L 3613 2156 
L 3613 2925 
L 575 2925 
L 575 2156 
z
M 575 694 
L 3613 694 
L 3613 1463 
L 575 1463 
L 575 694 
z
" transform="scale(0.015625)"/>
      <path id="Pretendard-Bold-7dc" d="M 4688 4800 
L 788 4800 
L 788 4156 
L 3913 4156 
C 3900 3709 3875 3119 3731 2350 
L 169 2350 
L 169 1706 
L 1350 1706 
L 1350 -575 
L 2150 -575 
L 2150 1706 
L 3331 1706 
L 3331 -575 
L 4125 -575 
L 4125 1706 
L 5356 1706 
L 5356 2350 
L 4538 2350 
C 4688 3288 4688 3944 4688 4419 
L 4688 4800 
z
" transform="scale(0.015625)"/>
      <path id="Pretendard-Bold-2859" d="M 2381 3856 
L 2381 3888 
L 3544 3888 
L 3544 4513 
L 2388 4513 
L 2388 5138 
L 1575 5138 
L 1575 4513 
L 413 4513 
L 413 3888 
L 1575 3888 
L 1575 3856 
C 1575 3206 1156 2556 219 2281 
L 594 1663 
C 1272 1853 1738 2259 1994 2781 
C 2256 2309 2719 1938 3381 1763 
L 3750 2381 
C 2819 2625 2375 3250 2381 3856 
z
M 4931 5113 
L 4131 5113 
L 4131 1631 
L 4931 1631 
L 4931 5113 
z
M 4931 1388 
L 1019 1388 
L 1019 744 
L 4131 744 
L 4131 -575 
L 4931 -575 
L 4931 1388 
z
" transform="scale(0.015625)"/>
      <path id="Pretendard-Bold-2174" d="M 4931 5113 
L 4125 5113 
L 4125 -588 
L 4931 -588 
L 4931 5113 
z
M 1844 4713 
C 969 4713 331 3925 338 2688 
C 331 1438 969 656 1844 656 
C 2700 656 3338 1438 3338 2688 
C 3338 3925 2700 4713 1844 4713 
z
M 1844 3994 
C 2275 3994 2569 3531 2569 2688 
C 2569 1838 2275 1381 1844 1381 
C 1400 1381 1106 1838 1106 2688 
C 1106 3531 1400 3994 1844 3994 
z
" transform="scale(0.015625)"/>
      <path id="Pretendard-Bold-2f5c" d="M 4681 5106 
L 3881 5106 
L 3881 863 
L 4681 863 
L 4681 2713 
L 5450 2713 
L 5450 3363 
L 4681 3363 
L 4681 5106 
z
M 3544 4513 
L 2256 4513 
L 2256 5119 
L 1463 5119 
L 1463 4513 
L 169 4513 
L 169 3881 
L 3544 3881 
L 3544 4513 
z
M 1856 3681 
C 1025 3681 444 3238 444 2581 
C 444 1925 1025 1494 1856 1494 
C 2681 1494 3256 1925 3256 2581 
C 3256 3238 2681 3681 1856 3681 
z
M 1856 3075 
C 2238 3069 2500 2894 2500 2581 
C 2500 2269 2238 2100 1856 2100 
C 1475 2100 1219 2269 1225 2581 
C 1219 2894 1475 3069 1856 3075 
z
M 4888 163 
L 1788 163 
L 1788 1188 
L 994 1188 
L 994 -475 
L 4888 -475 
L 4888 163 
z
" transform="scale(0.015625)"/>
      <path id="Pretendard-Bold-217c" d="M 1788 4944 
C 906 4944 256 4406 256 3644 
C 256 2894 906 2350 1788 2350 
C 2650 2350 3306 2894 3306 3644 
C 3306 4406 2650 4944 1788 4944 
z
M 1788 4294 
C 2219 4294 2538 4056 2538 3644 
C 2538 3238 2219 2994 1788 2994 
C 1350 2994 1025 3238 1031 3644 
C 1025 4056 1350 4294 1788 4294 
z
M 4931 5113 
L 4131 5113 
L 4131 2263 
L 4931 2263 
L 4931 5113 
z
M 4931 2025 
L 1113 2025 
L 1113 1413 
L 4138 1413 
L 4138 1063 
L 1125 1063 
L 1125 -513 
L 5088 -513 
L 5088 113 
L 1906 113 
L 1906 481 
L 4931 481 
L 4931 2025 
z
" transform="scale(0.015625)"/>
     </defs>
     <use xlink:href="#Pretendard-Bold-362b"/>
     <use xlink:href="#Pretendard-Bold-32cc" transform="translate(64.890625 0)"/>
     <use xlink:href="#Pretendard-Bold-32c9" transform="translate(128.765625 0)"/>
     <use xlink:href="#Pretendard-Bold-3623" transform="translate(194.78125 0)"/>
     <use xlink:href="#Pretendard-Bold-2ab" transform="translate(290.78125 0)"/>
     <use xlink:href="#Pretendard-Bold-2" transform="translate(351.625 0)"/>
     <use xlink:href="#Pretendard-Bold-3610" transform="translate(374.671875 0)"/>
     <use xlink:href="#Pretendard-Bold-2" transform="translate(440 0)"/>
     <use xlink:href="#Pretendard-Bold-7dc" transform="translate(463.046875 0)"/>
     <use xlink:href="#Pretendard-Bold-2859" transform="translate(549.46875 0)"/>
     <use xlink:href="#Pretendard-Bold-2174" transform="translate(635.890625 0)"/>
     <use xlink:href="#Pretendard-Bold-2" transform="translate(722.3125 0)"/>
     <use xlink:href="#Pretendard-Bold-2f5c" transform="translate(745.359375 0)"/>
     <use xlink:href="#Pretendard-Bold-2" transform="translate(831.78125 0)"/>
     <use xlink:href="#Pretendard-Bold-217c" transform="translate(854.828125 0)"/>
    </g>
   </g>
   <g id="text_15">
    <!-- 같은 격자, 같은 138명 — 다른 것은 규칙이 돌았는지뿐 -->
    <g style="fill: #333333" transform="translate(47.621582 19.095752) scale(0.125 -0.125)">
     <defs>
      <path id="Pretendard-Bold-619" d="M 4681 5113 
L 3881 5113 
L 3881 2125 
L 4681 2125 
L 4681 3281 
L 5450 3281 
L 5450 3931 
L 4681 3931 
L 4681 5113 
z
M 3138 4725 
L 425 4725 
L 425 4100 
L 2244 4100 
C 2163 3459 1553 2894 144 2663 
L 481 2025 
C 2206 2350 3131 3225 3138 4725 
z
M 4700 1913 
L 931 1913 
L 931 -513 
L 4825 -513 
L 4825 75 
L 1731 75 
L 1731 419 
L 4644 419 
L 4644 988 
L 1731 988 
L 1731 1325 
L 4700 1325 
L 4700 1913 
z
" transform="scale(0.015625)"/>
      <path id="Pretendard-Bold-2140" d="M 5356 2206 
L 169 2206 
L 169 1569 
L 5356 1569 
L 5356 2206 
z
M 4769 163 
L 1594 163 
L 1594 1188 
L 794 1188 
L 794 -475 
L 4769 -475 
L 4769 163 
z
M 2763 4938 
C 1506 4944 688 4500 688 3775 
C 688 3050 1506 2600 2763 2600 
C 4006 2600 4825 3050 4831 3775 
C 4825 4500 4006 4944 2763 4938 
z
M 2763 4313 
C 3550 4306 4006 4119 4006 3775 
C 4006 3419 3550 3244 2763 3244 
C 1975 3244 1513 3419 1519 3775 
C 1513 4119 1975 4306 2763 4313 
z
" transform="scale(0.015625)"/>
      <path id="Pretendard-Bold-6a9" d="M 3213 4756 
L 556 4756 
L 556 4113 
L 2356 4113 
C 2231 3341 1513 2703 231 2375 
L 531 1738 
C 1756 2063 2597 2681 2981 3563 
L 4169 3563 
L 4169 2988 
L 2875 2988 
L 2875 2350 
L 4169 2350 
L 4169 1731 
L 4963 1731 
L 4963 5106 
L 4169 5106 
L 4169 4188 
L 3169 4188 
C 3197 4369 3213 4559 3213 4756 
z
M 4963 1500 
L 1056 1500 
L 1056 875 
L 4169 875 
L 4169 -563 
L 4963 -563 
L 4963 1500 
z
" transform="scale(0.015625)"/>
      <path id="Pretendard-Bold-2190" d="M 2269 3563 
L 2269 3913 
L 3413 3913 
L 3413 4563 
L 263 4563 
L 263 3913 
L 1469 3913 
L 1469 3563 
C 1463 2625 988 1569 38 1125 
L 500 494 
C 1159 803 1625 1441 1881 2194 
C 2131 1509 2584 928 3219 638 
L 3663 1263 
C 2725 1694 2263 2694 2269 3563 
z
M 4656 5113 
L 3856 5113 
L 3856 -575 
L 4656 -575 
L 4656 2275 
L 5494 2275 
L 5494 2944 
L 4656 2944 
L 4656 5113 
z
" transform="scale(0.015625)"/>
      <path id="Pretendard-Bold-335a" d="M 1369 463 
L 481 463 
L 169 -1319 
L 831 -1319 
L 1369 463 
z
" transform="scale(0.015625)"/>
      <path id="Pretendard-Bold-32ca" d="M 2306 4525 
L 1419 4525 
L 300 3813 
L 300 2981 
L 1338 3631 
L 1363 3631 
L 1363 0 
L 2306 0 
L 2306 4525 
z
" transform="scale(0.015625)"/>
      <path id="Pretendard-Bold-32d1" d="M 2056 -63 
C 3088 -63 3831 481 3831 1219 
C 3831 1788 3388 2250 2838 2338 
L 2838 2369 
C 3313 2463 3656 2869 3663 3369 
C 3656 4075 2981 4588 2056 4588 
C 1131 4588 456 4075 456 3369 
C 456 2875 794 2463 1281 2369 
L 1281 2338 
C 719 2250 281 1788 281 1219 
C 281 481 1025 -63 2056 -63 
z
M 2056 656 
C 1575 656 1256 925 1263 1313 
C 1256 1706 1594 1994 2056 1994 
C 2519 1994 2850 1706 2850 1313 
C 2850 925 2531 656 2056 656 
z
M 2056 2656 
C 1656 2656 1375 2913 1375 3275 
C 1375 3631 1650 3875 2056 3875 
C 2463 3875 2744 3625 2744 3275 
C 2744 2913 2456 2656 2056 2656 
z
" transform="scale(0.015625)"/>
      <path id="Pretendard-Bold-1485" d="M 4963 5113 
L 4169 5113 
L 4169 4281 
L 3106 4281 
L 3106 4694 
L 406 4694 
L 406 2094 
L 3106 2094 
L 3106 2506 
L 4169 2506 
L 4169 1781 
L 4963 1781 
L 4963 5113 
z
M 1200 4063 
L 2325 4063 
L 2325 2725 
L 1200 2725 
L 1200 4063 
z
M 3019 1631 
C 1806 1631 1063 1225 1063 525 
C 1063 -175 1806 -575 3019 -575 
C 4231 -575 4975 -175 4981 525 
C 4975 1225 4231 1631 3019 1631 
z
M 3019 1025 
C 3775 1025 4188 863 4188 525 
C 4188 200 3775 31 3019 31 
C 2263 31 1856 200 1856 525 
C 1856 863 2263 1025 3019 1025 
z
M 3106 3150 
L 3106 3650 
L 4169 3650 
L 4169 3150 
L 3106 3150 
z
" transform="scale(0.015625)"/>
      <path id="Pretendard-Bold-33c6" d="M 6200 2631 
L -19 2631 
L -19 1894 
L 6200 1894 
L 6200 2631 
z
" transform="scale(0.015625)"/>
      <path id="Pretendard-Bold-ce4" d="M 4656 5113 
L 3856 5113 
L 3856 -588 
L 4656 -588 
L 4656 2350 
L 5494 2350 
L 5494 3000 
L 4656 3000 
L 4656 5113 
z
M 3063 4588 
L 394 4588 
L 394 794 
L 875 794 
C 1881 788 2656 813 3538 963 
L 3450 1631 
C 2694 1497 2013 1459 1188 1450 
L 1188 3944 
L 3063 3944 
L 3063 4588 
z
" transform="scale(0.015625)"/>
      <path id="Pretendard-Bold-1378" d="M 5369 2038 
L 163 2038 
L 163 1400 
L 5369 1400 
L 5369 2038 
z
M 4863 163 
L 1619 163 
L 1619 1088 
L 819 1088 
L 819 -475 
L 4863 -475 
L 4863 163 
z
M 4738 4981 
L 800 4981 
L 800 4369 
L 3938 4369 
L 3938 3981 
L 813 3981 
L 813 2406 
L 4844 2406 
L 4844 3006 
L 1606 3006 
L 1606 3413 
L 4738 3413 
L 4738 4981 
z
" transform="scale(0.015625)"/>
      <path id="Pretendard-Bold-683" d="M 4963 5106 
L 4169 5106 
L 4169 3606 
L 3163 3606 
L 3163 2956 
L 4169 2956 
L 4169 1331 
L 4963 1331 
L 4963 5106 
z
M 3119 4675 
L 538 4675 
L 538 4044 
L 2263 4044 
C 2141 3219 1519 2588 231 2206 
L 575 1581 
C 2300 2119 3119 3138 3119 4675 
z
M 3431 1563 
L 3431 1763 
L 2644 1763 
L 2644 1563 
C 2638 913 2038 250 831 75 
L 1144 -556 
C 2038 -406 2688 -3 3038 550 
C 3375 0 4019 -403 4913 -550 
L 5231 81 
C 4031 263 3431 913 3431 1563 
z
" transform="scale(0.015625)"/>
      <path id="Pretendard-Bold-dcc" d="M 4750 3800 
L 1613 3800 
L 1613 4288 
L 4706 4288 
L 4706 4925 
L 819 4925 
L 819 3175 
L 2363 3175 
L 2363 2800 
L 169 2800 
L 169 2169 
L 5356 2169 
L 5356 2800 
L 3163 2800 
L 3163 3175 
L 4750 3175 
L 4750 3800 
z
M 4725 1863 
L 769 1863 
L 769 1275 
L 3938 1275 
L 3938 969 
L 775 969 
L 775 -531 
L 4875 -531 
L 4875 75 
L 1556 75 
L 1556 413 
L 4725 413 
L 4725 1863 
z
" transform="scale(0.015625)"/>
      <path id="Pretendard-Bold-1f58" d="M 1769 4813 
C 881 4813 206 4250 206 3438 
C 206 2631 881 2063 1769 2063 
C 2650 2063 3319 2631 3319 3438 
C 3319 4250 2650 4813 1769 4813 
z
M 1769 4144 
C 2206 4150 2538 3869 2544 3438 
C 2538 2988 2206 2731 1769 2731 
C 1325 2731 988 2988 994 3438 
C 988 3869 1319 4150 1769 4144 
z
M 4681 5113 
L 3881 5113 
L 3881 1938 
L 4681 1938 
L 4681 3238 
L 5450 3238 
L 5450 3881 
L 4681 3881 
L 4681 5113 
z
M 2169 1481 
L 2169 1694 
L 1400 1694 
L 1400 1481 
C 1400 913 1069 338 331 75 
L 725 -506 
C 1238 -322 1584 28 1788 463 
C 1969 13 2303 -363 2831 -563 
C 3347 -356 3675 34 3863 481 
C 4056 34 4409 -316 4950 -506 
L 5338 75 
C 4581 325 4269 875 4269 1481 
L 4269 1694 
L 3488 1694 
L 3488 1481 
C 3481 1056 3284 559 2819 219 
C 2356 541 2163 1016 2169 1481 
z
" transform="scale(0.015625)"/>
      <path id="Pretendard-Bold-c94" d="M 4788 3563 
L 1606 3563 
L 1606 4913 
L 813 4913 
L 813 2938 
L 4788 2938 
L 4788 3563 
z
M 5369 2325 
L 163 2325 
L 163 1700 
L 5369 1700 
L 5369 2325 
z
M 4825 188 
L 1563 188 
L 1563 1238 
L 763 1238 
L 763 -450 
L 4825 -450 
L 4825 188 
z
" transform="scale(0.015625)"/>
      <path id="Pretendard-Bold-23c0" d="M 2375 3563 
L 2375 3913 
L 3563 3913 
L 3563 4563 
L 350 4563 
L 350 3913 
L 1556 3913 
L 1556 3563 
C 1556 2600 1069 1544 125 1125 
L 581 494 
C 1250 803 1722 1428 1981 2181 
C 2234 1488 2697 922 3369 638 
L 3800 1263 
C 2844 1663 2375 2644 2375 3563 
z
M 4931 5113 
L 4125 5113 
L 4125 -575 
L 4931 -575 
L 4931 5113 
z
" transform="scale(0.015625)"/>
      <path id="Pretendard-Bold-19d0" d="M 1325 4925 
L 575 4925 
L 575 2600 
L 2594 2600 
L 2594 4925 
L 1856 4925 
L 1856 4363 
L 1325 4363 
L 1325 4925 
z
M 1325 3231 
L 1325 3756 
L 1856 3756 
L 1856 3231 
L 1325 3231 
z
M 3681 4925 
L 2925 4925 
L 2925 2600 
L 4950 2600 
L 4950 4925 
L 4194 4925 
L 4194 4363 
L 3681 4363 
L 3681 4925 
z
M 3681 3231 
L 3681 3756 
L 4194 3756 
L 4194 3231 
L 3681 3231 
z
M 5369 2181 
L 163 2181 
L 163 1556 
L 2438 1556 
L 2438 625 
L 3225 625 
L 3225 1556 
L 5369 1556 
L 5369 2181 
z
M 4794 150 
L 1563 150 
L 1563 1056 
L 775 1056 
L 775 -488 
L 4794 -488 
L 4794 150 
z
" transform="scale(0.015625)"/>
     </defs>
     <use xlink:href="#Pretendard-Bold-619"/>
     <use xlink:href="#Pretendard-Bold-2140" transform="translate(86.421875 0)"/>
     <use xlink:href="#Pretendard-Bold-2" transform="translate(172.84375 0)"/>
     <use xlink:href="#Pretendard-Bold-6a9" transform="translate(195.890625 0)"/>
     <use xlink:href="#Pretendard-Bold-2190" transform="translate(282.3125 0)"/>
     <use xlink:href="#Pretendard-Bold-335a" transform="translate(368.734375 0)"/>
     <use xlink:href="#Pretendard-Bold-2" transform="translate(394.28125 0)"/>
     <use xlink:href="#Pretendard-Bold-619" transform="translate(417.328125 0)"/>
     <use xlink:href="#Pretendard-Bold-2140" transform="translate(503.75 0)"/>
     <use xlink:href="#Pretendard-Bold-2" transform="translate(590.171875 0)"/>
     <use xlink:href="#Pretendard-Bold-32ca" transform="translate(613.21875 0)"/>
     <use xlink:href="#Pretendard-Bold-32cc" transform="translate(660.09375 0)"/>
     <use xlink:href="#Pretendard-Bold-32d1" transform="translate(723.96875 0)"/>
     <use xlink:href="#Pretendard-Bold-1485" transform="translate(788.328125 0)"/>
     <use xlink:href="#Pretendard-Bold-2" transform="translate(874.75 0)"/>
     <use xlink:href="#Pretendard-Bold-33c6" transform="translate(897.796875 0)"/>
     <use xlink:href="#Pretendard-Bold-2" transform="translate(994.375 0)"/>
     <use xlink:href="#Pretendard-Bold-ce4" transform="translate(1017.421875 0)"/>
     <use xlink:href="#Pretendard-Bold-1378" transform="translate(1103.84375 0)"/>
     <use xlink:href="#Pretendard-Bold-2" transform="translate(1190.265625 0)"/>
     <use xlink:href="#Pretendard-Bold-683" transform="translate(1213.3125 0)"/>
     <use xlink:href="#Pretendard-Bold-2140" transform="translate(1299.734375 0)"/>
     <use xlink:href="#Pretendard-Bold-2" transform="translate(1386.15625 0)"/>
     <use xlink:href="#Pretendard-Bold-7dc" transform="translate(1409.203125 0)"/>
     <use xlink:href="#Pretendard-Bold-2859" transform="translate(1495.625 0)"/>
     <use xlink:href="#Pretendard-Bold-2174" transform="translate(1582.046875 0)"/>
     <use xlink:href="#Pretendard-Bold-2" transform="translate(1668.46875 0)"/>
     <use xlink:href="#Pretendard-Bold-dcc" transform="translate(1691.515625 0)"/>
     <use xlink:href="#Pretendard-Bold-1f58" transform="translate(1777.9375 0)"/>
     <use xlink:href="#Pretendard-Bold-c94" transform="translate(1864.359375 0)"/>
     <use xlink:href="#Pretendard-Bold-23c0" transform="translate(1950.78125 0)"/>
     <use xlink:href="#Pretendard-Bold-19d0" transform="translate(2037.203125 0)"/>
    </g>
   </g>
   <g id="legend_1">
    <g id="patch_10">
     <path d="M 56.621582 43.612354 
L 76.621582 43.612354 
L 76.621582 36.612354 
L 56.621582 36.612354 
z
" style="fill: #8a8a8a"/>
    </g>
    <g id="text_16">
     <!-- 영 -->
     <g style="fill: #333333" transform="translate(84.621582 43.612354) scale(0.1 -0.1)">
      <defs>
       <path id="Pretendard-Regular-2001" d="M 1756 4713 
C 925 4719 313 4175 313 3394 
C 313 2619 925 2075 1756 2081 
C 2225 2078 2625 2253 2888 2550 
L 4338 2550 
L 4338 1756 
L 4831 1756 
L 4831 5050 
L 4338 5050 
L 4338 4244 
L 2881 4244 
C 2625 4541 2225 4716 1756 4713 
z
M 1756 4288 
C 2306 4294 2719 3919 2719 3394 
C 2719 2875 2306 2500 1756 2500 
C 1188 2500 781 2875 781 3394 
C 781 3919 1188 4294 1756 4288 
z
M 2988 1625 
C 1831 1625 1125 1238 1125 569 
C 1125 -106 1831 -494 2988 -494 
C 4138 -494 4850 -106 4850 569 
C 4850 1238 4138 1625 2988 1625 
z
M 2988 1244 
C 3844 1244 4369 988 4369 569 
C 4369 150 3844 -100 2988 -100 
C 2138 -100 1606 150 1606 569 
C 1606 988 2138 1244 2988 1244 
z
M 3119 3844 
L 4338 3844 
L 4338 2956 
L 3119 2956 
C 3166 3091 3194 3238 3194 3394 
C 3194 3556 3166 3706 3119 3844 
z
" transform="scale(0.015625)"/>
      </defs>
      <use xlink:href="#Pretendard-Regular-2001"/>
     </g>
    </g>
    <g id="patch_11">
     <path d="M 56.621582 60.541064 
L 76.621582 60.541064 
L 76.621582 53.541064 
L 56.621582 53.541064 
z
" style="fill: #bdbdbd"/>
    </g>
    <g id="text_17">
     <!-- 별 -->
     <g style="fill: #333333" transform="translate(84.621582 60.541064) scale(0.1 -0.1)">
      <defs>
       <path id="Pretendard-Regular-16c4" d="M 4825 5050 
L 4338 5050 
L 4338 4250 
L 3025 4250 
L 3025 4788 
L 2544 4788 
L 2544 3988 
L 994 3988 
L 994 4788 
L 506 4788 
L 506 2369 
L 3025 2369 
L 3025 2856 
L 4338 2856 
L 4338 2144 
L 4825 2144 
L 4825 5050 
z
M 4825 1875 
L 1225 1875 
L 1225 1481 
L 4338 1481 
L 4338 944 
L 1238 944 
L 1238 -431 
L 5038 -431 
L 5038 -38 
L 1725 -38 
L 1725 569 
L 4825 569 
L 4825 1875 
z
M 994 2769 
L 994 3600 
L 2544 3600 
L 2544 2769 
L 994 2769 
z
M 3025 3244 
L 3025 3869 
L 4338 3869 
L 4338 3244 
L 3025 3244 
z
" transform="scale(0.015625)"/>
      </defs>
      <use xlink:href="#Pretendard-Regular-16c4"/>
     </g>
    </g>
   </g>
  </g>
 </g>
 <defs>
  <clipPath id="pfb699ef7c8">
   <rect x="47.621582" y="25.095752" width="357.12" height="232.848"/>
  </clipPath>
 </defs>
</svg>
