<?xml version="1.0" encoding="utf-8" standalone="no"?>
<!DOCTYPE svg PUBLIC "-//W3C//DTD SVG 1.1//EN"
  "http://www.w3.org/Graphics/SVG/1.1/DTD/svg11.dtd">
<svg xmlns:xlink="http://www.w3.org/1999/xlink" width="389.025146pt" height="254.41841pt" viewBox="0 0 389.025146 254.41841" xmlns="http://www.w3.org/2000/svg" version="1.1">
 <metadata>
  <rdf:RDF xmlns:dc="http://purl.org/dc/elements/1.1/" xmlns:cc="http://creativecommons.org/ns#" xmlns:rdf="http://www.w3.org/1999/02/22-rdf-syntax-ns#">
   <cc:Work>
    <dc:type rdf:resource="http://purl.org/dc/dcmitype/StillImage"/>
    <dc:date>2026-07-24T17:05:23.955808</dc:date>
    <dc:format>image/svg+xml</dc:format>
    <dc:creator>
     <cc:Agent>
      <dc:title>Matplotlib v3.11.1, https://matplotlib.org/</dc:title>
     </cc:Agent>
    </dc:creator>
   </cc:Work>
  </rdf:RDF>
 </metadata>
 <defs>
  <style type="text/css">*{stroke-linejoin: round; stroke-linecap: butt}</style>
 </defs>
 <g id="figure_1">
  <g id="patch_1">
   <path d="M 0 254.41841 
L 389.025146 254.41841 
L 389.025146 0 
L 0 0 
z
" style="fill: #ffffff"/>
  </g>
  <g id="axes_1">
   <g id="patch_2">
    <path d="M 47.025146 240.048 
L 381.825146 240.048 
L 381.825146 7.2 
L 47.025146 7.2 
z
" style="fill: #ffffff"/>
   </g>
   <g id="patch_3">
    <path d="M 86.882289 240.048 
L 166.596575 240.048 
L 166.596575 24.448 
L 86.882289 24.448 
z
" clip-path="url(#p8e0e5e06ab)" style="fill: #ffffff; stroke: #bdbdbd; stroke-linejoin: miter"/>
   </g>
   <g id="matplotlib.axis_1"/>
   <g id="matplotlib.axis_2">
    <g id="ytick_1">
     <g id="line2d_1">
      <defs>
       <path id="mb43333a28e" d="M 0 0 
L -3.5 0 
" style="stroke: #333333; stroke-width: 0.8"/>
      </defs>
      <g>
       <use xlink:href="#mb43333a28e" x="47.025146" y="240.048" style="fill: #333333; stroke: #333333; stroke-width: 0.8"/>
      </g>
     </g>
     <g id="text_1">
      <!-- 0 -->
      <g style="fill: #333333" transform="translate(34.067334 244.806301) scale(0.1 -0.1)">
       <defs>
        <path id="Pretendard-Regular-32c9" d="M 1906 -63 
C 2906 -63 3488 781 3488 2263 
C 3488 3731 2900 4588 1906 4588 
C 913 4588 325 3731 325 2263 
C 325 781 900 -63 1906 -63 
z
M 1906 438 
C 1250 438 869 1094 869 2263 
C 869 3431 1256 4100 1906 4100 
C 2556 4100 2938 3431 2938 2263 
C 2938 1094 2556 438 1906 438 
z
" transform="scale(0.015625)"/>
       </defs>
       <use xlink:href="#Pretendard-Regular-32c9"/>
      </g>
     </g>
    </g>
    <g id="ytick_2">
     <g id="line2d_2">
      <g>
       <use xlink:href="#mb43333a28e" x="47.025146" y="196.928" style="fill: #333333; stroke: #333333; stroke-width: 0.8"/>
      </g>
     </g>
     <g id="text_2">
      <!-- 20 -->
      <g style="fill: #333333" transform="translate(28.198584 201.686301) scale(0.1 -0.1)">
       <defs>
        <path id="Pretendard-Regular-32cb" d="M 425 0 
L 3363 0 
L 3363 500 
L 1206 500 
L 1206 538 
L 2244 1606 
C 3044 2431 3281 2825 3281 3331 
C 3281 4038 2694 4588 1875 4588 
C 1056 4588 438 4050 444 3250 
L 975 3250 
C 975 3756 1319 4100 1856 4100 
C 2363 4100 2756 3794 2756 3331 
C 2756 2913 2500 2606 1963 2038 
L 419 413 
L 425 0 
z
" transform="scale(0.015625)"/>
       </defs>
       <use xlink:href="#Pretendard-Regular-32cb"/>
       <use xlink:href="#Pretendard-Regular-32c9" transform="translate(58.6875 0)"/>
      </g>
     </g>
    </g>
    <g id="ytick_3">
     <g id="line2d_3">
      <g>
       <use xlink:href="#mb43333a28e" x="47.025146" y="153.808" style="fill: #333333; stroke: #333333; stroke-width: 0.8"/>
      </g>
     </g>
     <g id="text_3">
      <!-- 40 -->
      <g style="fill: #333333" transform="translate(27.826709 158.566301) scale(0.1 -0.1)">
       <defs>
        <path id="Pretendard-Regular-32cd" d="M 313 925 
L 2506 925 
L 2506 0 
L 3044 0 
L 3044 925 
L 3675 925 
L 3675 1419 
L 3044 1419 
L 3044 4525 
L 2350 4525 
L 313 1388 
L 313 925 
z
M 919 1419 
L 919 1456 
L 2450 3813 
L 2506 3813 
L 2506 1419 
L 919 1419 
z
" transform="scale(0.015625)"/>
       </defs>
       <use xlink:href="#Pretendard-Regular-32cd"/>
       <use xlink:href="#Pretendard-Regular-32c9" transform="translate(62.40625 0)"/>
      </g>
     </g>
    </g>
    <g id="ytick_4">
     <g id="line2d_4">
      <g>
       <use xlink:href="#mb43333a28e" x="47.025146" y="110.688" style="fill: #333333; stroke: #333333; stroke-width: 0.8"/>
      </g>
     </g>
     <g id="text_4">
      <!-- 60 -->
      <g style="fill: #333333" transform="translate(27.934521 115.446301) scale(0.1 -0.1)">
       <defs>
        <path id="Pretendard-Regular-32cf" d="M 2000 -63 
C 2950 -69 3575 613 3575 1463 
C 3575 2338 2906 2963 2100 2963 
C 1613 2963 1200 2738 938 2363 
L 881 2363 
C 881 3450 1325 4088 2069 4088 
C 2575 4088 2875 3788 2981 3388 
L 3538 3388 
C 3419 4100 2863 4588 2069 4588 
C 1006 4588 350 3688 350 2088 
C 350 413 1213 -50 2000 -63 
z
M 2000 431 
C 1394 431 956 919 956 1450 
C 963 1988 1419 2469 2013 2469 
C 2606 2469 3025 2013 3031 1456 
C 3025 894 2588 431 2000 431 
z
" transform="scale(0.015625)"/>
       </defs>
       <use xlink:href="#Pretendard-Regular-32cf"/>
       <use xlink:href="#Pretendard-Regular-32c9" transform="translate(61.328125 0)"/>
      </g>
     </g>
    </g>
    <g id="ytick_5">
     <g id="line2d_5">
      <g>
       <use xlink:href="#mb43333a28e" x="47.025146" y="67.568" style="fill: #333333; stroke: #333333; stroke-width: 0.8"/>
      </g>
     </g>
     <g id="text_5">
      <!-- 80 -->
      <g style="fill: #333333" transform="translate(28.003271 72.326301) scale(0.1 -0.1)">
       <defs>
        <path id="Pretendard-Regular-32d1" d="M 1938 -63 
C 2881 -63 3544 463 3550 1200 
C 3544 1788 3138 2269 2625 2350 
L 2625 2375 
C 3069 2481 3369 2894 3375 3388 
C 3369 4081 2763 4588 1938 4588 
C 1113 4588 506 4081 506 3388 
C 506 2894 800 2481 1250 2375 
L 1250 2350 
C 731 2269 325 1788 331 1200 
C 325 463 988 -63 1938 -63 
z
M 1938 431 
C 1288 431 881 756 894 1231 
C 881 1731 1331 2100 1938 2100 
C 2544 2100 2988 1731 2988 1231 
C 2988 756 2588 431 1938 431 
z
M 1938 2575 
C 1419 2575 1050 2888 1050 3344 
C 1050 3794 1400 4100 1938 4100 
C 2469 4100 2825 3794 2825 3344 
C 2825 2888 2450 2575 1938 2575 
z
" transform="scale(0.015625)"/>
       </defs>
       <use xlink:href="#Pretendard-Regular-32d1"/>
       <use xlink:href="#Pretendard-Regular-32c9" transform="translate(60.640625 0)"/>
      </g>
     </g>
    </g>
    <g id="ytick_6">
     <g id="line2d_6">
      <g>
       <use xlink:href="#mb43333a28e" x="47.025146" y="24.448" style="fill: #333333; stroke: #333333; stroke-width: 0.8"/>
      </g>
     </g>
     <g id="text_6">
      <!-- 100 -->
      <g style="fill: #333333" transform="translate(23.725146 29.206301) scale(0.1 -0.1)">
       <defs>
        <path id="Pretendard-Regular-32ca" d="M 2025 4525 
L 1456 4525 
L 331 3775 
L 331 3206 
L 1431 3938 
L 1456 3938 
L 1456 0 
L 2025 0 
L 2025 4525 
z
" transform="scale(0.015625)"/>
       </defs>
       <use xlink:href="#Pretendard-Regular-32ca"/>
       <use xlink:href="#Pretendard-Regular-32c9" transform="translate(43.84375 0)"/>
       <use xlink:href="#Pretendard-Regular-32c9" transform="translate(103.421875 0)"/>
      </g>
     </g>
    </g>
    <g id="text_7">
     <!-- 실제 정확도 (%) -->
     <g style="fill: #333333" transform="translate(17.192432 157.050094) rotate(-90) scale(0.105 -0.105)">
      <defs>
       <path id="Pretendard-Regular-1ce4" d="M 4806 5050 
L 4325 5050 
L 4325 2169 
L 4806 2169 
L 4806 5050 
z
M 4813 1888 
L 1200 1888 
L 1200 1494 
L 4325 1494 
L 4325 938 
L 1213 938 
L 1213 -444 
L 5013 -444 
L 5013 -44 
L 1694 -44 
L 1694 556 
L 4813 556 
L 4813 1888 
z
M 2194 4463 
L 2194 4888 
L 1694 4888 
L 1694 4463 
C 1694 3644 1100 2906 263 2613 
L 519 2225 
C 1178 2463 1700 2972 1950 3619 
C 2200 3019 2719 2553 3369 2331 
L 3613 2713 
C 2788 2981 2188 3675 2194 4463 
z
" transform="scale(0.015625)"/>
       <path id="Pretendard-Regular-221c" d="M 4975 5050 
L 4506 5050 
L 4506 -506 
L 4975 -506 
L 4975 5050 
z
M 3850 4913 
L 3388 4913 
L 3388 3044 
L 2450 3044 
L 2450 2644 
L 3388 2644 
L 3388 -219 
L 3850 -219 
L 3850 4913 
z
M 1856 3463 
L 1856 3988 
L 2875 3988 
L 2875 4394 
L 313 4394 
L 313 3988 
L 1381 3988 
L 1381 3463 
C 1381 2450 931 1438 156 975 
L 469 606 
C 1025 956 1428 1609 1631 2375 
C 1822 1666 2209 1066 2756 738 
L 3056 1100 
C 2288 1544 1856 2500 1856 3463 
z
" transform="scale(0.015625)"/>
       <path id="Pretendard-Regular-2" transform="scale(0.015625)"/>
       <path id="Pretendard-Regular-2215" d="M 4831 5050 
L 4338 5050 
L 4338 3600 
L 3219 3600 
L 3219 3194 
L 4338 3194 
L 4338 1738 
L 4831 1738 
L 4831 5050 
z
M 2988 1563 
C 1831 1563 1125 1188 1125 531 
C 1125 -125 1831 -500 2988 -506 
C 4144 -500 4850 -125 4850 531 
C 4850 1188 4144 1563 2988 1563 
z
M 2988 1181 
C 3838 1181 4363 938 4363 531 
C 4363 131 3838 -113 2988 -113 
C 2138 -113 1606 131 1613 531 
C 1606 938 2138 1181 2988 1181 
z
M 2156 4031 
L 2156 4231 
L 3400 4231 
L 3400 4644 
L 406 4644 
L 406 4231 
L 1663 4231 
L 1663 4025 
C 1663 3231 1075 2481 250 2181 
L 506 1788 
C 1166 2038 1681 2559 1925 3213 
C 2159 2634 2644 2169 3269 1944 
L 3525 2338 
C 2713 2619 2156 3306 2156 4031 
z
" transform="scale(0.015625)"/>
       <path id="Pretendard-Regular-3055" d="M 4563 5044 
L 4069 5044 
L 4069 1319 
L 4563 1319 
L 4563 2950 
L 5394 2950 
L 5394 3363 
L 4563 3363 
L 4563 5044 
z
M 200 1888 
L 256 1488 
C 1231 1488 2563 1494 3769 1706 
L 3725 2063 
C 3238 1991 2713 1950 2194 1925 
L 2194 2313 
C 2838 2372 3244 2675 3250 3131 
C 3244 3638 2731 3950 1944 3950 
C 1163 3950 644 3638 644 3131 
C 644 2672 1059 2369 1706 2313 
L 1706 1906 
C 1163 1888 644 1888 200 1888 
z
M 4563 1044 
L 881 1044 
L 881 650 
L 4069 650 
L 4069 -506 
L 4563 -506 
L 4563 1044 
z
M 3556 4538 
L 2194 4538 
L 2194 5094 
L 1706 5094 
L 1706 4538 
L 338 4538 
L 338 4163 
L 3556 4163 
L 3556 4538 
z
M 1944 3600 
C 2456 3606 2781 3425 2781 3131 
C 2781 2844 2456 2644 1944 2650 
C 1431 2644 1113 2844 1113 3131 
C 1113 3425 1431 3606 1944 3600 
z
" transform="scale(0.015625)"/>
       <path id="Pretendard-Regular-dc4" d="M 4713 2444 
L 1369 2444 
L 1369 4194 
L 4656 4194 
L 4656 4594 
L 875 4594 
L 875 2044 
L 2513 2044 
L 2513 606 
L 225 606 
L 225 194 
L 5313 194 
L 5313 606 
L 2994 606 
L 2994 2044 
L 4713 2044 
L 4713 2444 
z
" transform="scale(0.015625)"/>
       <path id="Pretendard-Regular-33d1" d="M 569 1725 
C 575 544 894 -438 1469 -1275 
L 1944 -1275 
C 1519 -656 1125 613 1125 1725 
C 1125 2838 1519 4100 1944 4719 
L 1469 4719 
C 894 3888 575 2906 569 1725 
z
" transform="scale(0.015625)"/>
       <path id="Pretendard-Regular-3623" d="M 1381 2425 
C 1963 2425 2288 2863 2288 3513 
C 2288 4150 1975 4594 1381 4594 
C 806 4594 475 4150 475 3513 
C 475 2863 794 2425 1381 2425 
z
M 1381 2813 
C 1081 2813 931 3088 931 3513 
C 931 3931 1081 4206 1381 4206 
C 1700 4213 1831 3931 1831 3513 
C 1831 3088 1688 2813 1381 2813 
z
M 4144 -63 
C 4719 -69 5044 375 5044 1019 
C 5044 1663 4731 2106 4144 2106 
C 3569 2106 3231 1663 3238 1019 
C 3231 375 3556 -69 4144 -63 
z
M 4144 325 
C 3838 325 3688 600 3688 1019 
C 3688 1444 3844 1713 4144 1719 
C 4456 1725 4588 1444 4588 1019 
C 4588 600 4444 325 4144 325 
z
M 919 0 
L 1425 0 
L 4538 4525 
L 4031 4525 
L 919 0 
z
" transform="scale(0.015625)"/>
       <path id="Pretendard-Regular-33d2" d="M 1613 1725 
C 1606 2906 1288 3888 713 4719 
L 238 4719 
C 663 4100 1056 2838 1056 1725 
C 1056 613 663 -656 238 -1275 
L 713 -1275 
C 1288 -438 1606 544 1613 1725 
z
" transform="scale(0.015625)"/>
      </defs>
      <use xlink:href="#Pretendard-Regular-1ce4"/>
      <use xlink:href="#Pretendard-Regular-221c" transform="translate(86.421875 0)"/>
      <use xlink:href="#Pretendard-Regular-2" transform="translate(172.84375 0)"/>
      <use xlink:href="#Pretendard-Regular-2215" transform="translate(197.9375 0)"/>
      <use xlink:href="#Pretendard-Regular-3055" transform="translate(284.359375 0)"/>
      <use xlink:href="#Pretendard-Regular-dc4" transform="translate(370.78125 0)"/>
      <use xlink:href="#Pretendard-Regular-2" transform="translate(457.203125 0)"/>
      <use xlink:href="#Pretendard-Regular-33d1" transform="translate(482.296875 0)"/>
      <use xlink:href="#Pretendard-Regular-3623" transform="translate(516.375 0)"/>
      <use xlink:href="#Pretendard-Regular-33d2" transform="translate(602.609375 0)"/>
     </g>
    </g>
   </g>
   <g id="patch_4">
    <path d="M 86.882289 240.048 
L 166.596575 240.048 
L 166.596575 68.58132 
L 86.882289 68.58132 
z
" clip-path="url(#p8e0e5e06ab)" style="fill: #eeeeee"/>
   </g>
   <g id="patch_5">
    <path d="M 47.025146 240.048 
L 47.025146 7.2 
" style="fill: none; stroke: #333333; stroke-width: 0.8; stroke-linejoin: miter; stroke-linecap: square"/>
   </g>
   <g id="patch_6">
    <path d="M 86.882289 240.048 
L 166.596575 240.048 
L 166.596575 98.46348 
L 86.882289 98.46348 
z
" clip-path="url(#p8e0e5e06ab)" style="fill: #0f87a8; opacity: 0.85"/>
   </g>
   <g id="patch_7">
    <path d="M 221.585614 65.637168 
Q 195.089583 67.055784 168.593552 68.4744 
" style="fill: none; stroke: #333333; stroke-linecap: round"/>
   </g>
   <g id="text_8">
    <!-- 그 사람 천장 79.53% -->
    <g style="fill: #333333" transform="translate(225.585146 60.964496) scale(0.095 -0.095)">
     <defs>
      <path id="Pretendard-Regular-7f8" d="M 4606 4456 
L 775 4456 
L 775 4050 
L 4125 4050 
L 4125 3900 
C 4125 3219 4125 2388 3900 1250 
L 4400 1200 
C 4606 2406 4606 3200 4606 3900 
L 4606 4456 
z
M 5288 719 
L 225 719 
L 225 313 
L 5288 313 
L 5288 719 
z
" transform="scale(0.015625)"/>
      <path id="Pretendard-Regular-1aac" d="M 2088 3556 
L 2088 4569 
L 1606 4569 
L 1606 3556 
C 1600 2544 956 1475 144 1075 
L 456 681 
C 1081 1016 1606 1716 1856 2538 
C 2100 1766 2613 1109 3225 788 
L 3525 1181 
C 2738 1569 2088 2575 2088 3556 
z
M 4525 5050 
L 4038 5050 
L 4038 -506 
L 4525 -506 
L 4525 2369 
L 5456 2369 
L 5456 2794 
L 4525 2794 
L 4525 5050 
z
" transform="scale(0.015625)"/>
      <path id="Pretendard-Regular-118c" d="M 4569 5044 
L 4081 5044 
L 4081 1731 
L 4569 1731 
L 4569 3200 
L 5413 3200 
L 5413 3619 
L 4569 3619 
L 4569 5044 
z
M 4569 1456 
L 1050 1456 
L 1050 -431 
L 4569 -431 
L 4569 1456 
z
M 1531 1075 
L 4094 1075 
L 4094 -31 
L 1531 -31 
L 1531 1075 
z
M 2981 4744 
L 463 4744 
L 463 4338 
L 2500 4338 
L 2500 3606 
L 475 3606 
L 475 2025 
L 906 2025 
C 1938 2025 2681 2056 3575 2213 
L 3525 2606 
C 2659 2466 1944 2438 956 2438 
L 956 3225 
L 2981 3225 
L 2981 4744 
z
" transform="scale(0.015625)"/>
      <path id="Pretendard-Regular-269c" d="M 2119 3719 
L 2119 3900 
L 3375 3900 
L 3375 4300 
L 2131 4300 
L 2131 5013 
L 1638 5013 
L 1638 4300 
L 381 4300 
L 381 3900 
L 1638 3900 
L 1638 3719 
C 1638 2938 1063 2244 244 1969 
L 488 1588 
C 1144 1819 1647 2291 1888 2900 
C 2138 2331 2644 1891 3288 1681 
L 3531 2075 
C 2706 2331 2119 2981 2119 3719 
z
M 4831 5044 
L 4338 5044 
L 4338 3331 
L 3181 3331 
L 3181 2925 
L 4338 2925 
L 4338 894 
L 4831 894 
L 4831 5044 
z
M 4988 25 
L 1756 25 
L 1756 1269 
L 1263 1269 
L 1263 -388 
L 4988 -388 
L 4988 25 
z
" transform="scale(0.015625)"/>
      <path id="Pretendard-Regular-21a5" d="M 2106 3994 
L 2106 4231 
L 3356 4231 
L 3356 4638 
L 356 4638 
L 356 4231 
L 1625 4231 
L 1625 3994 
C 1619 3194 1038 2475 206 2194 
L 456 1800 
C 1122 2041 1634 2538 1875 3175 
C 2113 2616 2597 2172 3238 1963 
L 3469 2350 
C 2650 2619 2106 3269 2106 3994 
z
M 4569 5050 
L 4081 5050 
L 4081 1694 
L 4569 1694 
L 4569 3219 
L 5406 3219 
L 5406 3631 
L 4569 3631 
L 4569 5050 
z
M 2788 1544 
C 1644 1544 944 1169 944 531 
C 944 -119 1644 -494 2788 -494 
C 3931 -494 4619 -119 4619 531 
C 4619 1169 3931 1544 2788 1544 
z
M 2788 1150 
C 3631 1150 4144 919 4144 531 
C 4144 131 3631 -100 2788 -100 
C 1950 -100 1431 131 1438 531 
C 1431 919 1950 1150 2788 1150 
z
" transform="scale(0.015625)"/>
      <path id="Pretendard-Regular-32d0" d="M 569 0 
L 1156 0 
L 3225 4000 
L 3225 4525 
L 250 4525 
L 250 4025 
L 2644 4025 
L 2644 3994 
L 569 0 
z
" transform="scale(0.015625)"/>
      <path id="Pretendard-Regular-32d2" d="M 1931 4588 
C 969 4594 350 3913 350 3069 
C 350 2194 1019 1575 1831 1575 
C 2313 1575 2725 1800 2988 2175 
L 3050 2175 
C 3044 1075 2594 438 1856 438 
C 1350 438 1044 738 944 1144 
L 388 1144 
C 500 425 1063 -63 1856 -63 
C 2919 -63 3575 838 3575 2444 
C 3575 4113 2713 4581 1931 4588 
z
M 1931 4094 
C 2531 4094 2963 3606 2963 3088 
C 2963 2556 2500 2069 1913 2069 
C 1319 2069 900 2513 900 3075 
C 894 3631 1338 4094 1931 4094 
z
" transform="scale(0.015625)"/>
      <path id="Pretendard-Regular-3359" d="M 813 -38 
C 1031 -38 1213 144 1213 369 
C 1213 588 1031 769 813 769 
C 594 769 406 588 413 369 
C 406 144 594 -38 813 -38 
z
" transform="scale(0.015625)"/>
      <path id="Pretendard-Regular-32ce" d="M 1900 -63 
C 2800 -63 3463 569 3463 1444 
C 3463 2325 2825 2963 1963 2963 
C 1644 2963 1338 2856 1138 2700 
L 1094 2700 
L 1263 4025 
L 3244 4025 
L 3244 4525 
L 794 4525 
L 475 2050 
L 1019 2050 
C 1188 2344 1481 2463 1863 2456 
C 2469 2450 2913 2019 2913 1431 
C 2913 863 2488 431 1900 431 
C 1413 431 1019 731 975 1138 
L 431 1138 
C 463 444 1081 -63 1900 -63 
z
" transform="scale(0.015625)"/>
      <path id="Pretendard-Regular-32cc" d="M 1988 -63 
C 2888 -63 3569 488 3563 1231 
C 3569 1806 3206 2225 2619 2319 
L 2619 2350 
C 3094 2481 3394 2863 3388 3375 
C 3394 4025 2869 4588 2006 4588 
C 1200 4588 538 4106 506 3388 
L 1050 3388 
C 1075 3831 1519 4100 2000 4100 
C 2513 4100 2844 3794 2844 3344 
C 2844 2875 2463 2569 1913 2569 
L 1544 2569 
L 1544 2075 
L 1913 2075 
C 2619 2075 3013 1725 3013 1231 
C 3013 763 2575 438 1981 438 
C 1444 438 1013 706 981 1138 
L 413 1138 
C 444 419 1088 -63 1988 -63 
z
" transform="scale(0.015625)"/>
     </defs>
     <use xlink:href="#Pretendard-Regular-7f8"/>
     <use xlink:href="#Pretendard-Regular-2" transform="translate(86.421875 0)"/>
     <use xlink:href="#Pretendard-Regular-1aac" transform="translate(111.515625 0)"/>
     <use xlink:href="#Pretendard-Regular-118c" transform="translate(197.9375 0)"/>
     <use xlink:href="#Pretendard-Regular-2" transform="translate(284.359375 0)"/>
     <use xlink:href="#Pretendard-Regular-269c" transform="translate(309.453125 0)"/>
     <use xlink:href="#Pretendard-Regular-21a5" transform="translate(395.875 0)"/>
     <use xlink:href="#Pretendard-Regular-2" transform="translate(482.296875 0)"/>
     <use xlink:href="#Pretendard-Regular-32d0" transform="translate(507.390625 0)"/>
     <use xlink:href="#Pretendard-Regular-32d2" transform="translate(561.59375 0)"/>
     <use xlink:href="#Pretendard-Regular-3359" transform="translate(620.4375 0)"/>
     <use xlink:href="#Pretendard-Regular-32ce" transform="translate(644.46875 0)"/>
     <use xlink:href="#Pretendard-Regular-32cc" transform="translate(704.140625 0)"/>
     <use xlink:href="#Pretendard-Regular-3623" transform="translate(765.859375 0)"/>
    </g>
    <!-- (2주 뒤 자기 재현율) -->
    <g style="fill: #333333" transform="translate(225.585146 72.296771) scale(0.095 -0.095)">
     <defs>
      <path id="Pretendard-Regular-22fc" d="M 3031 4263 
L 3031 4300 
L 4806 4300 
L 4806 4700 
L 700 4700 
L 700 4300 
L 2481 4300 
L 2481 4263 
C 2481 3519 1488 2888 525 2744 
L 719 2356 
C 1572 2503 2419 2966 2756 3638 
C 3094 2966 3938 2503 4806 2356 
L 4988 2744 
C 4019 2888 3025 3519 3031 4263 
z
M 5288 1881 
L 225 1881 
L 225 1475 
L 2506 1475 
L 2506 -506 
L 2988 -506 
L 2988 1475 
L 5288 1475 
L 5288 1881 
z
" transform="scale(0.015625)"/>
      <path id="Pretendard-Regular-ea4" d="M 4806 5044 
L 4325 5044 
L 4325 -513 
L 4806 -513 
L 4806 5044 
z
M 200 2019 
L 263 1600 
C 744 1600 1278 1606 1831 1625 
L 1831 -338 
L 2319 -338 
L 2319 1650 
C 2859 1675 3413 1722 3950 1794 
L 3925 2169 
C 2694 2031 1306 2025 200 2019 
z
M 3500 3138 
L 1225 3138 
L 1225 4331 
L 3425 4331 
L 3425 4731 
L 731 4731 
L 731 2725 
L 3500 2725 
L 3500 3138 
z
" transform="scale(0.015625)"/>
      <path id="Pretendard-Regular-2190" d="M 2106 3344 
L 2106 4069 
L 3356 4069 
L 3356 4475 
L 331 4475 
L 331 4069 
L 1625 4069 
L 1625 3344 
C 1619 2394 931 1338 131 950 
L 431 563 
C 1053 881 1613 1600 1869 2419 
C 2116 1666 2644 1003 3269 700 
L 3550 1088 
C 2744 1469 2100 2450 2106 3344 
z
M 4525 5050 
L 4038 5050 
L 4038 -506 
L 4525 -506 
L 4525 2381 
L 5456 2381 
L 5456 2800 
L 4525 2800 
L 4525 5050 
z
" transform="scale(0.015625)"/>
      <path id="Pretendard-Regular-830" d="M 4819 5050 
L 4325 5050 
L 4325 -506 
L 4819 -506 
L 4819 5050 
z
M 3175 4444 
L 550 4444 
L 550 4044 
L 2675 4044 
C 2563 2716 1797 1650 294 938 
L 563 538 
C 2425 1431 3169 2844 3175 4444 
z
" transform="scale(0.015625)"/>
      <path id="Pretendard-Regular-21ac" d="M 5000 5050 
L 4525 5050 
L 4525 2800 
L 3769 2800 
L 3769 4931 
L 3300 4931 
L 3300 -225 
L 3769 -225 
L 3769 2381 
L 4525 2381 
L 4525 -506 
L 5000 -506 
L 5000 5050 
z
M 1869 3531 
L 1869 3975 
L 2900 3975 
L 2900 4388 
L 300 4388 
L 300 3975 
L 1394 3975 
L 1394 3531 
C 1394 2406 969 1456 169 1019 
L 475 644 
C 1063 988 1453 1594 1644 2369 
C 1841 1688 2225 1138 2788 831 
L 3081 1213 
C 2288 1619 1869 2513 1869 3531 
z
" transform="scale(0.015625)"/>
      <path id="Pretendard-Regular-3004" d="M 4831 5044 
L 4338 5044 
L 4338 3563 
L 3375 3563 
L 3375 3156 
L 4338 3156 
L 4338 2400 
L 3375 2400 
L 3375 2000 
L 4338 2000 
L 4338 806 
L 4831 806 
L 4831 5044 
z
M 3375 4363 
L 2069 4363 
L 2069 5050 
L 1581 5050 
L 1581 4363 
L 231 4363 
L 231 3963 
L 3375 3963 
L 3375 4363 
z
M 1819 3656 
C 1075 3656 556 3231 563 2594 
C 556 1963 1075 1531 1819 1531 
C 2563 1531 3088 1963 3088 2594 
C 3088 3231 2563 3656 1819 3656 
z
M 1819 3269 
C 2294 3263 2619 2994 2625 2594 
C 2619 2194 2294 1925 1819 1925 
C 1344 1925 1019 2194 1019 2594 
C 1019 2994 1344 3263 1819 3269 
z
M 4956 25 
L 1731 25 
L 1731 1181 
L 1238 1181 
L 1238 -388 
L 4956 -388 
L 4956 25 
z
" transform="scale(0.015625)"/>
      <path id="Pretendard-Regular-2128" d="M 2756 4981 
C 1519 4981 788 4638 788 4019 
C 788 3394 1519 3056 2756 3050 
C 3994 3056 4719 3394 4719 4019 
C 4719 4638 3994 4981 2756 4981 
z
M 2756 4606 
C 3675 4600 4219 4388 4219 4019 
C 4219 3638 3675 3431 2756 3425 
C 1831 3431 1294 3638 1300 4019 
C 1294 4388 1831 4600 2756 4606 
z
M 5288 2713 
L 225 2713 
L 225 2313 
L 1606 2313 
L 1606 1763 
L 838 1763 
L 838 1388 
L 4156 1388 
L 4156 881 
L 850 881 
L 850 -444 
L 4806 -444 
L 4806 -56 
L 1338 -56 
L 1338 519 
L 4638 519 
L 4638 1763 
L 3875 1763 
L 3875 2313 
L 5288 2313 
L 5288 2713 
z
M 2088 1763 
L 2088 2313 
L 3388 2313 
L 3388 1763 
L 2088 1763 
z
" transform="scale(0.015625)"/>
     </defs>
     <use xlink:href="#Pretendard-Regular-33d1"/>
     <use xlink:href="#Pretendard-Regular-32cb" transform="translate(34.078125 0)"/>
     <use xlink:href="#Pretendard-Regular-22fc" transform="translate(92.765625 0)"/>
     <use xlink:href="#Pretendard-Regular-2" transform="translate(179.1875 0)"/>
     <use xlink:href="#Pretendard-Regular-ea4" transform="translate(204.28125 0)"/>
     <use xlink:href="#Pretendard-Regular-2" transform="translate(290.703125 0)"/>
     <use xlink:href="#Pretendard-Regular-2190" transform="translate(315.796875 0)"/>
     <use xlink:href="#Pretendard-Regular-830" transform="translate(402.21875 0)"/>
     <use xlink:href="#Pretendard-Regular-2" transform="translate(488.640625 0)"/>
     <use xlink:href="#Pretendard-Regular-21ac" transform="translate(513.734375 0)"/>
     <use xlink:href="#Pretendard-Regular-3004" transform="translate(600.15625 0)"/>
     <use xlink:href="#Pretendard-Regular-2128" transform="translate(686.578125 0)"/>
     <use xlink:href="#Pretendard-Regular-33d2" transform="translate(773 0)"/>
    </g>
   </g>
   <g id="patch_8">
    <path d="M 221.583294 25.800586 
Q 195.088381 25.148853 168.593468 24.49712 
" style="fill: none; stroke: #bdbdbd; stroke-linecap: round"/>
   </g>
   <g id="text_9">
    <!-- 원래 만점 100 -->
    <g style="fill: #8a8a8a" transform="translate(225.585146 24.433102) scale(0.09 -0.09)">
     <defs>
      <path id="Pretendard-Regular-20d0" d="M 4806 5044 
L 4313 5044 
L 4313 1756 
L 3163 1756 
L 3163 1400 
L 4313 1400 
L 4313 825 
L 4806 825 
L 4806 5044 
z
M 4944 25 
L 1488 25 
L 1488 1238 
L 994 1238 
L 994 -388 
L 4944 -388 
L 4944 25 
z
M 194 2469 
L 263 2069 
C 728 2066 1263 2069 1825 2094 
L 1825 1019 
L 2319 1019 
L 2319 2119 
C 2828 2147 3347 2197 3844 2275 
L 3813 2631 
C 2619 2481 1231 2475 194 2469 
z
M 2019 4819 
C 1200 4819 644 4431 644 3850 
C 644 3256 1200 2888 2019 2888 
C 2831 2888 3388 3256 3394 3850 
C 3388 4431 2831 4819 2019 4819 
z
M 2019 4444 
C 2544 4450 2919 4206 2925 3850 
C 2919 3488 2544 3250 2019 3250 
C 1475 3250 1106 3488 1113 3850 
C 1106 4206 1475 4450 2019 4444 
z
" transform="scale(0.015625)"/>
      <path id="Pretendard-Regular-1198" d="M 2494 4444 
L 400 4444 
L 400 4031 
L 2019 4031 
L 2019 2906 
L 413 2906 
L 413 825 
L 775 825 
C 1475 825 2106 850 2894 988 
L 2850 1388 
C 2128 1269 1525 1241 888 1238 
L 888 2500 
L 2494 2500 
L 2494 4444 
z
M 4975 5050 
L 4506 5050 
L 4506 2850 
L 3688 2850 
L 3688 4925 
L 3238 4925 
L 3238 -219 
L 3688 -219 
L 3688 2444 
L 4506 2444 
L 4506 -506 
L 4975 -506 
L 4975 5050 
z
" transform="scale(0.015625)"/>
      <path id="Pretendard-Regular-13cc" d="M 3031 4544 
L 463 4544 
L 463 1988 
L 3031 1988 
L 3031 4544 
z
M 944 4144 
L 2556 4144 
L 2556 2381 
L 944 2381 
L 944 4144 
z
M 4569 5050 
L 4081 5050 
L 4081 975 
L 4569 975 
L 4569 2944 
L 5406 2944 
L 5406 3356 
L 4569 3356 
L 4569 5050 
z
M 4825 25 
L 1575 25 
L 1575 1363 
L 1094 1363 
L 1094 -388 
L 4825 -388 
L 4825 25 
z
" transform="scale(0.015625)"/>
      <path id="Pretendard-Regular-2210" d="M 4831 5050 
L 4338 5050 
L 4338 3656 
L 3213 3656 
L 3213 3244 
L 4338 3244 
L 4338 1794 
L 4831 1794 
L 4831 5050 
z
M 4831 1519 
L 1200 1519 
L 1200 -431 
L 4831 -431 
L 4831 1519 
z
M 1688 1125 
L 4350 1125 
L 4350 -31 
L 1688 -31 
L 1688 1125 
z
M 2156 4063 
L 2156 4281 
L 3400 4281 
L 3400 4688 
L 406 4688 
L 406 4281 
L 1663 4281 
L 1663 4063 
C 1663 3269 1069 2531 250 2238 
L 506 1850 
C 1166 2091 1678 2603 1919 3244 
C 2156 2669 2641 2200 3269 1975 
L 3525 2363 
C 2713 2650 2156 3344 2156 4063 
z
" transform="scale(0.015625)"/>
     </defs>
     <use xlink:href="#Pretendard-Regular-20d0"/>
     <use xlink:href="#Pretendard-Regular-1198" transform="translate(86.421875 0)"/>
     <use xlink:href="#Pretendard-Regular-2" transform="translate(172.84375 0)"/>
     <use xlink:href="#Pretendard-Regular-13cc" transform="translate(197.9375 0)"/>
     <use xlink:href="#Pretendard-Regular-2210" transform="translate(284.359375 0)"/>
     <use xlink:href="#Pretendard-Regular-2" transform="translate(370.78125 0)"/>
     <use xlink:href="#Pretendard-Regular-32ca" transform="translate(395.875 0)"/>
     <use xlink:href="#Pretendard-Regular-32c9" transform="translate(439.71875 0)"/>
     <use xlink:href="#Pretendard-Regular-32c9" transform="translate(499.296875 0)"/>
    </g>
    <!-- (아무도 못 닿음) -->
    <g style="fill: #8a8a8a" transform="translate(225.585146 35.168941) scale(0.09 -0.09)">
     <defs>
      <path id="Pretendard-Regular-1f44" d="M 1713 4619 
C 888 4613 313 3863 313 2681 
C 313 1500 888 750 1713 750 
C 2531 750 3113 1500 3119 2681 
C 3113 3863 2531 4613 1713 4619 
z
M 1713 4181 
C 2269 4175 2644 3588 2644 2681 
C 2644 1775 2269 1188 1713 1188 
C 1163 1188 775 1775 775 2681 
C 775 3588 1163 4175 1713 4181 
z
M 4525 5050 
L 4038 5050 
L 4038 -506 
L 4525 -506 
L 4525 2406 
L 5456 2406 
L 5456 2831 
L 4525 2831 
L 4525 5050 
z
" transform="scale(0.015625)"/>
      <path id="Pretendard-Regular-1534" d="M 5306 1819 
L 219 1819 
L 219 1413 
L 2506 1413 
L 2506 -506 
L 2988 -506 
L 2988 1413 
L 5306 1413 
L 5306 1819 
z
M 4644 4738 
L 875 4738 
L 875 2575 
L 4644 2575 
L 4644 4738 
z
M 1356 4338 
L 4156 4338 
L 4156 2963 
L 1356 2963 
L 1356 4338 
z
" transform="scale(0.015625)"/>
      <path id="Pretendard-Regular-14bb" d="M 4644 4813 
L 881 4813 
L 881 2950 
L 2519 2950 
L 2519 2294 
L 225 2294 
L 225 1894 
L 5288 1894 
L 5288 2294 
L 3000 2294 
L 3000 2950 
L 4644 2950 
L 4644 4813 
z
M 1363 4419 
L 4156 4419 
L 4156 3350 
L 1363 3350 
L 1363 4419 
z
M 3000 1350 
L 3000 1544 
L 2506 1544 
L 2506 1350 
C 2506 613 1619 63 619 -81 
L 806 -475 
C 1650 -331 2422 66 2756 675 
C 3088 66 3856 -331 4700 -475 
L 4900 -81 
C 3888 63 3000 613 3000 1350 
z
" transform="scale(0.015625)"/>
      <path id="Pretendard-Regular-cff" d="M 2950 4744 
L 481 4744 
L 481 2519 
L 913 2519 
C 2056 2519 2738 2563 3531 2725 
L 3469 3113 
C 2706 2972 2050 2931 963 2931 
L 963 4344 
L 2950 4344 
L 2950 4744 
z
M 4569 5050 
L 4081 5050 
L 4081 2100 
L 4569 2100 
L 4569 3413 
L 5413 3413 
L 5413 3831 
L 4569 3831 
L 4569 5050 
z
M 4813 1738 
L 3100 1738 
L 3100 2275 
L 2619 2275 
L 2619 1738 
L 913 1738 
L 913 1350 
L 4813 1350 
L 4813 1738 
z
M 2856 1113 
C 1881 1113 1300 819 1300 294 
C 1300 -219 1881 -506 2856 -506 
C 3825 -506 4406 -219 4413 294 
C 4406 819 3825 1113 2856 1113 
z
M 2856 750 
C 3506 744 3900 581 3906 294 
C 3900 6 3506 -150 2856 -144 
C 2206 -150 1806 6 1806 294 
C 1806 581 2206 744 2856 750 
z
" transform="scale(0.015625)"/>
      <path id="Pretendard-Regular-214c" d="M 2756 4925 
C 1550 4925 788 4538 788 3869 
C 788 3213 1550 2831 2756 2831 
C 3963 2831 4719 3213 4719 3869 
C 4719 4538 3963 4925 2756 4925 
z
M 2756 4531 
C 3644 4531 4219 4281 4219 3869 
C 4219 3463 3644 3225 2756 3219 
C 1856 3225 1288 3463 1294 3869 
C 1288 4281 1856 4531 2756 4531 
z
M 4669 1394 
L 844 1394 
L 844 -431 
L 4669 -431 
L 4669 1394 
z
M 1331 1000 
L 4188 1000 
L 4188 -31 
L 1331 -31 
L 1331 1000 
z
M 5288 2350 
L 225 2350 
L 225 1944 
L 5288 1944 
L 5288 2350 
z
" transform="scale(0.015625)"/>
     </defs>
     <use xlink:href="#Pretendard-Regular-33d1"/>
     <use xlink:href="#Pretendard-Regular-1f44" transform="translate(34.078125 0)"/>
     <use xlink:href="#Pretendard-Regular-1534" transform="translate(120.5 0)"/>
     <use xlink:href="#Pretendard-Regular-dc4" transform="translate(206.921875 0)"/>
     <use xlink:href="#Pretendard-Regular-2" transform="translate(293.34375 0)"/>
     <use xlink:href="#Pretendard-Regular-14bb" transform="translate(318.4375 0)"/>
     <use xlink:href="#Pretendard-Regular-2" transform="translate(404.859375 0)"/>
     <use xlink:href="#Pretendard-Regular-cff" transform="translate(429.953125 0)"/>
     <use xlink:href="#Pretendard-Regular-214c" transform="translate(516.375 0)"/>
     <use xlink:href="#Pretendard-Regular-33d2" transform="translate(602.796875 0)"/>
    </g>
   </g>
   <g id="text_10">
    <!-- 만점을 100이 아니라 -->
    <g style="fill: #333333" transform="translate(163.501335 138.750139) scale(0.105 -0.105)">
     <defs>
      <path id="Pretendard-Regular-2144" d="M 2756 4950 
C 1519 4950 788 4613 788 3994 
C 788 3363 1519 3025 2756 3019 
C 3994 3025 4719 3363 4719 3994 
C 4719 4613 3994 4950 2756 4950 
z
M 2756 4581 
C 3675 4581 4219 4356 4219 3994 
C 4219 3606 3675 3394 2756 3394 
C 1831 3394 1294 3606 1300 3994 
C 1294 4356 1831 4581 2756 4581 
z
M 5288 2644 
L 225 2644 
L 225 2244 
L 5288 2244 
L 5288 2644 
z
M 4638 1763 
L 838 1763 
L 838 1388 
L 4156 1388 
L 4156 881 
L 850 881 
L 850 -444 
L 4806 -444 
L 4806 -56 
L 1338 -56 
L 1338 519 
L 4638 519 
L 4638 1763 
z
" transform="scale(0.015625)"/>
      <path id="Pretendard-Regular-2174" d="M 4806 5050 
L 4313 5050 
L 4313 -519 
L 4806 -519 
L 4806 5050 
z
M 1850 4619 
C 1019 4613 431 3863 431 2681 
C 431 1500 1019 750 1850 750 
C 2675 750 3269 1500 3269 2681 
C 3269 3863 2675 4613 1850 4619 
z
M 1850 4181 
C 2406 4175 2794 3588 2794 2681 
C 2794 1775 2406 1188 1850 1188 
C 1294 1188 906 1775 906 2681 
C 906 3588 1294 4175 1850 4181 
z
" transform="scale(0.015625)"/>
      <path id="Pretendard-Regular-cc8" d="M 4806 5050 
L 4319 5050 
L 4319 -506 
L 4806 -506 
L 4806 5050 
z
M 1069 4500 
L 588 4500 
L 588 925 
L 1038 925 
C 1925 925 2806 994 3794 1200 
L 3725 1619 
C 2794 1422 1916 1353 1069 1350 
L 1069 4500 
z
" transform="scale(0.015625)"/>
      <path id="Pretendard-Regular-117c" d="M 4525 5050 
L 4038 5050 
L 4038 -519 
L 4525 -519 
L 4525 2425 
L 5456 2425 
L 5456 2838 
L 4525 2838 
L 4525 5050 
z
M 2969 4531 
L 444 4531 
L 444 4125 
L 2481 4125 
L 2481 2950 
L 456 2950 
L 456 825 
L 900 825 
C 1969 831 2713 869 3588 1031 
L 3538 1438 
C 2694 1278 1975 1244 944 1244 
L 944 2544 
L 2969 2544 
L 2969 4531 
z
" transform="scale(0.015625)"/>
     </defs>
     <use xlink:href="#Pretendard-Regular-13cc"/>
     <use xlink:href="#Pretendard-Regular-2210" transform="translate(86.421875 0)"/>
     <use xlink:href="#Pretendard-Regular-2144" transform="translate(172.84375 0)"/>
     <use xlink:href="#Pretendard-Regular-2" transform="translate(259.265625 0)"/>
     <use xlink:href="#Pretendard-Regular-32ca" transform="translate(284.359375 0)"/>
     <use xlink:href="#Pretendard-Regular-32c9" transform="translate(328.203125 0)"/>
     <use xlink:href="#Pretendard-Regular-32c9" transform="translate(387.78125 0)"/>
     <use xlink:href="#Pretendard-Regular-2174" transform="translate(447.359375 0)"/>
     <use xlink:href="#Pretendard-Regular-2" transform="translate(533.78125 0)"/>
     <use xlink:href="#Pretendard-Regular-1f44" transform="translate(558.875 0)"/>
     <use xlink:href="#Pretendard-Regular-cc8" transform="translate(645.296875 0)"/>
     <use xlink:href="#Pretendard-Regular-117c" transform="translate(731.71875 0)"/>
    </g>
    <!-- 그 사람 천장으로 바꾼다 -->
    <g style="fill: #333333" transform="translate(157.129968 151.275285) scale(0.105 -0.105)">
     <defs>
      <path id="Pretendard-Regular-213c" d="M 2756 4688 
C 1594 4688 725 4081 725 3163 
C 725 2238 1594 1631 2756 1638 
C 3919 1631 4788 2238 4788 3163 
C 4788 4081 3919 4688 2756 4688 
z
M 2756 4288 
C 3644 4294 4313 3825 4313 3163 
C 4313 2488 3644 2038 2756 2038 
C 1863 2038 1188 2488 1194 3163 
C 1188 3825 1863 4294 2756 4288 
z
M 5313 644 
L 225 644 
L 225 231 
L 5313 231 
L 5313 644 
z
" transform="scale(0.015625)"/>
      <path id="Pretendard-Regular-125c" d="M 5313 594 
L 2994 594 
L 2994 1644 
L 4800 1644 
L 4800 2050 
L 1350 2050 
L 1350 2956 
L 4669 2956 
L 4669 4638 
L 850 4638 
L 850 4231 
L 4188 4231 
L 4188 3356 
L 863 3356 
L 863 1644 
L 2513 1644 
L 2513 594 
L 225 594 
L 225 181 
L 5313 181 
L 5313 594 
z
" transform="scale(0.015625)"/>
      <path id="Pretendard-Regular-1614" d="M 4525 5050 
L 4038 5050 
L 4038 -506 
L 4525 -506 
L 4525 2438 
L 5456 2438 
L 5456 2863 
L 4525 2863 
L 4525 5050 
z
M 944 4575 
L 456 4575 
L 456 825 
L 3056 825 
L 3056 4575 
L 2569 4575 
L 2569 3106 
L 944 3106 
L 944 4575 
z
M 944 1238 
L 944 2713 
L 2569 2713 
L 2569 1238 
L 944 1238 
z
" transform="scale(0.015625)"/>
      <path id="Pretendard-Regular-9bc" d="M 5306 2588 
L 4506 2588 
C 4700 3488 4700 4134 4700 4488 
L 4700 4706 
L 2931 4706 
L 2931 4300 
L 4225 4300 
C 4219 3928 4191 3363 4006 2588 
L 2275 2588 
C 2513 3550 2513 4225 2513 4544 
L 2513 4706 
L 719 4706 
L 719 4300 
L 2031 4300 
C 2022 3931 1978 3359 1775 2588 
L 225 2588 
L 225 2194 
L 2575 2194 
L 2575 838 
L 3056 838 
L 3056 2194 
L 5306 2194 
L 5306 2588 
z
M 4738 25 
L 1394 25 
L 1394 1363 
L 900 1363 
L 900 -388 
L 4738 -388 
L 4738 25 
z
" transform="scale(0.015625)"/>
      <path id="Pretendard-Regular-ce4" d="M 4525 5050 
L 4038 5050 
L 4038 -519 
L 4525 -519 
L 4525 2438 
L 5456 2438 
L 5456 2850 
L 4525 2850 
L 4525 5050 
z
M 3063 4506 
L 469 4506 
L 469 875 
L 906 875 
C 1963 875 2694 906 3563 1063 
L 3500 1488 
C 2675 1334 1963 1288 956 1288 
L 956 4100 
L 3063 4100 
L 3063 4506 
z
" transform="scale(0.015625)"/>
     </defs>
     <use xlink:href="#Pretendard-Regular-7f8"/>
     <use xlink:href="#Pretendard-Regular-2" transform="translate(86.421875 0)"/>
     <use xlink:href="#Pretendard-Regular-1aac" transform="translate(111.515625 0)"/>
     <use xlink:href="#Pretendard-Regular-118c" transform="translate(197.9375 0)"/>
     <use xlink:href="#Pretendard-Regular-2" transform="translate(284.359375 0)"/>
     <use xlink:href="#Pretendard-Regular-269c" transform="translate(309.453125 0)"/>
     <use xlink:href="#Pretendard-Regular-21a5" transform="translate(395.875 0)"/>
     <use xlink:href="#Pretendard-Regular-213c" transform="translate(482.296875 0)"/>
     <use xlink:href="#Pretendard-Regular-125c" transform="translate(568.71875 0)"/>
     <use xlink:href="#Pretendard-Regular-2" transform="translate(655.140625 0)"/>
     <use xlink:href="#Pretendard-Regular-1614" transform="translate(680.234375 0)"/>
     <use xlink:href="#Pretendard-Regular-9bc" transform="translate(766.65625 0)"/>
     <use xlink:href="#Pretendard-Regular-ce4" transform="translate(853.078125 0)"/>
    </g>
    <!--  -->
    <g style="fill: #333333" transform="translate(206.453718 163.800432) scale(0.105 -0.105)"/>
    <!-- 65.67 ÷ 79.53 = 0.83 -->
    <g style="fill: #333333" transform="translate(156.861726 176.325578) scale(0.105 -0.105)">
     <defs>
      <path id="Pretendard-Regular-362e" d="M 3431 2519 
L 588 2519 
L 588 2013 
L 3431 2013 
L 3431 2519 
z
M 2013 713 
C 2225 713 2406 894 2406 1119 
C 2406 1331 2225 1513 2013 1513 
C 1788 1513 1606 1331 1606 1119 
C 1606 894 1788 713 2013 713 
z
M 2013 3013 
C 2225 3013 2406 3188 2406 3413 
C 2406 3631 2225 3806 2013 3806 
C 1788 3806 1606 3631 1606 3413 
C 1606 3188 1788 3013 2013 3013 
z
" transform="scale(0.015625)"/>
      <path id="Pretendard-Regular-362f" d="M 644 2675 
L 3375 2675 
L 3375 3169 
L 644 3169 
L 644 2675 
z
M 644 1363 
L 3375 1363 
L 3375 1850 
L 644 1850 
L 644 1363 
z
" transform="scale(0.015625)"/>
     </defs>
     <use xlink:href="#Pretendard-Regular-32cf"/>
     <use xlink:href="#Pretendard-Regular-32ce" transform="translate(61.328125 0)"/>
     <use xlink:href="#Pretendard-Regular-3359" transform="translate(118.359375 0)"/>
     <use xlink:href="#Pretendard-Regular-32cf" transform="translate(141.265625 0)"/>
     <use xlink:href="#Pretendard-Regular-32d0" transform="translate(202.59375 0)"/>
     <use xlink:href="#Pretendard-Regular-2" transform="translate(257.765625 0)"/>
     <use xlink:href="#Pretendard-Regular-362e" transform="translate(282.859375 0)"/>
     <use xlink:href="#Pretendard-Regular-2" transform="translate(345.5625 0)"/>
     <use xlink:href="#Pretendard-Regular-32d0" transform="translate(370.65625 0)"/>
     <use xlink:href="#Pretendard-Regular-32d2" transform="translate(424.859375 0)"/>
     <use xlink:href="#Pretendard-Regular-3359" transform="translate(483.703125 0)"/>
     <use xlink:href="#Pretendard-Regular-32ce" transform="translate(507.734375 0)"/>
     <use xlink:href="#Pretendard-Regular-32cc" transform="translate(567.40625 0)"/>
     <use xlink:href="#Pretendard-Regular-2" transform="translate(629.125 0)"/>
     <use xlink:href="#Pretendard-Regular-362f" transform="translate(654.21875 0)"/>
     <use xlink:href="#Pretendard-Regular-2" transform="translate(716.921875 0)"/>
     <use xlink:href="#Pretendard-Regular-32c9" transform="translate(742.015625 0)"/>
     <use xlink:href="#Pretendard-Regular-3359" transform="translate(799.109375 0)"/>
     <use xlink:href="#Pretendard-Regular-32d1" transform="translate(822.25 0)"/>
     <use xlink:href="#Pretendard-Regular-32cc" transform="translate(882.890625 0)"/>
    </g>
   </g>
   <g id="text_11">
    <!-- 에이전트 원시 -->
    <g style="fill: #ffffff" transform="translate(101.014471 116.128251) scale(0.095 -0.095)">
     <defs>
      <path id="Pretendard-Bold-1fd0" d="M 5100 5113 
L 4338 5113 
L 4338 -575 
L 5100 -575 
L 5100 5113 
z
M 3913 5031 
L 3163 5031 
L 3163 3006 
L 2700 3006 
C 2609 4069 2141 4706 1456 4706 
C 706 4706 219 3925 219 2650 
C 219 1369 706 581 1456 581 
C 2156 581 2631 1256 2706 2375 
L 3163 2375 
L 3163 -313 
L 3913 -313 
L 3913 5031 
z
M 1456 3956 
C 1781 3956 1975 3519 1975 2650 
C 1975 1775 1781 1344 1456 1350 
C 1138 1344 950 1775 956 2650 
C 950 3519 1138 3956 1456 3956 
z
" transform="scale(0.015625)"/>
      <path id="Pretendard-Bold-2174" d="M 4931 5113 
L 4125 5113 
L 4125 -588 
L 4931 -588 
L 4931 5113 
z
M 1844 4713 
C 969 4713 331 3925 338 2688 
C 331 1438 969 656 1844 656 
C 2700 656 3338 1438 3338 2688 
C 3338 3925 2700 4713 1844 4713 
z
M 1844 3994 
C 2275 3994 2569 3531 2569 2688 
C 2569 1838 2275 1381 1844 1381 
C 1400 1381 1106 1838 1106 2688 
C 1106 3531 1400 3994 1844 3994 
z
" transform="scale(0.015625)"/>
      <path id="Pretendard-Bold-2204" d="M 4963 5106 
L 4169 5106 
L 4169 3638 
L 3238 3638 
L 3238 2994 
L 4169 2994 
L 4169 956 
L 4963 956 
L 4963 5106 
z
M 5100 163 
L 1988 163 
L 1988 1319 
L 1188 1319 
L 1188 -475 
L 5100 -475 
L 5100 163 
z
M 2319 3994 
L 2319 4088 
L 3450 4088 
L 3450 4725 
L 363 4725 
L 363 4088 
L 1506 4088 
L 1506 4000 
C 1500 3275 1075 2531 138 2238 
L 544 1588 
C 1216 1813 1669 2269 1919 2844 
C 2169 2325 2600 1909 3231 1706 
L 3625 2338 
C 2719 2631 2319 3338 2319 3994 
z
" transform="scale(0.015625)"/>
      <path id="Pretendard-Bold-2cb8" d="M 4806 2175 
L 1594 2175 
L 1594 2825 
L 4631 2825 
L 4631 3450 
L 1594 3450 
L 1594 4050 
L 4763 4050 
L 4763 4694 
L 781 4694 
L 781 1544 
L 4806 1544 
L 4806 2175 
z
M 5375 738 
L 169 738 
L 169 88 
L 5375 88 
L 5375 738 
z
" transform="scale(0.015625)"/>
      <path id="Pretendard-Bold-2" transform="scale(0.015625)"/>
      <path id="Pretendard-Bold-20d0" d="M 4988 5106 
L 4188 5106 
L 4188 1806 
L 3100 1806 
L 3100 1263 
L 4188 1263 
L 4188 813 
L 4988 813 
L 4988 5106 
z
M 5113 163 
L 1669 163 
L 1669 944 
L 2469 944 
L 2469 2025 
C 2928 2059 3394 2113 3844 2188 
L 3800 2756 
C 2600 2606 1194 2594 150 2588 
L 244 1956 
C 675 1956 1159 1959 1669 1981 
L 1669 1225 
L 875 1225 
L 875 -475 
L 5113 -475 
L 5113 163 
z
M 2000 4913 
C 1150 4919 569 4500 569 3894 
C 569 3288 1156 2894 2000 2894 
C 2825 2894 3419 3288 3419 3894 
C 3419 4500 2825 4919 2000 4913 
z
M 2000 4331 
C 2381 4331 2656 4175 2663 3894 
C 2656 3619 2381 3469 2000 3469 
C 1594 3469 1319 3619 1325 3894 
C 1319 4175 1594 4331 2000 4331 
z
" transform="scale(0.015625)"/>
      <path id="Pretendard-Bold-1cdc" d="M 2381 3825 
L 2381 4675 
L 1575 4675 
L 1575 3825 
C 1569 2719 1088 1631 94 1213 
L 575 550 
C 1269 866 1734 1484 1994 2250 
C 2250 1547 2700 981 3350 688 
L 3819 1325 
C 2856 1731 2381 2781 2381 3825 
z
M 4931 5113 
L 4125 5113 
L 4125 -588 
L 4931 -588 
L 4931 5113 
z
" transform="scale(0.015625)"/>
     </defs>
     <use xlink:href="#Pretendard-Bold-1fd0"/>
     <use xlink:href="#Pretendard-Bold-2174" transform="translate(86.421875 0)"/>
     <use xlink:href="#Pretendard-Bold-2204" transform="translate(172.84375 0)"/>
     <use xlink:href="#Pretendard-Bold-2cb8" transform="translate(259.265625 0)"/>
     <use xlink:href="#Pretendard-Bold-2" transform="translate(345.6875 0)"/>
     <use xlink:href="#Pretendard-Bold-20d0" transform="translate(368.734375 0)"/>
     <use xlink:href="#Pretendard-Bold-1cdc" transform="translate(455.15625 0)"/>
    </g>
    <!-- 65.67% -->
    <g style="fill: #ffffff" transform="translate(109.266854 127.460527) scale(0.095 -0.095)">
     <defs>
      <path id="Pretendard-Bold-32cf" d="M 2106 -63 
C 3125 -69 3819 594 3819 1513 
C 3819 2363 3213 2975 2400 2975 
C 1900 2975 1450 2738 1244 2338 
L 1200 2338 
C 1206 3225 1531 3781 2144 3781 
C 2506 3781 2769 3588 2844 3269 
L 3769 3269 
C 3675 4013 3056 4588 2144 4588 
C 1013 4588 281 3681 281 2156 
C 281 500 1169 -56 2106 -63 
z
M 2100 681 
C 1638 681 1300 1044 1294 1488 
C 1300 1931 1650 2294 2113 2294 
C 2575 2294 2906 1938 2906 1488 
C 2906 1031 2563 681 2100 681 
z
" transform="scale(0.015625)"/>
      <path id="Pretendard-Bold-32ce" d="M 2019 -63 
C 3038 -63 3731 594 3731 1506 
C 3731 2375 3113 2994 2281 2994 
C 1881 2994 1544 2838 1375 2613 
L 1338 2613 
L 1463 3756 
L 3475 3756 
L 3475 4525 
L 688 4525 
L 444 1919 
L 1294 1919 
C 1431 2175 1669 2300 2006 2300 
C 2481 2294 2819 1963 2819 1481 
C 2819 1013 2488 681 2019 681 
C 1625 681 1300 919 1281 1275 
L 369 1275 
C 388 494 1075 -63 2019 -63 
z
" transform="scale(0.015625)"/>
      <path id="Pretendard-Bold-3359" d="M 906 -56 
C 1181 -56 1425 181 1425 469 
C 1425 756 1181 988 906 988 
C 613 988 375 756 381 469 
C 375 181 613 -56 906 -56 
z
" transform="scale(0.015625)"/>
      <path id="Pretendard-Bold-32d0" d="M 531 0 
L 1506 0 
L 3413 3744 
L 3413 4525 
L 219 4525 
L 219 3756 
L 2438 3756 
L 2438 3725 
L 531 0 
z
" transform="scale(0.015625)"/>
      <path id="Pretendard-Bold-3623" d="M 1544 2263 
C 2213 2263 2581 2750 2588 3469 
C 2581 4188 2225 4681 1544 4681 
C 881 4681 500 4188 500 3469 
C 500 2756 869 2263 1544 2263 
z
M 1544 2819 
C 1281 2819 1138 3081 1138 3469 
C 1138 3850 1275 4125 1544 4125 
C 1825 4125 1944 3856 1950 3469 
C 1944 3081 1813 2819 1544 2819 
z
M 4594 -150 
C 5269 -150 5638 338 5644 1056 
C 5638 1775 5275 2269 4594 2269 
C 3938 2269 3556 1775 3556 1056 
C 3556 344 3925 -150 4594 -150 
z
M 4594 406 
C 4338 406 4194 663 4194 1056 
C 4194 1438 4331 1706 4594 1706 
C 4881 1713 5000 1444 5006 1056 
C 5000 663 4869 406 4594 406 
z
M 1150 0 
L 1850 0 
L 4963 4525 
L 4263 4525 
L 1150 0 
z
" transform="scale(0.015625)"/>
     </defs>
     <use xlink:href="#Pretendard-Bold-32cf"/>
     <use xlink:href="#Pretendard-Bold-32ce" transform="translate(64.265625 0)"/>
     <use xlink:href="#Pretendard-Bold-3359" transform="translate(124.71875 0)"/>
     <use xlink:href="#Pretendard-Bold-32cf" transform="translate(150.0625 0)"/>
     <use xlink:href="#Pretendard-Bold-32d0" transform="translate(214.328125 0)"/>
     <use xlink:href="#Pretendard-Bold-3623" transform="translate(271.84375 0)"/>
    </g>
   </g>
  </g>
 </g>
 <defs>
  <clipPath id="p8e0e5e06ab">
   <rect x="47.025146" y="7.2" width="334.8" height="232.848"/>
  </clipPath>
 </defs>
</svg>
