<?xml version="1.0" encoding="utf-8" standalone="no"?>
<!DOCTYPE svg PUBLIC "-//W3C//DTD SVG 1.1//EN"
  "http://www.w3.org/Graphics/SVG/1.1/DTD/svg11.dtd">
<svg xmlns:xlink="http://www.w3.org/1999/xlink" width="461.209531pt" height="214.812006pt" viewBox="0 0 461.209531 214.812006" xmlns="http://www.w3.org/2000/svg" version="1.1">
 <metadata>
  <rdf:RDF xmlns:dc="http://purl.org/dc/elements/1.1/" xmlns:cc="http://creativecommons.org/ns#" xmlns:rdf="http://www.w3.org/1999/02/22-rdf-syntax-ns#">
   <cc:Work>
    <dc:type rdf:resource="http://purl.org/dc/dcmitype/StillImage"/>
    <dc:date>2026-07-19T11:59:45.547638</dc:date>
    <dc:format>image/svg+xml</dc:format>
    <dc:creator>
     <cc:Agent>
      <dc:title>Matplotlib v3.11.1, https://matplotlib.org/</dc:title>
     </cc:Agent>
    </dc:creator>
   </cc:Work>
  </rdf:RDF>
 </metadata>
 <defs>
  <style type="text/css">*{stroke-linejoin: round; stroke-linecap: butt}</style>
 </defs>
 <g id="figure_1">
  <g id="patch_1">
   <path d="M 0 214.812006 
L 461.209531 214.812006 
L 461.209531 0 
L 0 0 
z
" style="fill: #ffffff"/>
  </g>
  <g id="axes_1">
   <g id="patch_2">
    <path d="M 63.409531 171.561713 
L 454.009531 171.561713 
L 454.009531 27.417713 
L 63.409531 27.417713 
z
" style="fill: #ffffff"/>
   </g>
   <g id="patch_3">
    <path d="M 63.409531 33.969713 
L 412.159531 33.969713 
L 412.159531 62.233242 
L 63.409531 62.233242 
z
" clip-path="url(#p2bffa47ad5)" style="fill: #333333"/>
   </g>
   <g id="patch_4">
    <path d="M 63.409531 85.357948 
L 272.659531 85.357948 
L 272.659531 113.621477 
L 63.409531 113.621477 
z
" clip-path="url(#p2bffa47ad5)" style="fill: #c4443c"/>
   </g>
   <g id="patch_5">
    <path d="M 63.409531 136.746183 
L 272.659531 136.746183 
L 272.659531 165.009713 
L 63.409531 165.009713 
z
" clip-path="url(#p2bffa47ad5)" style="fill: #c4443c"/>
   </g>
   <g id="matplotlib.axis_1">
    <g id="xtick_1">
     <g id="line2d_1">
      <defs>
       <path id="m1f8dc16059" d="M 0 0 
L 0 3.5 
" style="stroke: #333333; stroke-width: 0.8"/>
      </defs>
      <g>
       <use xlink:href="#m1f8dc16059" x="63.409531" y="171.561713" style="fill: #333333; stroke: #333333; stroke-width: 0.8"/>
      </g>
     </g>
     <g id="text_1">
      <!-- 0 -->
      <g style="fill: #333333" transform="translate(60.430625 188.078314) scale(0.1 -0.1)">
       <defs>
        <path id="Pretendard-Regular-32c9" d="M 1906 -63 
C 2906 -63 3488 781 3488 2263 
C 3488 3731 2900 4588 1906 4588 
C 913 4588 325 3731 325 2263 
C 325 781 900 -63 1906 -63 
z
M 1906 438 
C 1250 438 869 1094 869 2263 
C 869 3431 1256 4100 1906 4100 
C 2556 4100 2938 3431 2938 2263 
C 2938 1094 2556 438 1906 438 
z
" transform="scale(0.015625)"/>
       </defs>
       <use xlink:href="#Pretendard-Regular-32c9"/>
      </g>
     </g>
    </g>
    <g id="xtick_2">
     <g id="line2d_2">
      <g>
       <use xlink:href="#m1f8dc16059" x="133.159531" y="171.561713" style="fill: #333333; stroke: #333333; stroke-width: 0.8"/>
      </g>
     </g>
     <g id="text_2">
      <!-- 1 -->
      <g style="fill: #333333" transform="translate(130.967344 188.078314) scale(0.1 -0.1)">
       <defs>
        <path id="Pretendard-Regular-32ca" d="M 2025 4525 
L 1456 4525 
L 331 3775 
L 331 3206 
L 1431 3938 
L 1456 3938 
L 1456 0 
L 2025 0 
L 2025 4525 
z
" transform="scale(0.015625)"/>
       </defs>
       <use xlink:href="#Pretendard-Regular-32ca"/>
      </g>
     </g>
    </g>
    <g id="xtick_3">
     <g id="line2d_3">
      <g>
       <use xlink:href="#m1f8dc16059" x="202.909531" y="171.561713" style="fill: #333333; stroke: #333333; stroke-width: 0.8"/>
      </g>
     </g>
     <g id="text_3">
      <!-- 2 -->
      <g style="fill: #333333" transform="translate(199.975156 188.078314) scale(0.1 -0.1)">
       <defs>
        <path id="Pretendard-Regular-32cb" d="M 425 0 
L 3363 0 
L 3363 500 
L 1206 500 
L 1206 538 
L 2244 1606 
C 3044 2431 3281 2825 3281 3331 
C 3281 4038 2694 4588 1875 4588 
C 1056 4588 438 4050 444 3250 
L 975 3250 
C 975 3756 1319 4100 1856 4100 
C 2363 4100 2756 3794 2756 3331 
C 2756 2913 2500 2606 1963 2038 
L 419 413 
L 425 0 
z
" transform="scale(0.015625)"/>
       </defs>
       <use xlink:href="#Pretendard-Regular-32cb"/>
      </g>
     </g>
    </g>
    <g id="xtick_4">
     <g id="line2d_4">
      <g>
       <use xlink:href="#m1f8dc16059" x="272.659531" y="171.561713" style="fill: #333333; stroke: #333333; stroke-width: 0.8"/>
      </g>
     </g>
     <g id="text_4">
      <!-- 3 -->
      <g style="fill: #333333" transform="translate(269.573594 188.078314) scale(0.1 -0.1)">
       <defs>
        <path id="Pretendard-Regular-32cc" d="M 1988 -63 
C 2888 -63 3569 488 3563 1231 
C 3569 1806 3206 2225 2619 2319 
L 2619 2350 
C 3094 2481 3394 2863 3388 3375 
C 3394 4025 2869 4588 2006 4588 
C 1200 4588 538 4106 506 3388 
L 1050 3388 
C 1075 3831 1519 4100 2000 4100 
C 2513 4100 2844 3794 2844 3344 
C 2844 2875 2463 2569 1913 2569 
L 1544 2569 
L 1544 2075 
L 1913 2075 
C 2619 2075 3013 1725 3013 1231 
C 3013 763 2575 438 1981 438 
C 1444 438 1013 706 981 1138 
L 413 1138 
C 444 419 1088 -63 1988 -63 
z
" transform="scale(0.015625)"/>
       </defs>
       <use xlink:href="#Pretendard-Regular-32cc"/>
      </g>
     </g>
    </g>
    <g id="xtick_5">
     <g id="line2d_5">
      <g>
       <use xlink:href="#m1f8dc16059" x="342.409531" y="171.561713" style="fill: #333333; stroke: #333333; stroke-width: 0.8"/>
      </g>
     </g>
     <g id="text_5">
      <!-- 4 -->
      <g style="fill: #333333" transform="translate(339.289219 188.078314) scale(0.1 -0.1)">
       <defs>
        <path id="Pretendard-Regular-32cd" d="M 313 925 
L 2506 925 
L 2506 0 
L 3044 0 
L 3044 925 
L 3675 925 
L 3675 1419 
L 3044 1419 
L 3044 4525 
L 2350 4525 
L 313 1388 
L 313 925 
z
M 919 1419 
L 919 1456 
L 2450 3813 
L 2506 3813 
L 2506 1419 
L 919 1419 
z
" transform="scale(0.015625)"/>
       </defs>
       <use xlink:href="#Pretendard-Regular-32cd"/>
      </g>
     </g>
    </g>
    <g id="xtick_6">
     <g id="line2d_6">
      <g>
       <use xlink:href="#m1f8dc16059" x="412.159531" y="171.561713" style="fill: #333333; stroke: #333333; stroke-width: 0.8"/>
      </g>
     </g>
     <g id="text_6">
      <!-- 5 -->
      <g style="fill: #333333" transform="translate(409.175937 188.078314) scale(0.1 -0.1)">
       <defs>
        <path id="Pretendard-Regular-32ce" d="M 1900 -63 
C 2800 -63 3463 569 3463 1444 
C 3463 2325 2825 2963 1963 2963 
C 1644 2963 1338 2856 1138 2700 
L 1094 2700 
L 1263 4025 
L 3244 4025 
L 3244 4525 
L 794 4525 
L 475 2050 
L 1019 2050 
C 1188 2344 1481 2463 1863 2456 
C 2469 2450 2913 2019 2913 1431 
C 2913 863 2488 431 1900 431 
C 1413 431 1019 731 975 1138 
L 431 1138 
C 463 444 1081 -63 1900 -63 
z
" transform="scale(0.015625)"/>
       </defs>
       <use xlink:href="#Pretendard-Regular-32ce"/>
      </g>
     </g>
    </g>
    <g id="text_7">
     <!-- 100개 응답이 커버한 5점 척도 보기 수 -->
     <g style="fill: #333333" transform="translate(176.39 204.958685) scale(0.11 -0.11)">
      <defs>
       <path id="Pretendard-Regular-61c" d="M 4969 5050 
L 4488 5050 
L 4488 2806 
L 3719 2806 
L 3719 4900 
L 3250 4900 
L 3250 -231 
L 3719 -231 
L 3719 2400 
L 4488 2400 
L 4488 -506 
L 4969 -506 
L 4969 5050 
z
M 2619 4325 
L 444 4325 
L 444 3919 
L 2138 3919 
C 2056 2769 1522 1750 231 1031 
L 519 688 
C 2119 1575 2613 2913 2619 4325 
z
" transform="scale(0.015625)"/>
       <path id="Pretendard-Regular-2" transform="scale(0.015625)"/>
       <path id="Pretendard-Regular-2151" d="M 5288 2344 
L 225 2344 
L 225 1944 
L 5288 1944 
L 5288 2344 
z
M 2756 1469 
C 1550 1475 838 1125 838 488 
C 838 -156 1550 -506 2756 -506 
C 3950 -506 4663 -156 4669 488 
C 4663 1125 3950 1475 2756 1469 
z
M 2756 1094 
C 3638 1094 4175 875 4175 488 
C 4175 100 3638 -119 2756 -113 
C 1863 -119 1331 100 1338 488 
C 1331 875 1863 1094 2756 1094 
z
M 2756 4906 
C 1550 4906 788 4506 788 3850 
C 788 3188 1550 2800 2756 2800 
C 3963 2800 4719 3188 4719 3850 
C 4719 4506 3963 4906 2756 4906 
z
M 2756 4506 
C 3644 4513 4219 4263 4219 3850 
C 4219 3431 3644 3188 2756 3188 
C 1856 3188 1288 3431 1294 3850 
C 1288 4263 1856 4513 2756 4506 
z
" transform="scale(0.015625)"/>
       <path id="Pretendard-Regular-cf5" d="M 4569 5050 
L 4081 5050 
L 4081 2088 
L 4569 2088 
L 4569 3331 
L 5406 3331 
L 5406 3744 
L 4569 3744 
L 4569 5050 
z
M 2950 4681 
L 488 4681 
L 488 2275 
L 919 2275 
C 2088 2275 2750 2313 3531 2469 
L 3469 2875 
C 2725 2722 2091 2688 975 2688 
L 975 4275 
L 2950 4275 
L 2950 4681 
z
M 1538 1788 
L 1050 1788 
L 1050 -413 
L 4569 -413 
L 4569 1788 
L 4081 1788 
L 4081 1094 
L 1538 1094 
L 1538 1788 
z
M 1538 -6 
L 1538 700 
L 4081 700 
L 4081 -6 
L 1538 -6 
z
" transform="scale(0.015625)"/>
       <path id="Pretendard-Regular-2174" d="M 4806 5050 
L 4313 5050 
L 4313 -519 
L 4806 -519 
L 4806 5050 
z
M 1850 4619 
C 1019 4613 431 3863 431 2681 
C 431 1500 1019 750 1850 750 
C 2675 750 3269 1500 3269 2681 
C 3269 3863 2675 4613 1850 4619 
z
M 1850 4181 
C 2406 4175 2794 3588 2794 2681 
C 2794 1775 2406 1188 1850 1188 
C 1294 1188 906 1775 906 2681 
C 906 3588 1294 4175 1850 4181 
z
" transform="scale(0.015625)"/>
       <path id="Pretendard-Regular-28e4" d="M 3050 4469 
L 531 4469 
L 531 4063 
L 2563 4063 
C 2541 3719 2481 3391 2381 3081 
L 250 2938 
L 338 2513 
L 2231 2694 
C 1884 1941 1253 1300 231 788 
L 513 413 
C 2475 1394 3044 2863 3050 4469 
z
M 4825 5050 
L 4338 5050 
L 4338 2813 
L 3031 2813 
L 3031 2406 
L 4338 2406 
L 4338 -506 
L 4825 -506 
L 4825 5050 
z
" transform="scale(0.015625)"/>
       <path id="Pretendard-Regular-1684" d="M 4831 5050 
L 4344 5050 
L 4344 2981 
L 3013 2981 
L 3013 4613 
L 2531 4613 
L 2531 3163 
L 944 3163 
L 944 4613 
L 450 4613 
L 450 888 
L 3013 888 
L 3013 2575 
L 4344 2575 
L 4344 -519 
L 4831 -519 
L 4831 5050 
z
M 944 1294 
L 944 2769 
L 2531 2769 
L 2531 1294 
L 944 1294 
z
" transform="scale(0.015625)"/>
       <path id="Pretendard-Regular-2f5c" d="M 4569 5044 
L 4081 5044 
L 4081 881 
L 4569 881 
L 4569 2800 
L 5406 2800 
L 5406 3213 
L 4569 3213 
L 4569 5044 
z
M 3550 4363 
L 2138 4363 
L 2138 5044 
L 1650 5044 
L 1650 4363 
L 238 4363 
L 238 3963 
L 3550 3963 
L 3550 4363 
z
M 1894 3656 
C 1094 3656 550 3250 556 2619 
C 550 1994 1094 1594 1894 1594 
C 2688 1594 3225 1994 3231 2619 
C 3225 3250 2688 3656 1894 3656 
z
M 1894 3269 
C 2413 3269 2763 3013 2769 2619 
C 2763 2225 2413 1975 1894 1981 
C 1369 1975 1019 2225 1025 2619 
C 1019 3013 1369 3269 1894 3269 
z
M 4825 25 
L 1575 25 
L 1575 1213 
L 1094 1213 
L 1094 -388 
L 4825 -388 
L 4825 25 
z
" transform="scale(0.015625)"/>
       <path id="Pretendard-Regular-2210" d="M 4831 5050 
L 4338 5050 
L 4338 3656 
L 3213 3656 
L 3213 3244 
L 4338 3244 
L 4338 1794 
L 4831 1794 
L 4831 5050 
z
M 4831 1519 
L 1200 1519 
L 1200 -431 
L 4831 -431 
L 4831 1519 
z
M 1688 1125 
L 4350 1125 
L 4350 -31 
L 1688 -31 
L 1688 1125 
z
M 2156 4063 
L 2156 4281 
L 3400 4281 
L 3400 4688 
L 406 4688 
L 406 4281 
L 1663 4281 
L 1663 4063 
C 1663 3269 1069 2531 250 2238 
L 506 1850 
C 1166 2091 1678 2603 1919 3244 
C 2156 2669 2641 2200 3269 1975 
L 3525 2363 
C 2713 2650 2156 3344 2156 4063 
z
" transform="scale(0.015625)"/>
       <path id="Pretendard-Regular-2699" d="M 4831 1375 
L 1094 1375 
L 1094 963 
L 4338 963 
L 4338 -519 
L 4831 -519 
L 4831 1375 
z
M 4831 5050 
L 4338 5050 
L 4338 3413 
L 3194 3413 
L 3194 3000 
L 4338 3000 
L 4338 1656 
L 4831 1656 
L 4831 5050 
z
M 2119 3825 
L 2119 3963 
L 3375 3963 
L 3375 4369 
L 2131 4369 
L 2131 5075 
L 1638 5075 
L 1638 4369 
L 381 4369 
L 381 3963 
L 1638 3963 
L 1638 3825 
C 1638 3063 1063 2375 244 2106 
L 488 1719 
C 1141 1950 1647 2422 1888 3031 
C 2134 2469 2647 2028 3300 1819 
L 3525 2213 
C 2706 2469 2119 3106 2119 3825 
z
" transform="scale(0.015625)"/>
       <path id="Pretendard-Regular-dc4" d="M 4713 2444 
L 1369 2444 
L 1369 4194 
L 4656 4194 
L 4656 4594 
L 875 4594 
L 875 2044 
L 2513 2044 
L 2513 606 
L 225 606 
L 225 194 
L 5313 194 
L 5313 606 
L 2994 606 
L 2994 2044 
L 4713 2044 
L 4713 2444 
z
" transform="scale(0.015625)"/>
       <path id="Pretendard-Regular-16f4" d="M 5313 613 
L 2994 613 
L 2994 1813 
L 4688 1813 
L 4688 4656 
L 4206 4656 
L 4206 3650 
L 1319 3650 
L 1319 4656 
L 825 4656 
L 825 1813 
L 2513 1813 
L 2513 613 
L 225 613 
L 225 206 
L 5313 206 
L 5313 613 
z
M 1319 2213 
L 1319 3250 
L 4206 3250 
L 4206 2213 
L 1319 2213 
z
" transform="scale(0.015625)"/>
       <path id="Pretendard-Regular-830" d="M 4819 5050 
L 4325 5050 
L 4325 -506 
L 4819 -506 
L 4819 5050 
z
M 3175 4444 
L 550 4444 
L 550 4044 
L 2675 4044 
C 2563 2716 1797 1650 294 938 
L 563 538 
C 2425 1431 3169 2844 3175 4444 
z
" transform="scale(0.015625)"/>
       <path id="Pretendard-Regular-1c18" d="M 3013 4531 
L 3013 4850 
L 2506 4850 
L 2506 4531 
C 2506 3738 1488 3069 488 2931 
L 688 2531 
C 1550 2675 2406 3150 2763 3838 
C 3122 3153 3975 2675 4838 2531 
L 5038 2931 
C 4038 3069 3013 3750 3013 4531 
z
M 5288 1919 
L 225 1919 
L 225 1506 
L 2506 1506 
L 2506 -506 
L 2988 -506 
L 2988 1506 
L 5288 1506 
L 5288 1919 
z
" transform="scale(0.015625)"/>
      </defs>
      <use xlink:href="#Pretendard-Regular-32ca"/>
      <use xlink:href="#Pretendard-Regular-32c9" transform="translate(43.84375 0)"/>
      <use xlink:href="#Pretendard-Regular-32c9" transform="translate(103.421875 0)"/>
      <use xlink:href="#Pretendard-Regular-61c" transform="translate(163 0)"/>
      <use xlink:href="#Pretendard-Regular-2" transform="translate(249.421875 0)"/>
      <use xlink:href="#Pretendard-Regular-2151" transform="translate(274.515625 0)"/>
      <use xlink:href="#Pretendard-Regular-cf5" transform="translate(360.9375 0)"/>
      <use xlink:href="#Pretendard-Regular-2174" transform="translate(447.359375 0)"/>
      <use xlink:href="#Pretendard-Regular-2" transform="translate(533.78125 0)"/>
      <use xlink:href="#Pretendard-Regular-28e4" transform="translate(558.875 0)"/>
      <use xlink:href="#Pretendard-Regular-1684" transform="translate(645.296875 0)"/>
      <use xlink:href="#Pretendard-Regular-2f5c" transform="translate(731.71875 0)"/>
      <use xlink:href="#Pretendard-Regular-2" transform="translate(818.140625 0)"/>
      <use xlink:href="#Pretendard-Regular-32ce" transform="translate(843.234375 0)"/>
      <use xlink:href="#Pretendard-Regular-2210" transform="translate(902.90625 0)"/>
      <use xlink:href="#Pretendard-Regular-2" transform="translate(989.328125 0)"/>
      <use xlink:href="#Pretendard-Regular-2699" transform="translate(1014.421875 0)"/>
      <use xlink:href="#Pretendard-Regular-dc4" transform="translate(1100.84375 0)"/>
      <use xlink:href="#Pretendard-Regular-2" transform="translate(1187.265625 0)"/>
      <use xlink:href="#Pretendard-Regular-16f4" transform="translate(1212.359375 0)"/>
      <use xlink:href="#Pretendard-Regular-830" transform="translate(1298.78125 0)"/>
      <use xlink:href="#Pretendard-Regular-2" transform="translate(1385.203125 0)"/>
      <use xlink:href="#Pretendard-Regular-1c18" transform="translate(1410.296875 0)"/>
     </g>
    </g>
   </g>
   <g id="matplotlib.axis_2">
    <g id="ytick_1">
     <g id="line2d_7">
      <defs>
       <path id="mf718ee6f5a" d="M 0 0 
L -3.5 0 
" style="stroke: #333333; stroke-width: 0.8"/>
      </defs>
      <g>
       <use xlink:href="#mf718ee6f5a" x="63.409531" y="48.101477" style="fill: #333333; stroke: #333333; stroke-width: 0.8"/>
      </g>
     </g>
     <g id="text_8">
      <!-- 사람 100명 -->
      <g style="fill: #333333" transform="translate(7.2 53.335608) scale(0.11 -0.11)">
       <defs>
        <path id="Pretendard-Regular-1aac" d="M 2088 3556 
L 2088 4569 
L 1606 4569 
L 1606 3556 
C 1600 2544 956 1475 144 1075 
L 456 681 
C 1081 1016 1606 1716 1856 2538 
C 2100 1766 2613 1109 3225 788 
L 3525 1181 
C 2738 1569 2088 2575 2088 3556 
z
M 4525 5050 
L 4038 5050 
L 4038 -506 
L 4525 -506 
L 4525 2369 
L 5456 2369 
L 5456 2794 
L 4525 2794 
L 4525 5050 
z
" transform="scale(0.015625)"/>
        <path id="Pretendard-Regular-118c" d="M 4569 5044 
L 4081 5044 
L 4081 1731 
L 4569 1731 
L 4569 3200 
L 5413 3200 
L 5413 3619 
L 4569 3619 
L 4569 5044 
z
M 4569 1456 
L 1050 1456 
L 1050 -431 
L 4569 -431 
L 4569 1456 
z
M 1531 1075 
L 4094 1075 
L 4094 -31 
L 1531 -31 
L 1531 1075 
z
M 2981 4744 
L 463 4744 
L 463 4338 
L 2500 4338 
L 2500 3606 
L 475 3606 
L 475 2025 
L 906 2025 
C 1938 2025 2681 2056 3575 2213 
L 3525 2606 
C 2659 2466 1944 2438 956 2438 
L 956 3225 
L 2981 3225 
L 2981 4744 
z
" transform="scale(0.015625)"/>
        <path id="Pretendard-Regular-1485" d="M 4831 5050 
L 4338 5050 
L 4338 4144 
L 3038 4144 
L 3038 4625 
L 488 4625 
L 488 2156 
L 3038 2156 
L 3038 2631 
L 4338 2631 
L 4338 1756 
L 4831 1756 
L 4831 5050 
z
M 975 4225 
L 2556 4225 
L 2556 2556 
L 975 2556 
L 975 4225 
z
M 2988 1594 
C 1831 1594 1125 1213 1125 544 
C 1125 -119 1831 -494 2988 -494 
C 4144 -494 4850 -119 4850 544 
C 4850 1213 4144 1594 2988 1594 
z
M 2988 1213 
C 3838 1206 4363 963 4363 544 
C 4363 144 3838 -106 2988 -106 
C 2138 -106 1606 144 1613 544 
C 1606 963 2138 1206 2988 1213 
z
M 3038 3044 
L 3038 3738 
L 4338 3738 
L 4338 3044 
L 3038 3044 
z
" transform="scale(0.015625)"/>
       </defs>
       <use xlink:href="#Pretendard-Regular-1aac"/>
       <use xlink:href="#Pretendard-Regular-118c" transform="translate(86.421875 0)"/>
       <use xlink:href="#Pretendard-Regular-2" transform="translate(172.84375 0)"/>
       <use xlink:href="#Pretendard-Regular-32ca" transform="translate(197.9375 0)"/>
       <use xlink:href="#Pretendard-Regular-32c9" transform="translate(241.78125 0)"/>
       <use xlink:href="#Pretendard-Regular-32c9" transform="translate(301.359375 0)"/>
       <use xlink:href="#Pretendard-Regular-1485" transform="translate(360.9375 0)"/>
      </g>
     </g>
    </g>
    <g id="ytick_2">
     <g id="line2d_8">
      <g>
       <use xlink:href="#mf718ee6f5a" x="63.409531" y="99.489713" style="fill: #333333; stroke: #333333; stroke-width: 0.8"/>
      </g>
     </g>
     <g id="text_9">
      <!-- GPT-4 -->
      <g style="fill: #333333" transform="translate(24.384062 104.723844) scale(0.11 -0.11)">
       <defs>
        <path id="Pretendard-Regular-63" d="M 3588 3113 
L 4169 3113 
C 4000 3988 3263 4588 2306 4588 
C 1144 4588 325 3694 325 2263 
C 325 831 1138 -63 2344 -63 
C 3419 -63 4194 656 4194 1781 
L 4194 2269 
L 2463 2269 
L 2463 1775 
L 3644 1775 
C 3631 975 3109 463 2344 463 
C 1506 463 869 1094 869 2263 
C 869 3431 1506 4063 2306 4063 
C 2950 4063 3394 3694 3588 3113 
z
" transform="scale(0.015625)"/>
        <path id="Pretendard-Regular-d6" d="M 500 0 
L 1063 0 
L 1063 1644 
L 2044 1644 
C 3100 1644 3581 2288 3581 3088 
C 3581 3894 3100 4525 2038 4525 
L 500 4525 
L 500 0 
z
M 1063 2144 
L 1063 4025 
L 2013 4025 
C 2738 4025 3025 3631 3025 3088 
C 3025 2550 2738 2144 2019 2144 
L 1063 2144 
z
" transform="scale(0.015625)"/>
        <path id="Pretendard-Regular-f3" d="M 250 4025 
L 1675 4025 
L 1675 0 
L 2244 0 
L 2244 4025 
L 3663 4025 
L 3663 4525 
L 250 4525 
L 250 4025 
z
" transform="scale(0.015625)"/>
        <path id="Pretendard-Regular-33c4" d="M 2375 2506 
L 394 2506 
L 394 2013 
L 2375 2013 
L 2375 2506 
z
" transform="scale(0.015625)"/>
       </defs>
       <use xlink:href="#Pretendard-Regular-63"/>
       <use xlink:href="#Pretendard-Regular-d6" transform="translate(70.90625 0)"/>
       <use xlink:href="#Pretendard-Regular-f3" transform="translate(131.359375 0)"/>
       <use xlink:href="#Pretendard-Regular-33c4" transform="translate(185.46875 0)"/>
       <use xlink:href="#Pretendard-Regular-32cd" transform="translate(228.734375 0)"/>
      </g>
     </g>
    </g>
    <g id="ytick_3">
     <g id="line2d_9">
      <g>
       <use xlink:href="#mf718ee6f5a" x="63.409531" y="150.877948" style="fill: #333333; stroke: #333333; stroke-width: 0.8"/>
      </g>
     </g>
     <g id="text_10">
      <!-- GPT-3.5 -->
      <g style="fill: #333333" transform="translate(15.613281 156.112079) scale(0.11 -0.11)">
       <defs>
        <path id="Pretendard-Regular-3359" d="M 813 -38 
C 1031 -38 1213 144 1213 369 
C 1213 588 1031 769 813 769 
C 594 769 406 588 413 369 
C 406 144 594 -38 813 -38 
z
" transform="scale(0.015625)"/>
       </defs>
       <use xlink:href="#Pretendard-Regular-63"/>
       <use xlink:href="#Pretendard-Regular-d6" transform="translate(70.90625 0)"/>
       <use xlink:href="#Pretendard-Regular-f3" transform="translate(131.359375 0)"/>
       <use xlink:href="#Pretendard-Regular-33c4" transform="translate(185.46875 0)"/>
       <use xlink:href="#Pretendard-Regular-32cc" transform="translate(227.65625 0)"/>
       <use xlink:href="#Pretendard-Regular-3359" transform="translate(287.171875 0)"/>
       <use xlink:href="#Pretendard-Regular-32ce" transform="translate(311.203125 0)"/>
      </g>
     </g>
    </g>
   </g>
   <g id="line2d_10">
    <path d="M 412.159531 171.561713 
L 412.159531 27.417713 
" clip-path="url(#p2bffa47ad5)" style="fill: none; stroke-dasharray: 3.7,1.6; stroke-dashoffset: 0; stroke: #bdbdbd"/>
   </g>
   <g id="patch_6">
    <path d="M 63.409531 171.561713 
L 63.409531 27.417713 
" style="fill: none; stroke: #333333; stroke-width: 0.8; stroke-linejoin: miter; stroke-linecap: square"/>
   </g>
   <g id="patch_7">
    <path d="M 63.409531 171.561713 
L 454.009531 171.561713 
" style="fill: none; stroke: #333333; stroke-width: 0.8; stroke-linejoin: miter; stroke-linecap: square"/>
   </g>
   <g id="text_11">
    <!-- 5 -->
    <g style="fill: #333333" transform="translate(417.042031 52.008948) scale(0.11 -0.11)">
     <use xlink:href="#Pretendard-Regular-32ce"/>
    </g>
   </g>
   <g id="text_12">
    <!-- 3 -->
    <g style="fill: #c4443c" transform="translate(277.542031 103.397183) scale(0.11 -0.11)">
     <use xlink:href="#Pretendard-Regular-32cc"/>
    </g>
   </g>
   <g id="text_13">
    <!-- 3 -->
    <g style="fill: #c4443c" transform="translate(277.542031 154.785419) scale(0.11 -0.11)">
     <use xlink:href="#Pretendard-Regular-32cc"/>
    </g>
   </g>
   <g id="text_14">
    <!-- 보기 전부 = 5 -->
    <g style="fill: #8a8a8a" transform="translate(358.449375 16.240771) scale(0.095 -0.095)">
     <defs>
      <path id="Pretendard-Regular-2204" d="M 4831 5044 
L 4338 5044 
L 4338 3506 
L 3194 3506 
L 3194 3100 
L 4338 3100 
L 4338 969 
L 4831 969 
L 4831 5044 
z
M 4988 25 
L 1756 25 
L 1756 1338 
L 1263 1338 
L 1263 -388 
L 4988 -388 
L 4988 25 
z
M 2156 3900 
L 2156 4188 
L 3400 4188 
L 3400 4594 
L 406 4594 
L 406 4188 
L 1663 4188 
L 1663 3900 
C 1663 3100 1069 2369 250 2081 
L 506 1681 
C 1166 1928 1678 2441 1919 3081 
C 2156 2506 2641 2038 3269 1813 
L 3525 2206 
C 2713 2481 2156 3181 2156 3900 
z
" transform="scale(0.015625)"/>
      <path id="Pretendard-Regular-1780" d="M 5306 1750 
L 219 1750 
L 219 1350 
L 2506 1350 
L 2506 -506 
L 2988 -506 
L 2988 1350 
L 5306 1350 
L 5306 1750 
z
M 1356 4819 
L 869 4819 
L 869 2425 
L 4650 2425 
L 4650 4819 
L 4156 4819 
L 4156 4050 
L 1356 4050 
L 1356 4819 
z
M 1356 2825 
L 1356 3650 
L 4156 3650 
L 4156 2825 
L 1356 2825 
z
" transform="scale(0.015625)"/>
      <path id="Pretendard-Regular-362f" d="M 644 2675 
L 3375 2675 
L 3375 3169 
L 644 3169 
L 644 2675 
z
M 644 1363 
L 3375 1363 
L 3375 1850 
L 644 1850 
L 644 1363 
z
" transform="scale(0.015625)"/>
     </defs>
     <use xlink:href="#Pretendard-Regular-16f4"/>
     <use xlink:href="#Pretendard-Regular-830" transform="translate(86.421875 0)"/>
     <use xlink:href="#Pretendard-Regular-2" transform="translate(172.84375 0)"/>
     <use xlink:href="#Pretendard-Regular-2204" transform="translate(197.9375 0)"/>
     <use xlink:href="#Pretendard-Regular-1780" transform="translate(284.359375 0)"/>
     <use xlink:href="#Pretendard-Regular-2" transform="translate(370.78125 0)"/>
     <use xlink:href="#Pretendard-Regular-362f" transform="translate(395.875 0)"/>
     <use xlink:href="#Pretendard-Regular-2" transform="translate(458.578125 0)"/>
     <use xlink:href="#Pretendard-Regular-32ce" transform="translate(483.671875 0)"/>
    </g>
   </g>
  </g>
 </g>
 <defs>
  <clipPath id="p2bffa47ad5">
   <rect x="63.409531" y="27.417713" width="390.6" height="144.144"/>
  </clipPath>
 </defs>
</svg>
